<svg xmlns="http://www.w3.org/2000/svg" viewBox="0 0 48 48"><defs><style>.cls-1{fill:#ff6c2c;}</style></defs><g id="Base_Icons" data-name="Base Icons"><path d="M15.89984,27.5a3.08972,3.08972,0,0,0,.93079-.14,3.02164,3.02164,0,0,0,.80792-.38947,2.6,2.6,0,0,0,.62537-.60376,2.50625,2.50625,0,0,0,.38781-.77447l1.3946-4.67212h.00128a.29007.29007,0,0,0-.06305-.28876.37018.37018,0,0,0-.29572-.13129H18.65173a.62929.62929,0,0,0-.36358.10944.499.499,0,0,0-.20844.28436l-1.25043,4.20831a.87529.87529,0,0,1-.36352.49445,1.08531,1.08531,0,0,1-.62537.18811H14.65784l1.44433-4.86462a.296.296,0,0,0-.05822-.28876.35492.35492,0,0,0-.29084-.13129H14.7063a.61332.61332,0,0,0-.35388.10944.49905.49905,0,0,0-.20813.28436l-1.45435,4.89087H10.72205l1.44628-4.86462a.29021.29021,0,0,0-.06463-.28876.37018.37018,0,0,0-.29572-.13129H10.77087a.62909.62909,0,0,0-.36389.10944.49876.49876,0,0,0-.20849.28436L8.25,27.5Z"/><path d="M27.04926,20.60938a.49768.49768,0,0,0-.20813.28436l-.6681,2.24841H23.75238l.765-2.64215H23.01685a.62781.62781,0,0,0-.36341.10913.49881.49881,0,0,0-.20819.28436L20.6156,27.0874a.27756.27756,0,0,0,.06293.28.357.357,0,0,0,.28564.13123h1.036a.62726.62726,0,0,0,.3631-.10938.5.5,0,0,0,.20819-.28436l.66809-2.24841,2.419.00116-.65839,2.23089a.28108.28108,0,0,0,.058.28.35429.35429,0,0,0,.29046.13123h1.04572a.61162.61162,0,0,0,.35406-.11054.49883.49883,0,0,0,.2082-.28436L28.92188,20.5H27.402A.61129.61129,0,0,0,27.04926,20.60938Z"/><path d="M30.67438,27.39044a.49832.49832,0,0,0,.2055-.28442l1.436-4.89093h1.94336l-1.42609,4.86468a.29731.29731,0,0,0,.05713.28876.34844.34844,0,0,0,.28717.13129h1.03393a.60057.60057,0,0,0,.34937-.10938.5.5,0,0,0,.20587-.28442l1.436-4.89093h.44036a1.18062,1.18062,0,0,1,.52173.11371,1.04686,1.04686,0,0,1,.59833,1.21612l-1.04474,3.53485a.29216.29216,0,0,0,.06378.28876.3614.3614,0,0,0,.292.13129h1.024a.61512.61512,0,0,0,.359-.10938.501.501,0,0,0,.20581-.28442l.98609-3.3598a2.25967,2.25967,0,0,0,.038-1.19861,2.64148,2.64148,0,0,0-1.48639-1.77179,2.938,2.938,0,0,0-1.278-.2757H30.87317l-1.93341,6.58-.00293-.00031a.29119.29119,0,0,0,.06225.28876.3612.3612,0,0,0,.29194.13129h1.02435A.61721.61721,0,0,0,30.67438,27.39044Z"/><path d="M41.49951,10H13.72217a.5.5,0,1,0,0,1H41.49951A.50107.50107,0,0,1,42,11.5v17a.5.5,0,0,0,1,0v-17A1.50206,1.50206,0,0,0,41.49951,10Z"/><path d="M26.68506,37H6.50049A.50107.50107,0,0,1,6,36.5V14.5498a.5.5,0,1,0-1,0V36.5A1.50206,1.50206,0,0,0,6.50049,38H26.68506a.5.5,0,0,0,0-1Z"/><path d="M5.1499,10.84961A.452.452,0,0,0,5.5,11a.40294.40294,0,0,0,.18994-.04.35789.35789,0,0,0,.15967-.11035A.46818.46818,0,0,0,6,10.5a.4382.4382,0,0,0-.04-.19043.35694.35694,0,0,0-.11035-.16016A.49428.49428,0,0,0,5.31006,10.04a.35231.35231,0,0,0-.16016.10937A.47136.47136,0,0,0,5,10.5a.40093.40093,0,0,0,.04.18945A.35074.35074,0,0,0,5.1499,10.84961Z"/><path d="M7.88965,10.84961A.46819.46819,0,0,0,8.23975,11a.40167.40167,0,0,0,.18994-.04.45921.45921,0,0,0,.16992-.11035.43191.43191,0,0,0,.1001-.16016.40093.40093,0,0,0,.04-.18945.43142.43142,0,0,0-.04-.19043.44.44,0,0,0-.1001-.16016A.44453.44453,0,0,0,8.42969,10.04a.50157.50157,0,0,0-.37989,0,.35234.35234,0,0,0-.16015.10937.47317.47317,0,0,0-.1499.35059.40679.40679,0,0,0,.04.18945A.35435.35435,0,0,0,7.88965,10.84961Z"/><path d="M10.62988,10.84961A.46671.46671,0,0,0,10.98,11a.40294.40294,0,0,0,.18994-.04.45913.45913,0,0,0,.16992-.11035.43191.43191,0,0,0,.1001-.16016A.40679.40679,0,0,0,11.48,10.5a.54851.54851,0,0,0-.14014-.35059.44445.44445,0,0,0-.16992-.10937.50154.50154,0,0,0-.37988,0,.35231.35231,0,0,0-.16016.10937.35592.35592,0,0,0-.10986.16016.43142.43142,0,0,0-.04.19043.40093.40093,0,0,0,.04.18945A.35074.35074,0,0,0,10.62988,10.84961Z"/></g><g id="Sub_Icons" data-name="Sub Icons"><path class="cls-1" d="M41.96436,34.582a1.0487,1.0487,0,0,0-.11573-.81641L40.919,32.2168a1.09938,1.09938,0,0,0-1.43311-.41211c-.02.00781-.13428.01953-.15332.03027a7.46133,7.46133,0,0,0-1.30664-.76172A1.08609,1.08609,0,0,0,36.92969,30H35.07031a1.141,1.141,0,0,0-1.126,1.123,9.87553,9.87553,0,0,0-1.376.707,1.12043,1.12043,0,0,0-1.48877.38965l-.92822,1.54589a1.0487,1.0487,0,0,0-.11573.81641,1.18389,1.18389,0,0,0,.55665.70215A5.09232,5.09232,0,0,0,30.541,36c0,.24316.01806.48145.01464.75586a1.07023,1.07023,0,0,0-.51953.66113,1.04941,1.04941,0,0,0,.11524.81739l.92968,1.54882a1.09781,1.09781,0,0,0,1.43311.41211c.02-.00781.13428-.01953.15332-.03027a7.46133,7.46133,0,0,0,1.30664.76172A1.08609,1.08609,0,0,0,35.07031,42h1.85938a1.141,1.141,0,0,0,1.126-1.123,5.48465,5.48465,0,0,0,1.27686-.71191l-.29932-.40039.39991.40625a1.11332,1.11332,0,0,0,1.48681-.39063l.92871-1.54687a1.04646,1.04646,0,0,0,.11524-.81641,1.07023,1.07023,0,0,0-.51953-.66113l-.24268.4375.20605-.47754A5.09232,5.09232,0,0,0,41.459,36c0-.24316-.01806-.48145-.01464-.75586A1.06861,1.06861,0,0,0,41.96436,34.582ZM40.0625,39.26562a.11552.11552,0,0,1-.14893.02735,1.0872,1.0872,0,0,0-1.17968.07129,4.47376,4.47376,0,0,1-1.0459.583,1.047,1.047,0,0,0-.66211.97949A.08941.08941,0,0,1,36.92969,41H35.07031a.08866.08866,0,0,1-.09619-.07422,1.04588,1.04588,0,0,0-.66357-.97851,4.49381,4.49381,0,0,1-1.04444-.583,1.06674,1.06674,0,0,0-.63965-.21094,1.13147,1.13147,0,0,0-.54541.14258.10841.10841,0,0,1-.14306-.0293l-.896-1.63672a1.04337,1.04337,0,0,0,.54053-1.05664A3.97114,3.97114,0,0,1,31.541,36a4.0188,4.0188,0,0,1,.0415-.5752,1.21648,1.21648,0,0,0-.57373-1.14355l.92773-1.5459a.11407.11407,0,0,1,.14991-.02832,1.09147,1.09147,0,0,0,1.17968-.07129,4.47376,4.47376,0,0,1,1.0459-.583,1.047,1.047,0,0,0,.66211-.97949A.08941.08941,0,0,1,35.07031,31h1.85938a.08866.08866,0,0,1,.09619.07422,1.04588,1.04588,0,0,0,.66357.97851,4.49381,4.49381,0,0,1,1.04444.583,1.094,1.094,0,0,0,1.18506.06836.10987.10987,0,0,1,.14306.0293l.896,1.63672a1.04337,1.04337,0,0,0-.54053,1.05664A3.97114,3.97114,0,0,1,40.459,36a4.0188,4.0188,0,0,1-.0415.5752,1.04213,1.04213,0,0,0,.54053,1.05468l.0332.08887Z"/><path class="cls-1" d="M37.25,33.834a2.50054,2.50054,0,1,0,.915,3.416A2.50474,2.50474,0,0,0,37.25,33.834Zm.04883,2.916A1.499,1.499,0,1,1,36.75,34.7002,1.50315,1.50315,0,0,1,37.29883,36.75Z"/></g></svg>