<?xml version="1.0" encoding="UTF-8"?> <svg xmlns="http://www.w3.org/2000/svg" id="_ëîé_1" data-name=" ëîé 1" viewBox="0 0 2001 2001"><defs><style>.cls-1{fill:none;stroke:#fff;stroke-miterlimit:10;}.cls-2{fill:#242833;fill-rule:evenodd;}</style></defs><rect class="cls-1" x="0.5" y="0.5" width="2000" height="2000"></rect><path class="cls-2" d="M1033.5,1474.23a33,33,0,1,0-33,33h0A33,33,0,0,0,1033.5,1474.23Z"></path><path class="cls-2" d="M1932.5,189.31H68.5a68.209,68.209,0,0,0-68,68v1223.1a68.23,68.23,0,0,0,68,68.09H843.23l-25.4,222.22H510.78v41h979.44v-41h-307l-25.44-222.22H1932.5a68.25,68.25,0,0,0,68-68.07V257.35A68.241,68.241,0,0,0,1932.5,189.31Zm-932,45.19a12,12,0,1,1-.12,0Zm51.33,1335.35c0,28.76-23,47.12-51.33,47.12s-51.31-18.36-51.31-47.12l-1.2-21.39h105Zm-88.8-95.64a37.44,37.44,0,1,1,0,.04v-.04Zm965.73-61.84H72.4V289.91H1928.76Z"></path><g id="Layer_1" data-name="Layer 1"><path d="M852.391,959.318h61.516a10.352,10.352,0,0,0,10.352-10.352h0V905.025a10.352,10.352,0,0,0-10.352-10.352H893.022l64.192-73.491,64.191,73.491h-20.932a10.352,10.352,0,0,0-10.352,10.352h0V980.4H956.8a10.351,10.351,0,0,0-7.8,17.162l86.981,99.581a10.357,10.357,0,0,0,15.593,0l86.979-99.58a10.352,10.352,0,0,0-7.8-17.162h-33.318l0-21.078h51.169a104.16,104.16,0,0,0,8.855-207.945,163.24,163.24,0,0,0-313.933,0,104.159,104.159,0,0,0,8.86,207.942Zm-.674-187.606a10.353,10.353,0,0,0,10-8.006,142.525,142.525,0,0,1,277.557,0,10.353,10.353,0,0,0,10,8.006,83.452,83.452,0,0,1-.675,166.9h-61.524a10.352,10.352,0,0,0-10.349,10.354l.01,41.783a10.353,10.353,0,0,0,10.353,10.349h20.883l-64.192,73.491L979.593,1001.1h20.884a10.353,10.353,0,0,0,10.353-10.352h0V915.377H1044.2a10.351,10.351,0,0,0,7.8-17.162l-86.988-99.581a10.356,10.356,0,0,0-15.592,0l-86.975,99.581a10.352,10.352,0,0,0,7.8,17.162h33.318v23.237H852.39a83.452,83.452,0,0,1-.675-166.9Z"></path></g></svg> 