<?xml version="1.0" encoding="UTF-8"?> <svg xmlns="http://www.w3.org/2000/svg" id="_ëîé_1" data-name="‘ëîé_1" viewBox="0 0 2001 2001"><defs><style>.cls-1{fill:none;stroke:#fff;stroke-miterlimit:10;}.cls-2{fill:#242833;fill-rule:evenodd;}</style></defs><rect class="cls-1" x="0.5" y="0.5" width="2000" height="2000"></rect><path d="M1084.11,666.46a20.84,20.84,0,0,0-14.89,38.94,193.81,193.81,0,0,1,124.62,181.11c0,106.89-87,193.84-193.84,193.84S806.16,993.4,806.16,886.51A193.78,193.78,0,0,1,930.77,705.4a20.84,20.84,0,1,0-14.89-38.94,235.47,235.47,0,0,0-151.4,220C764.48,1016.7,869.83,1122,1000,1122s235.52-105.34,235.52-235.52A235.46,235.46,0,0,0,1084.11,666.46Z" transform="translate(0.5 0.5)"></path><path d="M1000,588.47a20.84,20.84,0,0,0-20.84,20.84v204.1a20.84,20.84,0,0,0,41.68,0V609.31A20.84,20.84,0,0,0,1000,588.47Z" transform="translate(0.5 0.5)"></path><path class="cls-2" d="M1033,1473.73a33,33,0,1,0-33,33A33,33,0,0,0,1033,1473.73Z" transform="translate(0.5 0.5)"></path><path class="cls-2" d="M1932,188.81H68a68.21,68.21,0,0,0-68,68V1479.91A68.23,68.23,0,0,0,68,1548H842.73l-25.4,222.22H510.28v41h979.44v-41h-307L1157.28,1548H1932a68.25,68.25,0,0,0,68-68.07V256.85A68.24,68.24,0,0,0,1932,188.81ZM1000,234a12,12,0,1,1-12.06,12.06A12,12,0,0,1,1000,234Zm51.33,1335.35c0,28.76-23,47.12-51.33,47.12s-51.31-18.36-51.31-47.12l-1.2-21.39h105Zm-88.8-95.64a37.46,37.46,0,1,1,37.5,37.46A37.46,37.46,0,0,1,962.53,1473.73Zm965.73-61.84H71.9V289.41H1928.26Z" transform="translate(0.5 0.5)"></path></svg> 