<?xml version="1.0" encoding="UTF-8"?> <svg xmlns="http://www.w3.org/2000/svg" id="_ëîé_1" data-name=" ëîé 1" viewBox="0 0 2001 2001"><defs><style>.cls-1{fill:none;stroke:#fff;stroke-miterlimit:10;}.cls-2{fill:#242833;fill-rule:evenodd;}</style></defs><rect class="cls-1" x="0.5" y="0.5" width="2000" height="2000"></rect><path class="cls-2" d="M1033.5,1474.23a33,33,0,1,0-33,33h0A33,33,0,0,0,1033.5,1474.23Z"></path><path class="cls-2" d="M1932.5,189.31H68.5a68.209,68.209,0,0,0-68,68v1223.1a68.23,68.23,0,0,0,68,68.09H843.23l-25.4,222.22H510.78v41h979.44v-41h-307l-25.44-222.22H1932.5a68.25,68.25,0,0,0,68-68.07V257.35A68.241,68.241,0,0,0,1932.5,189.31Zm-932,45.19a12,12,0,1,1-.12,0Zm51.33,1335.35c0,28.76-23,47.12-51.33,47.12s-51.31-18.36-51.31-47.12l-1.2-21.39h105Zm-88.8-95.64a37.44,37.44,0,1,1,0,.04v-.04Zm965.73-61.84H72.4V289.91H1928.76Z"></path><path d="M1229.934,683.6a9.411,9.411,0,0,0-8.816,2.539l-39.052,39.36h-18.722l-20.609-21.352V685.165l38.492-39.067a9.42,9.42,0,0,0-3.7-15.535,94.271,94.271,0,0,0-121.088,113.692l-69.386,69.386-115.6-115.863v-22.74a9.417,9.417,0,0,0-4.574-8.076l-66.6-39.968a9.413,9.413,0,0,0-11.506,1.416l-26.641,26.637a9.428,9.428,0,0,0-1.416,11.51l39.96,66.6a9.421,9.421,0,0,0,8.073,4.574l22.733.007L947.087,853.605l-69.121,69.122a94.254,94.254,0,0,0-113.692,121.088,9.419,9.419,0,0,0,15.612,3.628l39.048-39.357h18.825l21.448,21.448v18.825l-39.357,39.048a9.42,9.42,0,0,0,3.628,15.613A94.275,94.275,0,0,0,944.566,989.327l55.515-55.514,12.716,13.814-5.836,5.832a9.421,9.421,0,0,0,13.324,13.324l5.284-5.284,119.315,129.6c.088.1.18.188.272.28a56.523,56.523,0,0,0,79.936-79.936c-.1-.1-.2-.187-.3-.279L1094.992,892.079l5.225-5.225a9.42,9.42,0,1,0-13.324-13.32l-5.8,5.8-13.839-12.7,55.783-55.782a94.248,94.248,0,0,0,113.684-121.081A9.409,9.409,0,0,0,1229.934,683.6ZM842.053,721.67A9.324,9.324,0,0,0,835.389,719l-21.305-.007-33.433-55.819,16.239-16.238,55.723,33.44v21.3a9.415,9.415,0,0,0,2.753,6.652L973.731,826.965l-13.324,13.32Zm239.6,183.744L1211.9,1024.9a37.685,37.685,0,0,1-53.3,53.288L1038.9,948.164Zm-13.894-12.75-41.635,41.628-12.716-13.814,40.512-40.516Zm79.682-97.461a75.287,75.287,0,0,1-24.076-3.926,9.436,9.436,0,0,0-9.666,2.266c-47.224,47.224-148.98,148.976-186.449,186.449a9.418,9.418,0,0,0-2.267,9.67,75.431,75.431,0,0,1-71.432,99.43,77.35,77.35,0,0,1-8.213-.441l29.919-29.687a9.417,9.417,0,0,0,2.786-6.686V1025.63a9.421,9.421,0,0,0-2.76-6.66L848.319,992a9.418,9.418,0,0,0-6.66-2.759H815.012a9.431,9.431,0,0,0-6.69,2.785l-29.683,29.919a76.037,76.037,0,0,1-.442-8.213A75.434,75.434,0,0,1,877.631,942.3a9.412,9.412,0,0,0,9.666-2.266c.519-.516,186.317-186.317,186.449-186.449a9.421,9.421,0,0,0,2.267-9.667,75.425,75.425,0,0,1,71.428-99.43,76.982,76.982,0,0,1,8.459.468l-29.3,29.734a9.418,9.418,0,0,0-2.708,6.609v26.648a9.409,9.409,0,0,0,2.642,6.542l26.026,26.968a9.413,9.413,0,0,0,6.778,2.877h26.647a9.416,9.416,0,0,0,6.686-2.785l29.684-29.915a76.274,76.274,0,0,1,.441,8.212A75.441,75.441,0,0,1,1147.445,795.2Z"></path></svg> 