<svg xmlns="http://www.w3.org/2000/svg" viewBox="0 0 48 48"><defs><style>.cls-1{fill:#ff6c2c;}</style></defs><g id="Base_Icons" data-name="Base Icons"><path d="M41,22a4.97873,4.97873,0,0,0-8.88025-3.11414l-8.91156-5.78015a6.49925,6.49925,0,1,0-6.98065,3.26746L14.09912,34.01C14.06531,34.00928,14.03394,34,14,34a5.03859,5.03859,0,1,0,1.09143.12817l2.129-17.64233c.09338.004.18518.01416.27954.01416a6.48673,6.48673,0,0,0,5.15662-2.55859l8.91681,5.78344A4.93543,4.93543,0,0,0,31,22a5,5,0,0,0,10,0ZM18,39a4,4,0,1,1-4-4A4.004,4.004,0,0,1,18,39Zm-.5-23.5A5.5,5.5,0,1,1,23,10,5.50685,5.50685,0,0,1,17.5,15.5ZM36,26a4,4,0,1,1,4-4A4.004,4.004,0,0,1,36,26Z"/></g><g id="Sub_Icons" data-name="Sub Icons"><path class="cls-1" d="M25.5,35h-1a.49971.49971,0,0,0-.5.5v6a.49971.49971,0,0,0,.5.5h1a3.5,3.5,0,0,0,0-7Zm0,6H25V36h.5a2.5,2.5,0,0,1,0,5Z"/><path class="cls-1" d="M35,35a.49971.49971,0,0,0-.5.5v4.34863l-3.084-4.626A.5.5,0,0,0,30.5,35.5v6a.5.5,0,0,0,1,0V37.15137l3.084,4.626A.50052.50052,0,0,0,35,42a.49411.49411,0,0,0,.14453-.02148A.49955.49955,0,0,0,35.5,41.5v-6A.49971.49971,0,0,0,35,35Z"/><path class="cls-1" d="M40,38H39a1,1,0,0,1,0-2h1.5a.5.5,0,0,0,0-1H39a2,2,0,0,0,0,4h1a1,1,0,0,1,0,2H37.5a.5.5,0,0,0,0,1H40a2,2,0,0,0,0-4Z"/></g></svg>