<?xml version="1.0" encoding="utf-8"?>
<!-- Generator: Adobe Illustrator 28.0.0, SVG Export Plug-In . SVG Version: 6.00 Build 0)  -->
<svg version="1.1" id="Laag_1" xmlns="http://www.w3.org/2000/svg" xmlns:xlink="http://www.w3.org/1999/xlink" x="0px" y="0px"
	 viewBox="0 0 600 150" style="enable-background:new 0 0 600 150;" xml:space="preserve">
<style type="text/css">
	.st0{clip-path:url(#SVGID_00000103252626947869400310000010282385352827053184_);}
	.st1{clip-path:url(#SVGID_00000034796310925645497270000011336930177545129386_);}
	.st2{fill:#1E1E1E;}
	.st3{fill:#BDEA18;}
	.st4{fill:#FC3F4D;}
	.st5{fill:#FFFFFF;}
	.st6{fill:#FFF13E;}
	.st7{fill:#00ADEF;}
	.st8{fill:#27346A;}
	.st9{fill:#2790C3;}
	.st10{fill:#1F264F;}
	.st11{fill:#0F4CA1;}
	.st12{fill:#FFFFFE;}
	.st13{fill:#FF9500;}
	.st14{fill:url(#SVGID_00000047749415523863166930000006256188996383531413_);}
	.st15{fill:#D50029;}
	.st16{fill:#F4B6C7;}
	.st17{fill-rule:evenodd;clip-rule:evenodd;}
	.st18{clip-path:url(#SVGID_00000138559876493820877550000006373319455708017037_);}
	.st19{clip-path:url(#SVGID_00000159448784208620264440000002333467464083117967_);fill:#009FE3;}
	.st20{clip-path:url(#SVGID_00000089557325703377684630000002944054077388767399_);fill:#009FE3;}
	.st21{clip-path:url(#SVGID_00000095330340949748147700000017939893878363471290_);fill:#D8EEFD;}
	.st22{clip-path:url(#SVGID_00000036967956825444328450000014825394716727904937_);fill:#D8EEFD;}
	.st23{clip-path:url(#SVGID_00000010285833619689015670000015732098455073719701_);fill:#1A69A1;}
	.st24{clip-path:url(#SVGID_00000090996315598170450480000009194069148171827114_);fill:#1A69A1;}
	.st25{fill:#CC0066;}
	.st26{fill:#1E3764;}
	.st27{fill:url(#blue-symbol_00000094590649209131192950000009099933489035612317_);}
	.st28{fill:url(#yellow-symbol_00000063604336122316419050000013496356280622335635_);}
	.st29{fill:#78A431;}
	.st30{fill:#675041;}
	.st31{fill:#F56900;}
	.st32{clip-path:url(#SVGID_00000166678046849341671330000015077811602860183442_);}
	.st33{fill:url(#SVGID_00000075162168809055111120000004634729637719027131_);}
	.st34{opacity:0.1;fill:url(#SVGID_00000124149554768897941260000013231871998848507575_);enable-background:new    ;}
	.st35{opacity:0.1;fill:url(#SVGID_00000029753010005388451590000013779560748869009847_);enable-background:new    ;}
	.st36{opacity:0.1;fill:url(#SVGID_00000124867620647197585430000007388411690456994211_);enable-background:new    ;}
	.st37{fill:url(#SVGID_00000007388948034126263210000007683637359995016597_);}
	.st38{opacity:0.3;fill:#7A3802;enable-background:new    ;}
	.st39{fill:#FFFFFF;fill-opacity:0.8;}
</style>
<path d="M13,58.2c0-0.1,0-0.2,0.1-0.3H9c-0.1,0-0.2,0.1-0.2,0.2l0,0v0.7C8.8,58.9,8.9,59,9,59l0,0l0,0h4
	C12.9,58.8,12.9,58.5,13,58.2L13,58.2z"/>
<path d="M21.9,53L21,54v6.6c0,0.1,0,0.1-0.1,0.1l0,0H1.8c-0.1,0-0.1,0-0.1-0.1l0,0l0,0V50.2h15.5l0.7-1l0.9-1.2l0.1-0.2l0.6-0.9H1.8
	c-1,0-1.8,0.8-1.8,1.8v11.9c0,1,0.8,1.8,1.8,1.8h19.1c1,0,1.8-0.8,1.8-1.8v-7.2C22.4,53.4,22.1,53.2,21.9,53z"/>
<g>
	<g>
		<g>
			<g>
				<g>
					<g>
						<defs>
							<rect id="SVGID_1_" y="42.5" width="27" height="20"/>
						</defs>
						<clipPath id="SVGID_00000015334879908544194450000000702122271711594895_">
							<use xlink:href="#SVGID_1_"  style="overflow:visible;"/>
						</clipPath>
						<g style="clip-path:url(#SVGID_00000015334879908544194450000000702122271711594895_);">
							<path d="M13.9,56H9c-0.1,0-0.2,0.1-0.2,0.2l0,0V57c0,0.1,0.1,0.2,0.2,0.2l0,0h4.3C13.5,56.8,13.6,56.4,13.9,56z"/>
						</g>
					</g>
				</g>
			</g>
		</g>
	</g>
</g>
<g>
	<g>
		<g>
			<g>
				<g>
					<g>
						<defs>
							<rect id="SVGID_00000148622475730642885210000001959722833570237582_" y="42.5" width="27" height="20"/>
						</defs>
						<clipPath id="SVGID_00000157293460918094310750000000037404150833743285_">
							<use xlink:href="#SVGID_00000148622475730642885210000001959722833570237582_"  style="overflow:visible;"/>
						</clipPath>
						<g style="clip-path:url(#SVGID_00000157293460918094310750000000037404150833743285_);">
							<path d="M26.8,46.6l-1.1-0.8l0.3-0.5c0.1-0.3,0.3-0.5,0.4-0.8c0-0.1,0.1-0.2,0.1-0.3c0.2-0.6-0.1-1.2-0.6-1.5
								c-0.4-0.4-1-0.4-1.5,0c-0.3,0.3-0.7,0.5-0.9,0.9c-1,1.2-1.9,2.4-2.8,3.7l-1.1,1.5c-1.2,1.7-2.4,3.5-3.4,5.3
								c-0.7,1.2-1.4,2.4-1.9,3.7c-0.1,0.2-0.1,0.4-0.2,0.5c0,0.2-0.1,0.5,0.1,0.6s0.4,0,0.6-0.1c0.5-0.3,1-0.7,1.4-1.1
								c2.1-2.1,4-4.3,5.7-6.6l0,0l0.5-0.6l0.1-0.1l0.8-1l0.1-0.1c0.6-0.9,1.2-1.7,1.8-2.6l0,0l0.7,0.5l-3.2,4.4
								c-0.2,0.2-0.1,0.5,0.1,0.7l0,0l0,0l0,0c0.1,0.1,0.2,0.1,0.4,0.1c0.1,0,0.2-0.1,0.3-0.2l3.5-4.8C27,47.2,27.1,46.9,26.8,46.6
								C26.8,46.7,26.8,46.6,26.8,46.6L26.8,46.6z"/>
						</g>
					</g>
				</g>
			</g>
		</g>
	</g>
</g>
<path d="M14.9,54H9c-0.1,0-0.2,0.1-0.2,0.2l0,0l0,0V55c0,0.1,0.1,0.2,0.2,0.2h5.3C14.4,54.8,14.7,54.4,14.9,54z M16.1,52H9
	c-0.1,0-0.2,0.1-0.2,0.2l0,0l0,0V53c0,0.1,0.1,0.2,0.2,0.2l0,0h6.4C15.6,52.9,15.8,52.5,16.1,52L16.1,52z M2.9,55.6
	c-0.1,0-0.2,0.1-0.2,0.2v0.4c0,0.1,0.1,0.2,0.2,0.2h0.6c0,0.2,0.1,0.3,0.2,0.5c0.3,0.8,0.9,1.4,1.7,1.6c0.7,0.2,1.3,0.2,2,0
	c0.2,0,0.4-0.1,0.5-0.2C8,58.3,8,58.1,8,58c-0.1-0.2-0.1-0.3-0.2-0.5c0-0.1-0.2-0.2-0.3-0.2l0,0l-0.6,0.2c-0.4,0.1-0.8,0.1-1.2,0
	c-0.5-0.2-0.8-0.5-0.9-1H6c0.1,0,0.2-0.1,0.2-0.2v-0.5c0-0.1-0.1-0.2-0.2-0.2l0,0l0,0H4.6v-0.3H6c0.1,0,0.2-0.1,0.2-0.2v-0.4
	c0-0.1-0.1-0.2-0.2-0.2l0,0H4.8c0.1-0.4,0.4-0.6,0.8-0.8s0.9-0.2,1.3-0.1c0.2,0,0.4,0.1,0.6,0.2c0.1,0,0.3,0,0.3-0.1l0,0
	C7.9,53.5,8,53.4,8,53.2c0.1-0.1,0-0.3-0.1-0.4l0,0l-0.1-0.1c-0.6-0.3-1.3-0.3-1.9-0.2C5.4,52.6,5,52.8,4.6,53
	c-0.5,0.4-0.8,0.9-1,1.4v0.1H2.9c-0.1,0-0.2,0.1-0.2,0.2v0.4c0,0.1,0.1,0.2,0.2,0.2h0.5v0.3L2.9,55.6L2.9,55.6z"/>
<path class="st2" d="M26.8,7h1v0.8h0.7v0.8h-0.7v1.5c0,0.6,0.2,0.7,0.6,0.7h0.2v0.9c-0.1,0-0.3,0-0.4,0c-0.9,0-1.4-0.5-1.4-1.6V8.6
	h-0.4V7.8h0.4C26.8,7.8,26.8,7,26.8,7z M32.7,9.5v2.3h-1V9.3c0-0.4-0.3-0.7-0.6-0.7l0,0c-0.4,0-0.7,0.3-0.7,0.7c0,0,0,0,0,0.1v2.4
	h-1V6.3h1v2c0.2-0.3,0.6-0.5,1-0.6C32.5,7.7,32.7,8.6,32.7,9.5L32.7,9.5z M33.6,10.1V7.8h1v2.4c0,0.4,0.3,0.7,0.6,0.7l0,0
	c0.4,0,0.7-0.3,0.7-0.7c0,0,0,0,0-0.1V7.8h1v3.9H36v-0.5c-0.2,0.3-0.6,0.5-1,0.6C33.8,11.8,33.6,10.9,33.6,10.1L33.6,10.1z
	 M37.9,7.8h1v3.9h-1V7.8z M38.4,6.3c0.3,0,0.6,0.3,0.6,0.6c0,0.3-0.3,0.6-0.6,0.6s-0.6-0.3-0.6-0.6l0,0C37.8,6.6,38,6.3,38.4,6.3
	L38.4,6.3L38.4,6.3z M39.6,11.1l0.6-0.5c0.2,0.3,0.5,0.4,0.9,0.4c0.3,0,0.5-0.1,0.5-0.4c0-0.6-1.8-0.4-1.8-1.8
	c0-0.7,0.6-1.2,1.4-1.2c0.5,0,1.1,0.2,1.3,0.7l-0.7,0.5c-0.2-0.2-0.4-0.4-0.7-0.4c-0.2,0-0.4,0.1-0.4,0.3c0,0.6,1.9,0.3,1.9,1.7
	c0,0.8-0.7,1.2-1.5,1.2C40.5,11.8,39.9,11.6,39.6,11.1z M45.9,9.2l-0.7,2.5H44l-1.1-3.9H44l0.7,2.8l0.8-2.8h1l0.7,2.8l0.7-2.8H49
	l-1.2,3.9h-1.1L45.9,9.2z M49.5,7.8h1v3.9h-1V7.8z M50,6.3c0.3,0,0.6,0.3,0.6,0.6c0,0.3-0.3,0.6-0.6,0.6s-0.6-0.3-0.6-0.6l0,0
	C49.4,6.6,49.6,6.3,50,6.3L50,6.3L50,6.3L50,6.3L50,6.3z M54.9,9.5v2.3h-1V9.3c0-0.4-0.2-0.7-0.6-0.7l0,0l0,0c0,0,0,0-0.1,0
	c-0.4,0-0.7,0.3-0.7,0.7c0,0,0,0,0,0.1v2.3h-1V7.8h1v0.5c0.2-0.3,0.6-0.5,1-0.6C54.7,7.7,54.9,8.6,54.9,9.5L54.9,9.5z M55.8,6.3h1
	v3.1l1.3-1.7h1.2l-1.4,1.8l1.5,2.1h-1.2l-1.3-2v2h-1L55.8,6.3z M62.4,9.3c0-0.4-0.4-0.8-0.8-0.8l0,0l0,0c-0.5,0-0.8,0.3-0.8,0.8
	H62.4z M61.6,7.7c1,0,1.9,0.7,1.9,1.8c0,0.1,0,0.2,0,0.3V10h-2.8c0.1,0.5,0.5,0.9,1,0.9c0.4,0,0.8-0.2,1-0.5l0.7,0.5
	c-0.4,0.6-1,0.9-1.7,0.9c-1.1,0-2-0.8-2.1-1.9l0,0l0,0V9.8c-0.1-1.1,0.7-2,1.8-2.1l0,0l0,0C61.5,7.7,61.6,7.7,61.6,7.7z M64.2,6.3h1
	v5.4h-1V6.3z M29.2,15.8l-1,2.9h-0.6l-1.2-3.6H27l1,3l1-3h0.5l1,3l1-3h0.6l-1.2,3.6h-0.6L29.2,15.8z M33.8,18.3
	c0.4,0.1,0.8-0.3,0.9-0.7c0,0,0,0,0-0.1c0-0.5-0.4-0.7-0.9-0.7c-0.4-0.1-0.8,0.3-0.9,0.7l0,0c0,0,0,0,0,0.1
	C32.9,18,33.3,18.3,33.8,18.3L33.8,18.3L33.8,18.3L33.8,18.3z M33.7,16.4c0.4,0,0.7,0.1,1,0.3v-0.4c0-0.4-0.3-0.8-0.8-0.8h-0.1
	c-0.4,0-0.7,0.1-1.1,0.3l-0.2-0.4c0.4-0.3,0.9-0.4,1.3-0.4c0.7-0.1,1.3,0.4,1.4,1c0,0.1,0,0.2,0,0.3v2.4h-0.5l-0.1-0.3
	c-0.3,0.3-0.6,0.4-1,0.4c-0.7,0.1-1.3-0.3-1.4-1c-0.1-0.7,0.3-1.3,1-1.4C33.5,16.3,33.6,16.3,33.7,16.4L33.7,16.4z M37.5,18.3
	c0.4,0.1,0.8-0.3,0.9-0.7c0,0,0,0,0-0.1c0-0.5-0.4-0.7-0.9-0.7c-0.4-0.1-0.8,0.3-0.9,0.7l0,0c0,0,0,0,0,0.1
	C36.6,18,37,18.3,37.5,18.3L37.5,18.3L37.5,18.3L37.5,18.3L37.5,18.3z M37.4,16.4c0.4,0,0.7,0.1,1,0.3v-0.4c0-0.4-0.3-0.8-0.7-0.8
	h-0.1c-0.4,0-0.7,0.1-1.1,0.3l-0.2-0.4c0.4-0.3,0.9-0.4,1.3-0.4c0.7-0.1,1.3,0.4,1.4,1c0,0.1,0,0.2,0,0.3v2.4h-0.5l-0.1-0.3
	c-0.3,0.3-0.6,0.4-1,0.4c-0.7,0.1-1.3-0.3-1.4-1c-0.1-0.7,0.3-1.3,1-1.4C37.2,16.3,37.3,16.3,37.4,16.4L37.4,16.4z M41.5,15.5
	c-0.8,0-1.1,0.7-1.1,1.4v1.7h-0.5V15h0.5v0.6c0.2-0.4,0.6-0.7,1.1-0.6V15.5L41.5,15.5z M44,18.3c0.7,0,1.3-0.6,1.2-1.3l0,0v-0.1
	c0.1-0.7-0.4-1.3-1.1-1.4l0,0H44c-0.7,0-1.3,0.6-1.2,1.3v0.1C42.7,17.6,43.2,18.2,44,18.3L44,18.3C43.9,18.3,43.9,18.3,44,18.3
	L44,18.3z M42.2,13.6h0.5v2C43,15.2,43.5,15,44,15c1,0,1.7,0.8,1.7,1.8c0,0.1,0,0.1,0,0.2c0,1-0.7,1.8-1.7,1.8h-0.1
	c-0.5,0-1-0.2-1.3-0.7v0.6h-0.5L42.2,13.6z M48.2,18.2c0.8,0,1.4-0.5,1.5-1.3c0-0.8-0.5-1.4-1.3-1.5s-1.4,0.5-1.5,1.3l0,0l0,0v0.1
	C46.8,17.6,47.4,18.2,48.2,18.2L48.2,18.2L48.2,18.2L48.2,18.2L48.2,18.2z M48.2,15c1,0,1.9,0.8,1.9,1.9s-0.8,1.9-1.9,1.9
	c-1,0-1.9-0.8-1.9-1.9l0,0C46.3,15.8,47.1,15,48.2,15C48.1,15,48.1,15,48.2,15L48.2,15L48.2,15z M52.5,15.5c-0.8,0-1.1,0.6-1.1,1.4
	v1.7h-0.5V15h0.5v0.6c0.2-0.4,0.6-0.7,1-0.6L52.5,15.5z M54.8,15.5c-0.7,0-1.3,0.6-1.2,1.3l0,0l0,0c0,0,0,0,0,0.1
	c-0.1,0.7,0.4,1.3,1.1,1.4c0.7,0.1,1.3-0.4,1.4-1.1c0-0.1,0-0.2,0-0.3c0.1-0.7-0.4-1.3-1.1-1.4C54.9,15.5,54.8,15.5,54.8,15.5
	L54.8,15.5z M53.6,19.3c0.3,0.2,0.7,0.3,1.1,0.3c0.7,0,1.3-0.3,1.3-1.1v-0.4c-0.3,0.4-0.7,0.7-1.2,0.7c-1,0-1.7-0.8-1.7-1.8l0,0l0,0
	v-0.1c-0.1-1,0.7-1.8,1.6-1.9l0,0l0,0c0,0,0,0,0.1,0c0.5,0,1,0.2,1.3,0.7v-0.6h0.5v3.1c0.1,0.9-0.5,1.7-1.4,1.8c-0.1,0-0.3,0-0.4,0
	c-0.5,0-0.9-0.1-1.3-0.4L53.6,19.3z M10.8,11.9L1.7,6.6l9.1-5.2l9.1,5.2L10.8,11.9z M10.2,17.6H1.1v-10l9.1,5.2L10.2,17.6z
	 M20.5,17.6h-9.1v-4.8l9.1-5.2V17.6z M10.8,0L0,6.2v12.5h21.6V6.2L10.8,0z"/>
<path class="st3" d="M20.5,7.6l-9.1,5.2v4.8h9.1V7.6z"/>
<path class="st4" d="M1.1,17.6h9.1v-4.8L1.1,7.6V17.6z"/>
<path class="st5" d="M1.7,6.6l9.1,5.2l9.1-5.2l-9.1-5.2L1.7,6.6z"/>
<path class="st5" d="M114.9,50.9h1.3c0.2,0,0.5,0,0.7,0.1s0.4,0.2,0.5,0.3c0.2,0.2,0.3,0.4,0.3,0.6c0.1,0.3,0.1,0.5,0.1,0.8
	s0,0.5-0.1,0.7s-0.2,0.4-0.4,0.6c-0.1,0.1-0.3,0.2-0.5,0.3s-0.4,0.1-0.6,0.1h-1.3V50.9z M115.6,51.4v2.3h0.5c0.1,0,0.3,0,0.4,0
	s0.2-0.1,0.3-0.2c0.1-0.1,0.2-0.2,0.2-0.3c0.1-0.2,0.1-0.4,0.1-0.6c0-0.2,0-0.4-0.1-0.6c0-0.1-0.1-0.2-0.2-0.3s-0.2-0.1-0.3-0.2
	c-0.2,0-0.4,0-0.6,0L115.6,51.4z"/>
<path class="st5" d="M114.8,50.8v3.7h1.4c0.2,0,0.4,0,0.7-0.1c0.2-0.1,0.4-0.2,0.5-0.3c0.2-0.2,0.3-0.4,0.4-0.7s0.1-0.5,0.1-0.8
	s0-0.6-0.1-0.9c-0.1-0.2-0.2-0.4-0.4-0.6c-0.2-0.2-0.4-0.3-0.6-0.3c-0.2-0.1-0.5-0.1-0.7-0.1L114.8,50.8L114.8,50.8z M116.2,50.9
	c0.2,0,0.4,0,0.6,0.1s0.4,0.2,0.5,0.3c0.1,0.2,0.2,0.3,0.3,0.5c0.1,0.3,0.1,0.5,0.1,0.8c0,0.2,0,0.5-0.1,0.7s-0.2,0.4-0.3,0.6
	c-0.1,0.1-0.3,0.2-0.5,0.3s-0.4,0.1-0.6,0.1H115V51L116.2,50.9L116.2,50.9z"/>
<path class="st5" d="M115.5,51.3v2.5h0.6c0.1,0,0.3,0,0.4,0s0.2-0.1,0.3-0.2c0.1-0.1,0.2-0.2,0.2-0.4c0.1-0.2,0.1-0.4,0.1-0.7
	c0-0.2,0-0.4-0.1-0.7c0-0.1-0.1-0.3-0.2-0.4c-0.1-0.1-0.2-0.2-0.4-0.2c-0.2,0-0.4,0-0.6,0L115.5,51.3L115.5,51.3z M115.9,51.5
	c0.2,0,0.4,0,0.6,0c0.1,0,0.2,0.1,0.3,0.1c0.1,0.1,0.1,0.2,0.2,0.3c0.1,0.2,0.1,0.4,0.1,0.6c0,0.2,0,0.4-0.1,0.6
	c0,0.1-0.1,0.2-0.2,0.3s-0.2,0.1-0.2,0.1c-0.1,0-0.3,0-0.4,0h-0.4L115.9,51.5C115.8,51.5,115.9,51.5,115.9,51.5z M118.6,54.3v-3.5
	h2.6v0.6h-1.9v0.8h1.8v0.6h-1.8v0.9h1.9v0.6L118.6,54.3z"/>
<path class="st5" d="M118.5,50.8v3.7h2.8v-0.8h-1.9v-0.8h1.8v-0.8h-1.8v-0.6h1.9v-0.8L118.5,50.8z M121.1,50.9v0.4h-1.9v1h1.8v0.4
	h-1.8v1.1h1.9v0.4h-2.5V51L121.1,50.9z M125.2,54.3h-0.8l-0.3-0.8h-1.4l-0.3,0.8h-0.8l1.4-3.5h0.8L125.2,54.3z M123.9,53l-0.5-1.3
	L123,53H123.9z"/>
<path class="st5" d="M123,50.8l-1.4,3.7h1l0.3-0.8h1.3l0.3,0.8h1l-1.5-3.7H123z M123.8,50.9l1.3,3.3h-0.6l-0.3-0.8h-1.5l-0.3,0.8
	h-0.5l1.3-3.3H123.8z"/>
<path class="st5" d="M122.8,53h1.2l-0.6-1.7L122.8,53z M123.4,51.9l0.3,0.9H123L123.4,51.9z M125.8,54.3v-3.4h0.7v2.9h1.8v0.6
	L125.8,54.3z"/>
<path class="st5" d="M125.7,50.8v3.7h2.7v-0.8h-1.8v-2.9H125.7z M126.4,51v2.9h1.8v0.4h-2.3V51H126.4z"/>
<path class="st6" d="M328.1,85.7H319c-0.2,0-0.3,0.1-0.3,0.3l0,0l0,0v1h9.7v-1C328.3,85.8,328.2,85.7,328.1,85.7L328.1,85.7
	L328.1,85.7L328.1,85.7z M326.7,98.6v0.9l1.2-1.2H327C326.8,98.4,326.7,98.5,326.7,98.6L326.7,98.6L326.7,98.6z"/>
<path d="M328.1,85H319c-0.5,0-0.9,0.4-0.9,0.9l0,0l0,0c0,0,0,0,0,0.1v13.7c0,0.5,0.4,0.9,0.9,0.9l0,0h7.5c0.1,0,0.2,0,0.2-0.1
	l2.3-2.3c0.1-0.1,0.1-0.2,0.1-0.2V86C329,85.5,328.6,85.1,328.1,85L328.1,85L328.1,85L328.1,85z M326.7,99.5v-0.9
	c0-0.2,0.1-0.3,0.3-0.3l0,0h0.9L326.7,99.5L326.7,99.5z M328.4,97.7H327c-0.5,0-0.9,0.4-0.9,0.9l0,0l0,0v1.4H319
	c-0.2,0-0.3-0.1-0.3-0.3l0,0l0,0v-12h9.7L328.4,97.7L328.4,97.7z M328.4,87h-9.7v-1c0-0.2,0.1-0.3,0.3-0.3l0,0h9.1
	c0.2,0,0.3,0.1,0.3,0.3L328.4,87L328.4,87z"/>
<path class="st6" d="M318.6,87.7v12c0,0.2,0.1,0.3,0.3,0.3l0,0h7.1v-1.3c0-0.5,0.4-0.9,0.9-0.9l0,0h1.3V87.7H318.6z M320,92h4.3
	c0.2,0,0.3,0.2,0.3,0.4c0,0.1-0.1,0.2-0.3,0.3H320c-0.2,0-0.3-0.2-0.3-0.4C319.8,92.1,319.9,92,320,92z M319.7,94.9
	c0-0.2,0.1-0.3,0.3-0.3h4.3c0.2,0,0.3,0.2,0.3,0.4c0,0.1-0.1,0.2-0.3,0.3H320C319.8,95.3,319.7,95.1,319.7,94.9L319.7,94.9
	L319.7,94.9z M326.7,97.1h-3.1c-0.2,0-0.3-0.2-0.3-0.4c0-0.1,0.1-0.2,0.3-0.3h3.1c0.2,0,0.3,0.2,0.3,0.4
	C326.9,97,326.8,97.1,326.7,97.1z M326.7,95.3h-1.1c-0.2,0-0.3-0.1-0.3-0.3l0,0l0,0l0,0c0-0.2,0.1-0.3,0.3-0.3h1.1
	c0.2,0,0.3,0.1,0.3,0.3S326.9,95.3,326.7,95.3L326.7,95.3L326.7,95.3z M326.7,92.7h-1.1c-0.2,0-0.3-0.2-0.3-0.4
	c0-0.1,0.1-0.2,0.3-0.3h1.1c0.2,0,0.3,0.2,0.3,0.4C327,92.5,326.8,92.6,326.7,92.7L326.7,92.7z"/>
<path d="M320,92.7h4.3c0.2,0,0.4-0.1,0.4-0.3c0-0.2-0.1-0.4-0.3-0.4h-0.1H320c-0.2,0-0.3,0.2-0.3,0.4
	C319.8,92.5,319.9,92.6,320,92.7z M325.6,92.7h1.1c0.2,0,0.3-0.2,0.3-0.4c0-0.1-0.1-0.2-0.3-0.3h-1.1c-0.2,0-0.3,0.1-0.3,0.3l0,0
	C325.3,92.5,325.4,92.7,325.6,92.7L325.6,92.7L325.6,92.7L325.6,92.7L325.6,92.7z M320,95.3h4.3c0.2,0,0.3-0.1,0.3-0.3
	s-0.1-0.3-0.3-0.3H320c-0.2,0-0.3,0.1-0.3,0.3S319.8,95.3,320,95.3z M325.6,95.3h1.1c0.2,0,0.3-0.1,0.3-0.3l0,0
	c0-0.2-0.1-0.3-0.3-0.3h-1.1c-0.2,0-0.3,0.1-0.3,0.3l0,0l0,0l0,0C325.3,95.1,325.4,95.3,325.6,95.3L325.6,95.3L325.6,95.3
	L325.6,95.3L325.6,95.3z M326.7,96.5h-3.1c-0.2,0-0.3,0.1-0.3,0.3s0.1,0.3,0.3,0.3h3.1c0.2,0,0.3-0.1,0.3-0.3l0,0
	C327,96.6,326.9,96.5,326.7,96.5z"/>
<path d="M320.5,89.9h-0.4v0.4h-0.4v-1.2h0.9v0.3h-0.5v0.2h0.4V89.9z M321.4,90.4l-0.1-0.2H321l-0.1,0.2h-0.3l0.4-1.2h0.4l0.4,1.2
	H321.4L321.4,90.4z M321,89.9h0.2l-0.1-0.3L321,89.9z M322.5,89.9h0.3c0,0.3-0.2,0.5-0.5,0.5l0,0c-0.2,0-0.3-0.1-0.4-0.2
	s-0.2-0.3-0.1-0.4c0-0.2,0-0.3,0.1-0.5c0.2-0.2,0.5-0.2,0.8,0c0.1,0.1,0.1,0.2,0.1,0.3h-0.4c0-0.1,0-0.1,0-0.2l-0.1-0.1
	c-0.1,0-0.2,0.1-0.2,0.3c0,0.1,0,0.2,0,0.3l0.1,0.1C322.4,90,322.5,90,322.5,89.9L322.5,89.9z M323.5,89.4v0.9h-0.4v-0.9h-0.2v-0.3
	h0.9v0.3H323.5z M324.8,89.1v0.8c0,0.1,0,0.3-0.1,0.3c-0.1,0.1-0.2,0.1-0.4,0.1c-0.1,0-0.3,0-0.4-0.1s-0.2-0.2-0.1-0.3v-0.8h0.4v0.8
	V90h0.1h0.1c0,0,0,0,0-0.1v-0.1v-0.7L324.8,89.1z M326,89.1v0.8c0,0.1,0,0.3-0.1,0.3c-0.1,0.1-0.2,0.1-0.4,0.1c-0.1,0-0.3,0-0.4-0.1
	S325,90.1,325,90v-0.8h0.4V90v0.1h0.1h0.1c0,0,0,0,0-0.1v-0.1v-0.7L326,89.1z M327.2,90.3h-0.4l-0.2-0.5h-0.1v0.5h-0.4v-1.2h0.6
	c0.1,0,0.2,0,0.3,0.1c0.1,0.1,0.1,0.2,0.1,0.3c0,0.1,0,0.1,0,0.2s-0.1,0.1-0.2,0.1L327.2,90.3L327.2,90.3z M326.5,89.6h0.2h0.1v-0.1
	c0-0.1,0-0.1-0.1-0.1h-0.2V89.6z"/>
<path class="st7" d="M440.1,5.7v0.4c0,0.4-0.3,0.7-0.7,0.7l0,0h-0.2l-0.7,5.1c-0.1,0.7-0.7,1.2-1.3,1.1H427c-0.7,0-1.2-0.5-1.3-1.1
	L425,6.8h-0.2c-0.4,0-0.7-0.3-0.7-0.7l0,0l0,0V5.7c0-0.4,0.3-0.7,0.7-0.7l0,0h1.9l3-4.1c0.3-0.4,0.9-0.5,1.2-0.2s0.5,0.9,0.2,1.3
	l0,0l-2.2,3h6.5l-2.2-3c-0.3-0.4-0.2-0.9,0.2-1.2l0,0c0.4-0.3,0.9-0.2,1.2,0.2l0,0l3,4.1h1.9C439.8,5.1,440.1,5.4,440.1,5.7z
	 M432.7,10.6V7.5c0-0.4-0.3-0.7-0.7-0.7c-0.4,0-0.7,0.3-0.7,0.7v3.1c0,0.4,0.3,0.7,0.7,0.7C432.4,11.3,432.7,11,432.7,10.6
	L432.7,10.6z M435.8,10.6V7.5c0-0.4-0.3-0.7-0.7-0.7c-0.4,0-0.7,0.3-0.7,0.7v3.1c0,0.4,0.3,0.7,0.7,0.7S435.8,11,435.8,10.6
	L435.8,10.6z M429.6,10.6V7.5c0-0.4-0.3-0.7-0.7-0.7c-0.4,0-0.7,0.3-0.7,0.7v3.1c0,0.4,0.3,0.7,0.7,0.7
	C429.3,11.3,429.6,11,429.6,10.6L429.6,10.6z"/>
<path class="st5" d="M16.3,132.9v0.4c0,0.4-0.3,0.7-0.7,0.7h-0.2l-0.7,5.1c-0.1,0.7-0.7,1.1-1.3,1.1H3.2c-0.7,0-1.2-0.5-1.3-1.1
	L1.1,134H0.9c-0.4,0-0.7-0.3-0.7-0.7v-0.4c0-0.4,0.3-0.7,0.7-0.7h1.9l3-4.1c0.3-0.3,0.9-0.4,1.3,0c0.3,0.3,0.3,0.7,0.2,1l-2.2,3h6.6
	l-2.2-3c-0.2-0.4,0-1,0.4-1.2c0.3-0.2,0.7-0.1,1,0.2l0,0l3,4.1h1.9C16,132.2,16.3,132.5,16.3,132.9z M8.9,137.8v-3.1
	c0-0.4-0.3-0.7-0.7-0.7c-0.4,0-0.7,0.3-0.7,0.7v3.1c0,0.4,0.3,0.7,0.7,0.7C8.7,138.4,8.9,138.1,8.9,137.8z M12.1,137.8v-3.1
	c0-0.4-0.3-0.7-0.7-0.7s-0.7,0.3-0.7,0.7v3.1c0,0.4,0.3,0.7,0.7,0.7S12.1,138.1,12.1,137.8z M5.8,137.8v-3.1c0-0.4-0.3-0.7-0.7-0.7
	s-0.7,0.3-0.7,0.7l0,0v3.1c0,0.4,0.3,0.7,0.7,0.7S5.8,138.1,5.8,137.8z"/>
<path class="st8" d="M119.2,1.5c-0.9-1-2.6-1.5-4.7-1.5h-6.2c-0.4,0-0.8,0.3-0.9,0.8l-2.6,16.4c0,0.3,0.1,0.6,0.4,0.6h0.1h3.8l1-6.1
	v0.2c0.1-0.4,0.4-0.7,0.9-0.8h1.8c3.6,0,6.4-1.4,7.2-5.7c0-0.1,0-0.2,0.1-0.4l0,0C120.4,3.8,120.1,2.5,119.2,1.5"/>
<path class="st8" d="M111.6,4.5c0.1-0.1,0.2-0.1,0.3-0.1h4.9c0.5,0,1.1,0,1.6,0.1l0.4,0.1c0.2,0,0.4,0.1,0.6,0.2s0.5,0.2,0.7,0.3
	c0.3-1.3,0-2.6-0.8-3.6c-0.9-1-2.6-1.5-4.7-1.5h-6.2c-0.4,0-0.8,0.3-0.9,0.8l-2.6,16.4c0,0.3,0.1,0.6,0.4,0.6h0.1h3.8l2-12.7
	C111.2,4.8,111.3,4.6,111.6,4.5L111.6,4.5z"/>
<path class="st9" d="M120,5.5c-0.8,4.2-3.6,5.7-7.2,5.7H111c-0.4,0-0.8,0.3-0.9,0.8l-1.2,7.6c0,0.3,0.1,0.5,0.4,0.5c0,0,0,0,0.1,0
	h3.2c0.4,0,0.7-0.3,0.8-0.7v-0.2l0.6-3.9v-0.2c0.1-0.4,0.4-0.7,0.8-0.7h0.5c3.1,0,5.6-1.3,6.3-4.9c0.4-1.3,0.1-2.7-0.7-3.7
	c-0.2-0.3-0.5-0.5-0.9-0.7C120,5.2,120,5.3,120,5.5L120,5.5z"/>
<path class="st10" d="M119.2,4.8l-0.4-0.1l-0.4-0.1c-0.5-0.1-1.1-0.1-1.6-0.1h-4.9c-0.4,0-0.7,0.3-0.8,0.7l-1,6.6V12
	c0.1-0.4,0.4-0.7,0.9-0.8h1.8c3.6,0,6.4-1.4,7.2-5.7c0-0.1,0-0.2,0.1-0.4c-0.2-0.1-0.4-0.2-0.7-0.3L119.2,4.8"/>
<path class="st5" d="M227.9,11.7V10c0-0.4-0.1-0.5-0.4-0.5c-0.1,0-0.2,0-0.4,0.1l-0.3,0.2l0,0v1.9H226V9c0,0,0-0.1,0.1-0.1l0,0h0.7
	v0.2l0,0c0.1-0.1,0.2-0.1,0.3-0.2c0.2-0.1,0.4-0.1,0.5-0.1c0.6,0,0.9,0.4,0.9,1v1.8L227.9,11.7 M229.2,11.7L229.2,11.7V7.5l0,0
	c0.2,0.1,0.4,0.2,0.6,0.4c0.1,0.1,0.2,0.3,0.2,0.4v3.3L229.2,11.7"/>
<path class="st5" d="M218.3,8.2c-0.1,0-0.1,0-0.1-0.1l0,0V7.8c0-0.1,0.1-0.1,0.1-0.1l0,0h2.4c0.1,0,0.1,0.1,0.1,0.1l0,0l0,0v0.3
	c0,0.1,0,0.1-0.1,0.1L218.3,8.2 M220.5,7.4L220.5,7.4L220.5,7.4c0-0.3,0.3-1.1,0.3-1.1s0-0.1-0.1-0.1l-0.1-0.1h-0.1l-0.1,0.3H220
	l0,0c0.1-0.2,0.1-0.4,0.2-0.7c0-0.1,0.1-0.1,0.2-0.1h0.1l0.3,0.1l0.3,0.1c0.2,0.1,0.3,0.2,0.2,0.4c0,0,0,0,0,0.1
	c-0.1,0.3-0.2,0.6-0.3,0.8c0,0.1,0,0.1-0.1,0.1s0,0.1-0.1,0.1L220.5,7.4L220.5,7.4z M219.4,7.4C219.3,7.4,219.3,7.3,219.4,7.4
	l-0.1-1.8c0,0,0,0,0.1,0h0.4c0,0,0,0,0,0.1v1.6c0,0,0,0.1-0.1,0.1H219.4z M218.2,7.4L218.2,7.4c-0.1-0.1-0.1-0.1-0.1-0.2
	c-0.1-0.3-0.2-0.7-0.3-0.8c-0.1-0.2,0-0.4,0.2-0.5l0,0l0.3-0.1l0.3-0.1h0.1c0.1,0,0.1,0,0.2,0.1c0.1,0.2,0.2,0.4,0.2,0.7l0,0
	c0,0,0,0-0.1,0h-0.3c0,0-0.1-0.2-0.1-0.3c0,0,0,0-0.1,0l0,0l-0.1,0.1l-0.1,0.1c0,0,0.3,0.8,0.4,1v0.1c0,0,0,0-0.1,0
	C218.5,7.4,218.4,7.4,218.2,7.4L218.2,7.4z M219.5,5.3L219.5,5.3c-0.2-0.1-0.3-0.2-0.4-0.3V4.9c0.1-0.1,0.2-0.2,0.3-0.3h0.1
	c0.1,0.1,0.2,0.2,0.3,0.3c0,0,0,0,0,0.1l0,0C219.8,5.1,219.7,5.2,219.5,5.3C219.6,5.3,219.6,5.3,219.5,5.3L219.5,5.3z"/>
<path class="st11" d="M323.1,127.9h10.2c2.8,0,5.1,2.3,5.1,5.1v10.2c0,2.8-2.3,5.1-5.1,5.1h-10.2c-2.8,0-5.1-2.3-5.1-5.1V133
	C318,130.1,320.3,127.9,323.1,127.9z"/>
<path class="st12" d="M328.8,142.5h1.9v-3.2c0.4,0.6,1.1,1,1.9,0.9c1.7,0,2.6-1.4,2.6-3.1c0-1.4-0.9-2.9-2.4-2.9
	c-0.9-0.1-1.7,0.4-2,1.2v-1.2h-1.9v8.3H328.8z M333.2,137.2c0,0.9-0.4,1.6-1.2,1.6c-0.7-0.1-1.3-0.7-1.2-1.5c0-0.9,0.5-1.5,1.2-1.5
	C332.8,135.8,333.2,136.5,333.2,137.2L333.2,137.2z M327.6,134.4h-1.8v1l0,0c-0.4-0.7-1.1-1.2-2-1.2c-1.8,0-2.6,1.3-2.6,3
	c-0.2,1.4,0.8,2.7,2.3,2.9c0.1,0,0.2,0,0.3,0c0.8,0,1.5-0.3,1.9-1l0,0v0.3c0,1.1-0.6,1.7-1.8,1.7c-0.7,0-1.3-0.2-1.9-0.5l-0.1,1.6
	c0.7,0.2,1.5,0.4,2.2,0.4c2.3,0,3.5-0.8,3.5-3.1V134.4z M323.2,137.2c0-0.8,0.4-1.4,1.1-1.4s1.3,0.5,1.3,1.2v0.1
	c0.1,0.7-0.5,1.4-1.2,1.5c0,0,0,0-0.1,0C323.8,138.6,323.2,138.1,323.2,137.2L323.2,137.2z"/>
<path class="st13" d="M429.1,127.9h10.2c2.8,0,5.1,2.3,5.1,5.1v10.2c0,2.8-2.3,5.1-5.1,5.1h-10.2c-2.8,0-5.1-2.3-5.1-5.1V133
	C424,130.1,426.3,127.9,429.1,127.9z"/>
<path class="st5" d="M436.7,133.6c-0.8-0.1-1.6,0.1-2.3,0.4c-0.9,0.6-1.6,1.5-1.8,2.5c-0.1,0.3-0.1,0.5-0.2,0.8c0,0.2,0,0.4,0.1,0.6
	c0.1,0.2,0.3,0.4,0.5,0.6c0.2,0.2,0.5,0.3,0.8,0.4l0.3,0.1c0.2,0.1,0.4,0.1,0.5,0.2c0.1,0,0.2,0.1,0.2,0.1c0.1,0,0.1,0.1,0.2,0.2
	c0,0.1,0,0.1,0,0.2c0,0.1,0,0.1,0,0.2c0,0.2-0.2,0.3-0.4,0.4c-0.3,0.1-0.6,0.1-0.9,0.1h-5.3l-0.8,2.3h5.6c0.8,0,1.7-0.1,2.4-0.4
	c1.2-0.5,2-1.5,2.2-2.8c0.2-0.5,0.1-1-0.1-1.5c-0.3-0.4-0.8-0.7-1.3-0.8l-0.3-0.1l-0.4-0.1c-0.1,0-0.3-0.1-0.4-0.3
	c-0.1-0.1-0.1-0.3-0.1-0.4c0-0.2,0.2-0.3,0.3-0.4c0.2-0.1,0.4-0.1,0.6-0.1h3.3c0,0,0-0.1,0.1-0.1c0.6-0.8,1.3-1.5,2.1-2L436.7,133.6
	z"/>
<linearGradient id="SVGID_00000131354360230344947890000002280341460994077624_" gradientUnits="userSpaceOnUse" x1="540.0302" y1="-612.1544" x2="539.874" y2="-632.3106" gradientTransform="matrix(1 0 0 -1 0 -612)">
	<stop  offset="0" style="stop-color:#FFEFAF"/>
	<stop  offset="1" style="stop-color:#FFCC00"/>
</linearGradient>
<path style="fill:url(#SVGID_00000131354360230344947890000002280341460994077624_);" d="M545.9,20.1H534c-2.2,0-4-1.8-4-4V4.2
	c0-2.2,1.8-4,4-4h11.9c2.2,0,4,1.8,4,4v11.9C550,18.3,548.2,20.1,545.9,20.1z"/>
<path class="st15" d="M536.8,9.8c-0.1,0.1-0.2,0.3-0.3,0.4c0,0.1-0.1,0.2,0.1,0.2c0.3,0,1.3,0,1.3,0s0.2-0.3,0.4-0.5
	c0.2-0.3,0-1-0.8-1s-3.4,0-3.4,0l-0.6,0.8c0,0,3.1,0,3.2,0C536.9,9.6,536.9,9.7,536.8,9.8z M535.8,10.6c-0.3,0-0.2-0.1-0.1-0.2
	c0.1-0.1,0.2-0.3,0.3-0.4c0.1-0.1,0.1-0.2-0.1-0.2c-0.2,0-1.5,0-1.5,0l-1.2,1.6c0,0,2.1,0,2.9,0c1,0,1.5-0.7,1.7-0.9
	C537.8,10.6,536.1,10.6,535.8,10.6z M537.7,11.5h1.7l0.6-0.9h-1.7L537.7,11.5z M542.1,8.8l-0.7,0.9h-0.8l0.7-0.9h-1.7l-1.1,1.5h4.2
	l1.1-1.5H542.1z M540.2,11.5h1.7l0.6-0.9h-1.7L540.2,11.5z M530.8,10.9v0.2h2.4l0.1-0.2H530.8z M533.6,10.6h-2.8v0.2h2.6L533.6,10.6
	z M530.8,11.5h2.1l0.1-0.2h-2.3v0.2H530.8z M546.9,11.1h2.5v-0.2H547L546.9,11.1z M546.6,11.5h2.8v-0.2h-2.6L546.6,11.5z
	 M547.3,10.6l-0.1,0.2h2.2v-0.2H547.3z M545,10.4l1.1-1.5h-1.8l-1.1,1.5H545z M543.1,10.6c0,0-0.1,0.2-0.2,0.3
	c-0.2,0.3,0,0.6,0.7,0.6c0.8,0,2.7,0,2.7,0l0.6-0.9L543.1,10.6L543.1,10.6z"/>
<path class="st16" d="M552,42.4h-24c-2.2,0-4,1.7-4,3.8v15.2c0,2.1,1.8,3.8,4,3.8h24c2.2,0,4-1.7,4-3.8V46.2
	C556,44.1,554.2,42.4,552,42.4z"/>
<path class="st17" d="M536.2,58.8H534v-10h2.2V58.8z M536.6,53.8c2-0.9,3.3-2.8,3.3-5h2.4c0,2.1-0.9,4-2.5,5.4l3.2,4.5h-3
	L536.6,53.8z"/>
<path class="st17" d="M543,57.4c0,0.8,0.7,1.4,1.5,1.4s1.5-0.6,1.5-1.4c0-0.8-0.7-1.4-1.5-1.4C543.6,55.9,543,56.6,543,57.4z"/>
<g id="achteraf_betalen_icoontje_1_">
	<g>
		<g>
			<g>
				<g>
					<defs>
						<rect id="SVGID_00000047040207791406740000000000065295047678499750_" x="530.8" y="84" width="17.3" height="17.3"/>
					</defs>
					<clipPath id="SVGID_00000019643969551379172230000005152277919558756748_">
						<use xlink:href="#SVGID_00000047040207791406740000000000065295047678499750_"  style="overflow:visible;"/>
					</clipPath>
					<g style="clip-path:url(#SVGID_00000019643969551379172230000005152277919558756748_);">
						<g>
							<g>
								<g>
									<defs>
										<rect id="SVGID_00000162335383141115280940000000906881879950968461_" x="530.8" y="84" width="17.3" height="17.3"/>
									</defs>
									<clipPath id="SVGID_00000117673763262927306540000011100877755495197337_">
										<use xlink:href="#SVGID_00000162335383141115280940000000906881879950968461_"  style="overflow:visible;"/>
									</clipPath>
									<path style="clip-path:url(#SVGID_00000117673763262927306540000011100877755495197337_);fill:#009FE3;" d="M540.3,85.7V84
										c3.6,0.2,8.1,3.5,7.8,9.1c-0.3,5.1-4.6,8-7.8,8.1v-1.6c2.1-0.3,3.8-1.3,4.9-3.1c0.8-1.3,1.2-2.7,1.1-4.2
										C546.2,89,543.9,86.2,540.3,85.7"/>
								</g>
							</g>
						</g>
						<g>
							<g>
								<g>
									<defs>
										<rect id="SVGID_00000181770157751638587330000004114677555884960661_" x="530.8" y="84" width="17.3" height="17.3"/>
									</defs>
									<clipPath id="SVGID_00000118355799574334018180000008515829245021707453_">
										<use xlink:href="#SVGID_00000181770157751638587330000004114677555884960661_"  style="overflow:visible;"/>
									</clipPath>
									<path style="clip-path:url(#SVGID_00000118355799574334018180000008515829245021707453_);fill:#009FE3;" d="M538.6,88.3
										h1.3c0,0.3,0,0.7,0,1c0,1.1,0,2.1,0,3.2c0,0.3,0.1,0.4,0.3,0.5c1.1,0.6,2.1,1.2,3.2,1.9c0.1,0.1,0.3,0.2,0.5,0.3
										c-0.2,0.3-0.4,0.7-0.6,1c-0.3-0.2-0.5-0.3-0.8-0.5c-1.2-0.7-2.3-1.4-3.5-2.1c-0.2-0.1-0.3-0.3-0.3-0.5c0-1.5,0-3.1,0-4.6
										C538.6,88.5,538.6,88.4,538.6,88.3"/>
								</g>
							</g>
						</g>
						<g>
							<g>
								<g>
									<defs>
										<rect id="SVGID_00000068644899988088355980000010882883756606051769_" x="530.8" y="84" width="17.3" height="17.3"/>
									</defs>
									<clipPath id="SVGID_00000016066635080708075830000006707902988309854602_">
										<use xlink:href="#SVGID_00000068644899988088355980000010882883756606051769_"  style="overflow:visible;"/>
									</clipPath>
									<path style="clip-path:url(#SVGID_00000016066635080708075830000006707902988309854602_);fill:#D8EEFD;" d="M535.2,87.1
										c-0.4-0.4-0.8-0.8-1.3-1.2c1.3-1.1,2.9-1.7,4.6-1.9v1.7c-0.6,0.2-1.2,0.3-1.7,0.6C536.2,86.4,535.7,86.8,535.2,87.1"/>
								</g>
							</g>
						</g>
						<g>
							<g>
								<g>
									<defs>
										<rect id="SVGID_00000103959223461737096980000009556611028915484340_" x="530.8" y="84" width="17.3" height="17.3"/>
									</defs>
									<clipPath id="SVGID_00000176732153055178043850000009725003466222694318_">
										<use xlink:href="#SVGID_00000103959223461737096980000009556611028915484340_"  style="overflow:visible;"/>
									</clipPath>
									<path style="clip-path:url(#SVGID_00000176732153055178043850000009725003466222694318_);fill:#D8EEFD;" d="M532.7,87.1
										c0.4,0.4,0.8,0.8,1.2,1.3c-0.7,1-1.2,2.1-1.4,3.3h-1.7C531,90,531.6,88.5,532.7,87.1"/>
								</g>
							</g>
						</g>
						<g>
							<g>
								<g>
									<defs>
										<rect id="SVGID_00000002381116427555863710000014677469185578475452_" x="530.8" y="84" width="17.3" height="17.3"/>
									</defs>
									<clipPath id="SVGID_00000171001124734970069180000014845016355077382536_">
										<use xlink:href="#SVGID_00000002381116427555863710000014677469185578475452_"  style="overflow:visible;"/>
									</clipPath>
									<path style="clip-path:url(#SVGID_00000171001124734970069180000014845016355077382536_);fill:#1A69A1;" d="M533.9,96.9
										c-0.4,0.4-0.8,0.8-1.3,1.2c-1.1-1.3-1.7-2.8-1.9-4.5h1.7C532.7,94.7,533.2,95.9,533.9,96.9"/>
								</g>
							</g>
						</g>
						<g>
							<g>
								<g>
									<defs>
										<rect id="SVGID_00000015315817069340517890000006628261629775737527_" x="530.8" y="84" width="17.3" height="17.3"/>
									</defs>
									<clipPath id="SVGID_00000138561474475398594130000014464586929794723729_">
										<use xlink:href="#SVGID_00000015315817069340517890000006628261629775737527_"  style="overflow:visible;"/>
									</clipPath>
									<path style="clip-path:url(#SVGID_00000138561474475398594130000014464586929794723729_);fill:#1A69A1;" d="M533.9,99.3
										c0.4-0.4,0.8-0.8,1.2-1.2c1,0.8,2.1,1.2,3.4,1.4v1.7C536.8,101.1,535.3,100.5,533.9,99.3"/>
								</g>
							</g>
						</g>
					</g>
				</g>
			</g>
		</g>
	</g>
</g>
<g>
	<g>
		<path class="st5" d="M106.5,44.2V64c0,0.9,0.8,1.7,1.7,1.7H120c9,0,12.8-5,12.8-11.7c0-6.6-3.9-11.6-12.8-11.6h-11.8
			C107.3,42.4,106.5,43.2,106.5,44.2z"/>
		<path class="st25" d="M114.4,47.3v14.6h6.4c5.8,0,8.3-3.3,8.3-7.9c0-4.4-2.5-7.9-8.3-7.9h-5.3C114.9,46.2,114.4,46.7,114.4,47.3z"
			/>
		<g>
			<g>
				<path d="M120.1,64.1h-10.3c-0.9,0-1.7-0.7-1.7-1.7V45.7c0-0.9,0.7-1.7,1.7-1.7h10.3c9.8,0,11.2,6.3,11.2,10
					C131.3,60.6,127.3,64.1,120.1,64.1z M109.8,44.6c-0.6,0-1.1,0.5-1.1,1.1v16.8c0,0.6,0.5,1.1,1.1,1.1h10.3
					c6.9,0,10.7-3.4,10.7-9.5c0-8.2-6.7-9.5-10.7-9.5L109.8,44.6L109.8,44.6z"/>
			</g>
		</g>
	</g>
	<g>
		<path class="st5" d="M116.7,52.1c0.2,0,0.4,0,0.6,0.1s0.4,0.2,0.5,0.3s0.3,0.3,0.3,0.5c0.1,0.2,0.1,0.5,0.1,0.8s0,0.5-0.1,0.7
			s-0.2,0.4-0.3,0.6c-0.1,0.2-0.3,0.3-0.5,0.4c-0.2,0.1-0.4,0.1-0.7,0.1h-1.5v-3.5L116.7,52.1L116.7,52.1z M116.6,54.9
			c0.1,0,0.2,0,0.3-0.1c0.1,0,0.2-0.1,0.3-0.2c0.1-0.1,0.1-0.2,0.2-0.3s0.1-0.3,0.1-0.5s0-0.3-0.1-0.5c0-0.1-0.1-0.3-0.2-0.4
			c-0.1-0.1-0.2-0.2-0.3-0.2c-0.1-0.1-0.3-0.1-0.5-0.1h-0.6v2.2L116.6,54.9L116.6,54.9z"/>
		<path class="st5" d="M121.4,52.1v0.6h-1.8v0.8h1.7v0.6h-1.7V55h1.9v0.6h-2.7v-3.5H121.4L121.4,52.1z"/>
		<path class="st5" d="M124,52.1l1.3,3.5h-0.8l-0.3-0.8h-1.3l-0.3,0.8h-0.8l1.3-3.5C123.2,52.1,124,52.1,124,52.1z M124,54.2
			l-0.4-1.3l0,0l-0.5,1.3H124z"/>
		<path class="st5" d="M126.6,52.1V55h1.7v0.6h-2.5v-3.5H126.6z"/>
	</g>
	<g>
		<circle cx="111.5" cy="53.8" r="1.6"/>
	</g>
	<path d="M112.8,61.9L112.8,61.9c-1.4,0-2.4-1.1-2.4-2.4v-1.9c0-0.7,0.5-1.2,1.2-1.2l0,0c0.7,0,1.2,0.5,1.2,1.2L112.8,61.9
		L112.8,61.9z"/>
</g>
<path id="rounded_white_background" class="st5" d="M318.9,42.3h29.3c0.6,0,1.1,0.5,1.1,1.1l0,0v19.5c0,0.6-0.5,1.1-1.1,1.1h-29.3
	c-0.6,0-1.1-0.5-1.1-1.1V43.3C317.8,42.7,318.3,42.3,318.9,42.3z"/>
<path id="Bancontact" class="st26" d="M320.6,61.1v-3.7h1.2c0.8,0,1.4,0.3,1.4,1c0,0.4-0.2,0.6-0.4,0.8c0.3,0.2,0.5,0.5,0.5,0.9
	c0,0.8-0.5,1.1-1.4,1.1L320.6,61.1z M321.3,58.9h0.5c0.3,0,0.5-0.2,0.5-0.5S322,58,321.7,58h-0.4L321.3,58.9L321.3,58.9z
	 M321.3,60.4h0.5c0.4,0,0.7-0.1,0.7-0.5c0-0.3-0.2-0.5-0.6-0.5h-0.5v1H321.3z M324.7,61.1c-0.7,0-1.1-0.4-1.1-0.8
	c0-0.5,0.4-0.8,1.1-0.8c0.2,0,0.3,0,0.5,0v-0.1c0-0.3-0.2-0.5-0.5-0.5c-0.2,0-0.5,0-0.7,0.1l-0.1-0.6c0.2-0.1,0.6-0.2,0.9-0.2
	c0.8,0,1.2,0.4,1.2,1.1v1.5C325.6,61,325.2,61.1,324.7,61.1L324.7,61.1z M325.2,60.5v-0.6c-0.1,0-0.3,0-0.4,0
	c-0.2,0-0.4,0.1-0.4,0.3s0.2,0.3,0.4,0.3C324.9,60.6,325,60.6,325.2,60.5L325.2,60.5z M326.4,61.1v-2.6c0.4-0.2,0.8-0.2,1.2-0.2
	c0.8,0,1.2,0.4,1.2,1.1v1.7h-0.7v-1.6c0-0.4-0.2-0.5-0.5-0.5c-0.2,0-0.3,0-0.5,0.1v2.1L326.4,61.1z M331.4,58.4l-0.1,0.6
	c-0.2-0.1-0.4-0.1-0.6-0.1c-0.4,0-0.7,0.3-0.7,0.8s0.2,0.8,0.7,0.8c0.2,0,0.4-0.1,0.6-0.1l0.1,0.6c-0.2,0.1-0.5,0.2-0.8,0.2
	c-0.9,0-1.4-0.5-1.4-1.4s0.5-1.4,1.4-1.4C330.9,58.3,331.1,58.3,331.4,58.4L331.4,58.4z M333,61.1c-0.8,0-1.3-0.6-1.3-1.4
	c0-0.9,0.5-1.4,1.3-1.4s1.3,0.6,1.3,1.4S333.8,61.1,333,61.1L333,61.1z M333,60.5c0.4,0,0.6-0.3,0.6-0.8s-0.2-0.8-0.6-0.8
	s-0.6,0.3-0.6,0.8S332.6,60.5,333,60.5L333,60.5z M334.7,61.1v-2.6c0.4-0.2,0.8-0.2,1.2-0.2c0.8,0,1.2,0.4,1.2,1.1v1.7h-0.7v-1.6
	c0-0.4-0.2-0.5-0.5-0.5c-0.2,0-0.3,0-0.5,0.1v2.1L334.7,61.1z M338.8,61.1c-0.6,0-1-0.3-1-1.1v-1.2h-0.4v-0.6h0.4v-0.6h0.7v0.6h0.6
	v0.6h-0.6v1.1c0,0.3,0.1,0.5,0.4,0.5c0.1,0,0.2,0,0.3,0V61C339.1,61.1,339,61.1,338.8,61.1L338.8,61.1z M340.7,61.1
	c-0.7,0-1.1-0.4-1.1-0.8c0-0.5,0.4-0.8,1.1-0.8c0.2,0,0.3,0,0.5,0v-0.1c0-0.3-0.2-0.5-0.5-0.5c-0.2,0-0.5,0-0.7,0.1l-0.1-0.6
	c0.2-0.1,0.6-0.2,0.9-0.2c0.8,0,1.2,0.4,1.2,1.1v1.5C341.6,61,341.2,61.1,340.7,61.1L340.7,61.1z M341.1,60.5v-0.6
	c-0.1,0-0.3,0-0.4,0c-0.2,0-0.4,0.1-0.4,0.3s0.2,0.3,0.4,0.3C340.9,60.6,341,60.6,341.1,60.5L341.1,60.5z M344.4,58.4l-0.1,0.6
	c-0.2-0.1-0.4-0.1-0.6-0.1c-0.4,0-0.7,0.3-0.7,0.8s0.2,0.8,0.7,0.8c0.2,0,0.4-0.1,0.6-0.1l0.1,0.6c-0.2,0.1-0.5,0.2-0.8,0.2
	c-0.9,0-1.4-0.5-1.4-1.4s0.5-1.4,1.4-1.4C343.8,58.3,344.1,58.3,344.4,58.4L344.4,58.4z M346,61.1c-0.6,0-1-0.3-1-1.1v-1.2h-0.4
	v-0.6h0.4v-0.6h0.7v0.6h0.6v0.6h-0.6v1.1c0,0.3,0.1,0.5,0.4,0.5c0.1,0,0.2,0,0.3,0V61C346.3,61.1,346.1,61.1,346,61.1L346,61.1z"/>
<linearGradient id="blue-symbol_00000142144582319091315240000006516287617944291773_" gradientUnits="userSpaceOnUse" x1="323.1953" y1="-517.0394" x2="332.654" y2="-513.5262" gradientTransform="matrix(1 0 0 -1 0 -464)">
	<stop  offset="0" style="stop-color:#005AB9"/>
	<stop  offset="1" style="stop-color:#1E3764"/>
</linearGradient>
<path id="blue-symbol" style="fill:url(#blue-symbol_00000142144582319091315240000006516287617944291773_);" d="M325.7,55.4
	c3.9,0,5.8-2.6,7.8-5.2h-12.9v5.2H325.7z"/>
<linearGradient id="yellow-symbol_00000000195227071975839580000017834925025516827017_" gradientUnits="userSpaceOnUse" x1="334.3214" y1="-514.7321" x2="344.3645" y2="-511.3057" gradientTransform="matrix(1 0 0 -1 0 -464)">
	<stop  offset="0" style="stop-color:#FBA900"/>
	<stop  offset="1" style="stop-color:#FFD800"/>
</linearGradient>
<path id="yellow-symbol" style="fill:url(#yellow-symbol_00000000195227071975839580000017834925025516827017_);" d="M341.3,45.1
	c-3.9,0-5.8,2.6-7.8,5.2h12.9v-5.2H341.3z"/>
<path class="st29" d="M109.5,127.9c-0.5-0.1-1.1-0.1-1.6,0c-1.9,0.4-3.2,1.9-3.2,3.9v6.2c0,0.3,0,0.4,0.1,0.6l0,0
	c0.1,0.2,0.3,0.3,0.4,0.3c0.2,0,0.4,0,0.6-0.1c0.3-0.2,0.4-0.6,0.4-0.9v-2.5h5.1v2.5c0,0.3,0.1,0.5,0.1,0.6c0.1,0.2,0.3,0.3,0.4,0.3
	c0,0,0.1,0,0.2,0s0.3,0,0.4-0.1c0.3-0.2,0.3-0.5,0.3-0.9v-6.2C112.7,129.8,111.5,128.3,109.5,127.9z M111.2,131.8v2.3h-5v-2.3
	c0-1,0.3-1.7,1.1-2.2c0.5-0.4,1.2-0.5,1.9-0.4c0.3,0.1,0.6,0.2,0.9,0.4l0,0C110.9,130.2,111.2,130.8,111.2,131.8L111.2,131.8z
	 M127.7,135.6c-0.1-0.2-0.2-0.3-0.4-0.4c-0.2-0.1-0.4,0-0.6,0.1c-0.3,0.2-0.4,0.5-0.4,0.7l-0.1,0.3v0.1c-0.2,1-1,1.5-2,1.4
	c-0.7-0.1-1.5-0.4-1.5-2.2v-0.1h2c0.2,0,1,0,1-0.7c0-0.4-0.3-0.7-0.6-0.7c-0.1,0-0.3,0-0.4,0h-1.9v-2.7c0-0.3,0-0.4-0.1-0.6l0,0
	c-0.1-0.2-0.3-0.3-0.4-0.3c-0.2,0-0.4,0-0.6,0.1c-0.3,0.2-0.3,0.5-0.3,0.9v4.1c0,2.3,0.8,3.5,2.7,3.8c0.2,0,0.4,0.1,0.7,0.1
	c1.5,0,2.7-0.9,3.1-2.4c0-0.1,0-0.2,0.1-0.3l0,0C127.8,136.1,127.8,135.8,127.7,135.6L127.7,135.6z M137.3,133.7
	c-0.6-2.4-3-3.7-5.5-3.1c-1.3,0.3-2.3,1.1-2.9,2.1c-0.6,1.1-0.7,2.3-0.3,3.6c0.6,1.8,2.3,3,4.2,3c0.3,0,0.7,0,1.1-0.1
	c0.5-0.1,1.1-0.3,1.5-0.7c0.4-0.2,0.7-0.5,0.8-0.7c0.2-0.3,0.4-0.5,0.4-0.8c0-0.2-0.1-0.4-0.3-0.5s-0.4-0.2-0.6-0.1l0,0
	c-0.2,0.1-0.3,0.1-0.5,0.3l-0.1,0.2L135,137l0,0c-0.4,0.4-0.9,0.7-1.5,0.8c-1.5,0.3-2.9-0.4-3.5-1.8c0-0.1-0.1-0.2-0.1-0.3h6.5h0.1
	h0.2c0.2,0,0.4-0.1,0.5-0.3C137.6,135,137.6,134.5,137.3,133.7L137.3,133.7z M130.1,133.9c0.5-1.6,2.1-2.5,3.7-2
	c1,0.3,1.8,1.1,2.1,2.2c0,0.1,0,0.2,0,0.2H130C130,134.1,130.1,134,130.1,133.9L130.1,133.9z M144.9,133c0-0.1-0.1-0.2-0.1-0.3v-0.1
	c-0.5-1.4-1.7-2.3-3.2-2.2c-0.3,0-0.5,0-0.7,0.1c-1.2,0.3-2.5,1.1-2.5,3.6v4c0,0.3,0.1,0.5,0.1,0.6c0.1,0.2,0.3,0.3,0.4,0.3
	c0,0,0.1,0,0.2,0c0.1,0,0.3,0,0.4-0.1c0.3-0.2,0.3-0.6,0.3-0.9v-4c0-1.3,0.4-2,1.4-2.2c0.7-0.1,1.3,0.1,1.7,0.6
	c0.2,0.2,0.3,0.5,0.4,0.7c0.1,0.7,0.2,0.9,0.3,1.1l0,0c0.2,0.2,0.6,0.3,0.9,0.2C145.1,134.1,145,133.5,144.9,133L144.9,133z"/>
<path class="st30" d="M153.5,129.2c-0.7-0.9-1.8-1.4-3-1.4c-2.2,0-3.7,1.6-3.7,4v6.2c0,0.3,0.1,0.5,0.1,0.6c0.1,0.2,0.3,0.3,0.4,0.3
	c0,0,0.1,0,0.2,0c0.1,0,0.3,0,0.4-0.1c0.3-0.2,0.3-0.6,0.3-0.9v-2.8h2.2c2,0,3.4-1.1,3.8-2.9C154.5,131.2,154.2,130,153.5,129.2
	L153.5,129.2z M152.8,131.5c0,1.3-1,2.2-2.4,2.2l0,0h-2.1v-2.1c0-0.9,0.1-1.4,0.6-1.8c0.4-0.5,1-0.7,1.7-0.7
	C151.9,129.2,152.8,130.2,152.8,131.5z M163.6,134.4c0-0.4-0.1-0.7-0.2-1c-0.3-1.1-1-2-2-2.5c-1.1-0.6-2.3-0.7-3.5-0.4
	c-1.6,0.5-2.8,1.7-3.1,3.3c-0.5,2.4,0.9,4.6,3.1,5.2c0.4,0.1,0.8,0.2,1.3,0.2c0.6,0,1.2-0.1,1.8-0.4c0.5-0.2,0.9-0.5,1.2-0.8l0,0
	c0,0.3,0,0.4,0.1,0.6l0,0c0.1,0.2,0.3,0.3,0.4,0.3c0.2,0,0.4,0,0.6-0.1c0.3-0.2,0.4-0.6,0.4-0.9v-3.5L163.6,134.4L163.6,134.4z
	 M159.9,137.7c-1.6,0.4-3.1-0.5-3.6-2.1l0,0c-0.1-0.2-0.1-0.4-0.1-0.6c-0.1-1.4,0.8-2.7,2.1-3.1c0.3-0.1,0.6-0.1,1-0.1
	c0.6,0,1.2,0.2,1.7,0.5c0.8,0.5,1.2,1.4,1.2,2.4C162.3,136.2,161.4,137.4,159.9,137.7z M171.5,131l-0.3,0.1L171.5,131L171.5,131
	c-0.1-0.2-0.3-0.3-0.5-0.4c-0.2,0-0.4,0-0.6,0.1c-0.3,0.2-0.3,0.5-0.3,0.9v4c0,0.8-0.2,1.4-0.7,1.8c-0.4,0.3-0.9,0.5-1.5,0.4
	c-1-0.1-1.6-0.9-1.6-2v-4.1c0-0.2,0-0.4-0.1-0.6c-0.1-0.2-0.3-0.3-0.4-0.3c-0.2,0-0.4,0-0.6,0.1c-0.3,0.2-0.4,0.6-0.4,0.9v4.1
	c0,1.6,0.7,2.8,2.1,3.3c1.1,0.4,2.2,0.2,3-0.4l0,0c-0.1,0.9-0.6,1.4-1.4,1.6c-0.4,0.1-0.9,0.1-1.2-0.1c-0.3-0.1-0.5-0.3-0.6-0.5
	l-0.2-0.3l-0.1-0.2c-0.1-0.1-0.2-0.2-0.2-0.2l0,0l0,0c-0.2-0.1-0.4-0.1-0.7,0c-0.2,0.1-0.4,0.3-0.4,0.5c0,0.3,0.1,0.6,0.3,0.9l0,0
	c0.2,0.2,0.4,0.5,0.6,0.7c0.5,0.4,1.2,0.6,2,0.6c0.3,0,0.6,0,0.9-0.1c1.6-0.4,2.5-1.7,2.5-3.6v-6.5
	C171.6,131.2,171.5,131.1,171.5,131z"/>
<path class="st29" d="M120.3,133c0-0.1-0.1-0.2-0.1-0.3v-0.1c-0.5-1.4-1.7-2.3-3.2-2.2c-0.3,0-0.5,0-0.7,0.1
	c-1.2,0.3-2.5,1.1-2.5,3.6v4c0,0.3,0.1,0.5,0.1,0.6l0,0c0.1,0.2,0.3,0.3,0.4,0.3c0,0,0.1,0,0.2,0s0.3,0,0.4-0.1
	c0.3-0.2,0.3-0.5,0.3-0.9v-0.9v-1.7h2.1c0.7,0,0.9-0.4,0.9-0.7s-0.1-0.4-0.2-0.5c-0.1-0.2-0.4-0.2-0.7-0.2h-2.1
	c0-1.3,0.4-1.9,1.4-2.2c0.7-0.1,1.3,0.1,1.7,0.6c0.2,0.2,0.3,0.5,0.4,0.7c0.1,0.7,0.2,0.9,0.3,1.1l0,0c0.2,0.2,0.6,0.3,0.9,0.2
	C120.5,134.1,120.4,133.5,120.3,133L120.3,133z"/>
<path class="st29" d="M431,85.2c-0.8-0.2-1.6-0.2-2.4,0c-2.8,0.6-4.6,2.8-4.6,5.7v9c0,0.4,0,0.6,0.2,0.8l0,0
	c0.1,0.2,0.4,0.4,0.6,0.5c0.3,0.1,0.6,0,0.8-0.2c0.5-0.3,0.5-0.9,0.5-1.2v-3.6h7.3v3.7c0,0.4,0.1,0.7,0.2,0.9
	c0.1,0.2,0.4,0.4,0.6,0.5c0.1,0,0.2,0,0.2,0c0.2,0,0.4-0.1,0.6-0.2c0.4-0.3,0.5-0.8,0.5-1.2v-9C435.6,88,433.8,85.8,431,85.2z
	 M433.4,90.9v3.3h-7.3v-3.3c0-1.4,0.5-2.4,1.6-3.1c0.8-0.5,1.8-0.7,2.8-0.6c0.5,0.1,0.9,0.3,1.3,0.5l0,0
	C432.9,88.5,433.4,89.5,433.4,90.9L433.4,90.9z"/>
<path class="st30" d="M447.3,87.1c-1.1-1.3-2.6-2-4.3-2c-3.2,0-5.4,2.4-5.4,5.8v9c0,0.4,0.1,0.7,0.2,0.9c0.1,0.2,0.4,0.4,0.6,0.5
	c0.1,0,0.2,0,0.2,0c0.2,0,0.4-0.1,0.6-0.2c0.4-0.3,0.5-0.8,0.5-1.2v-4.1h3.1c2.9,0,5-1.5,5.5-4.2C448.7,89.9,448.3,88.3,447.3,87.1
	L447.3,87.1z M446.3,90.5c0,1.9-1.5,3.2-3.4,3.2l0,0h-3v-3c0-1.3,0.2-2,0.8-2.6c0.6-0.7,1.5-1,2.4-1C445,87.2,446.3,88.5,446.3,90.5
	z"/>
<path class="st31" d="M219.5,9c-0.8,0-1.4,0.4-1.4,1.4c0,1,0.6,1.4,1.4,1.4c0.8,0,1.4-0.5,1.4-1.4C220.9,9.5,220.3,9,219.5,9z
	 M219.5,11.2c-0.4,0-0.6-0.3-0.6-0.8c0-0.5,0.3-0.8,0.6-0.8c0.4,0,0.6,0.2,0.6,0.8C220.1,11,219.8,11.2,219.5,11.2z M224.7,9.1
	C224.7,9.1,224.7,9.1,224.7,9.1l0.6,0c0,0,0.1,0,0.1,0.1v0.5c0,0,0,0,0,0h-0.7c0,0,0,0,0,0v1c0,0.4,0.1,0.5,0.4,0.5
	c0.1,0,0.3-0.1,0.3-0.1c0,0,0,0,0,0v0.5c0,0,0,0.1,0,0.1c-0.1,0.1-0.3,0.1-0.6,0.1c-0.5,0-0.9-0.2-0.9-1V9.1c0-0.2,0.1-0.3,0.2-0.4
	c0.1-0.1,0.5-0.4,0.6-0.4c0,0,0,0,0,0V9.1z M215,9.2C215,9.1,215,9.1,215,9.2l1.1-0.1c1,0,1.6,0.6,1.6,1.4c0,0.8-0.6,1.4-1.6,1.4
	h-0.3c0,0,0,0,0,0v1.3c0,0,0,0,0,0c-0.1,0-0.5-0.3-0.6-0.4c-0.1-0.1-0.2-0.3-0.2-0.4V9.2z M216.9,10.5c0-0.3-0.2-0.7-0.8-0.7h-0.3
	c0,0,0,0,0,0v1.3c0,0,0,0,0,0h0.3C216.8,11.2,216.9,10.7,216.9,10.5z M223.5,11c0,0.6-0.4,0.9-1.2,0.9c-0.5,0-1-0.2-1-0.2
	c0,0-0.1,0-0.1-0.1v-0.5c0,0,0,0,0,0c0,0,0,0,0,0c0.2,0.1,0.7,0.2,1.1,0.2c0.2,0,0.3,0,0.3-0.1c0,0,0.1-0.1,0.1-0.1
	c0-0.2-0.2-0.2-0.4-0.3c0,0,0,0-0.1,0c-0.5-0.1-1-0.2-1-0.8c0-0.3,0.1-0.5,0.3-0.7c0.2-0.2,0.5-0.2,0.9-0.2c0.3,0,0.7,0.1,0.9,0.2
	c0,0,0.1,0,0.1,0.1v0.5c0,0,0,0,0,0c-0.4-0.1-0.7-0.2-1-0.2c-0.2,0-0.3,0.1-0.3,0.2c0,0.2,0.2,0.2,0.4,0.2c0,0,0.2,0,0.2,0
	c0.2,0,0.4,0.1,0.6,0.2C223.4,10.5,223.5,10.7,223.5,11z M227.8,11.9C227.7,11.9,227.7,11.9,227.8,11.9l0-1.7c0-0.4-0.1-0.5-0.4-0.5
	c-0.1,0-0.2,0-0.4,0.1c-0.1,0.1-0.2,0.1-0.3,0.2c0,0,0,0,0,0v1.9c0,0,0,0,0,0h-0.7c0,0,0,0,0,0V9.2c0,0,0-0.1,0.1-0.1h0.7
	c0,0,0,0,0,0v0.2c0,0,0,0,0,0c0,0,0,0,0,0l0,0c0.1-0.1,0.2-0.1,0.3-0.2c0.2-0.1,0.4-0.1,0.5-0.1c0.6,0,0.9,0.3,0.9,1v1.8
	c0,0,0,0,0,0L227.8,11.9L227.8,11.9z M229.1,11.9C229.1,11.9,229.1,11.9,229.1,11.9l0-4.1c0,0,0,0,0,0c0,0,0.5,0.3,0.6,0.4
	c0.1,0.1,0.2,0.3,0.2,0.4v3.3c0,0,0,0,0,0H229.1L229.1,11.9z M219.5,4.7C219.4,4.7,219.4,4.7,219.5,4.7c-0.2,0.1-0.3,0.2-0.4,0.3
	c0,0,0,0.1,0,0.1c0.1,0.1,0.2,0.2,0.3,0.3c0,0,0,0,0.1,0c0,0,0,0,0.1,0c0.1-0.1,0.2-0.2,0.3-0.3c0,0,0-0.1,0-0.1
	C219.7,5,219.6,4.8,219.5,4.7C219.5,4.7,219.5,4.7,219.5,4.7z M219.5,5.7c-0.1,0-0.1,0-0.2,0c0,0,0,0-0.1,0c0,0,0,0.1,0,0.1
	c0,0.1,0,0.8,0,1.2c0,0.2,0,0.4,0,0.4c0,0,0,0.1,0.1,0.1h0.3c0,0,0.1,0,0.1-0.1c0,0,0,0,0,0c0,0,0-0.6,0-1.6v0c0,0,0-0.1,0-0.1
	c0,0,0,0-0.1,0C219.6,5.7,219.5,5.7,219.5,5.7z M220.3,5.8c-0.1,0-0.1,0-0.2,0.1c-0.1,0.2-0.2,0.4-0.2,0.7c0,0,0,0.1,0,0.1
	c0,0,0,0,0.1,0h0.3c0.1,0,0.1,0,0.1-0.1c0-0.1,0.1-0.2,0.1-0.4c0,0,0,0,0,0c0,0,0,0,0,0l0.1,0c0,0,0,0,0,0c0,0,0,0,0,0.1
	c0,0-0.3,0.8-0.3,1c0,0,0,0.1,0,0.1c0,0,0,0,0.1,0h0.3c0.1,0,0.1,0,0.1-0.1c0,0,0-0.1,0-0.1l0,0c0.1-0.3,0.2-0.7,0.3-0.8
	c0.1-0.2,0.1-0.4-0.2-0.5c-0.1,0-0.2-0.1-0.3-0.1C220.6,5.9,220.5,5.9,220.3,5.8L220.3,5.8C220.3,5.8,220.3,5.8,220.3,5.8z
	 M218.6,5.8C218.6,5.8,218.6,5.8,218.6,5.8L218.6,5.8c-0.2,0-0.3,0.1-0.4,0.1c-0.1,0-0.2,0.1-0.3,0.1c-0.3,0.1-0.3,0.3-0.2,0.5
	c0,0.1,0.2,0.5,0.3,0.8c0,0.1,0,0.1,0,0.1c0,0,0.1,0.1,0.1,0.1h0.3c0,0,0.1,0,0.1,0c0,0,0-0.1,0-0.1c-0.1-0.2-0.3-1-0.3-1
	c0,0,0,0,0-0.1c0,0,0,0,0,0l0.1,0c0,0,0,0,0,0c0,0,0,0,0,0c0.1,0.1,0.1,0.2,0.1,0.4c0,0,0,0.1,0.1,0.1h0.3c0,0,0.1,0,0.1,0
	c0,0,0,0,0-0.1c-0.1-0.2-0.1-0.4-0.2-0.7C218.8,5.9,218.7,5.8,218.6,5.8z M220.7,7.8h-2.4c-0.1,0-0.2,0.1-0.2,0.2v0.3
	c0,0.1,0,0.1,0.1,0.1h2.4c0.1,0,0.1,0,0.1-0.1V8C220.8,7.9,220.7,7.8,220.7,7.8z M232.1,10.1c0-1.7-3.1-4.6-6.5-6.4
	c-3.9-2.1-8.3-3.4-9.7-2.6c-1.7,0.9-2.6,5.5-2.6,9c0,3.6,0.9,8.1,2.6,9c1.5,0.9,5.8-0.4,9.7-2.6C229,14.7,232.1,11.9,232.1,10.1z
	 M217.1,0.1c2.4,0,6.4,1.5,9,3c1.5,0.8,3.2,2,4.5,3.2c1.3,1.2,2.4,2.6,2.4,3.9c0,1.2-0.9,2.5-2.5,3.9c-1.3,1.2-3,2.4-4.4,3.2
	c-2.5,1.4-6.3,3-8.9,3c-0.7,0-1.2-0.1-1.7-0.4c-1.1-0.6-1.8-2.3-2.3-3.9c-0.5-1.7-0.7-3.8-0.7-5.8c0-2,0.3-4.1,0.7-5.8
	c0.5-2.1,1.3-3.5,2.3-4C215.9,0.2,216.4,0.1,217.1,0.1z"/>
<g>
	<defs>
		<path id="SVGID_00000107571857543414004790000010367911110625777057_" d="M432.9,44.6h16.9c1.6,0,2.8,1.3,2.8,2.8v11.3
			c0,1.6-1.3,2.8-2.8,2.8h-16.9c-1.6,0-2.8-1.3-2.8-2.8V47.4C430.1,45.9,431.4,44.6,432.9,44.6z"/>
	</defs>
	<clipPath id="SVGID_00000016033579026310719380000011767772997396542868_">
		<use xlink:href="#SVGID_00000107571857543414004790000010367911110625777057_"  style="overflow:visible;"/>
	</clipPath>
	<g style="clip-path:url(#SVGID_00000016033579026310719380000011767772997396542868_);">
		
			<linearGradient id="SVGID_00000081622570797386189340000013097145666224275591_" gradientUnits="userSpaceOnUse" x1="433.2741" y1="88.0615" x2="449.5376" y2="109.7462" gradientTransform="matrix(1 0 0 -1 0 152)">
			<stop  offset="0" style="stop-color:#060B0E"/>
			<stop  offset="1" style="stop-color:#254764"/>
		</linearGradient>
		<path style="fill:url(#SVGID_00000081622570797386189340000013097145666224275591_);" d="M432.9,44.6h16.9c1.6,0,2.8,1.3,2.8,2.8
			v11.3c0,1.6-1.3,2.8-2.8,2.8h-16.9c-1.6,0-2.8-1.3-2.8-2.8V47.4C430.1,45.9,431.4,44.6,432.9,44.6z"/>
		
			<linearGradient id="SVGID_00000038410687728847112990000015779376732201002624_" gradientUnits="userSpaceOnUse" x1="451.9004" y1="93.7312" x2="449.6566" y2="99.8787" gradientTransform="matrix(1 0 0 -1 0 152)">
			<stop  offset="0" style="stop-color:#FFFFFF;stop-opacity:0"/>
			<stop  offset="1" style="stop-color:#FFFFFF"/>
		</linearGradient>
		<path style="opacity:0.1;fill:url(#SVGID_00000038410687728847112990000015779376732201002624_);enable-background:new    ;" d="
			M456.6,93.3c12.3,0,22.2-10,22.2-22.2s-10-22.2-22.2-22.2s-22.2,10-22.2,22.2S444.3,93.3,456.6,93.3z"/>
		
			<linearGradient id="SVGID_00000093867493096843710050000016288722782836884156_" gradientUnits="userSpaceOnUse" x1="437.4272" y1="76.2878" x2="434.8516" y2="86.6473" gradientTransform="matrix(1 0 0 -1 0 152)">
			<stop  offset="0" style="stop-color:#FFFFFF;stop-opacity:0"/>
			<stop  offset="1" style="stop-color:#FFFFFF"/>
		</linearGradient>
		<path style="opacity:0.1;fill:url(#SVGID_00000093867493096843710050000016288722782836884156_);enable-background:new    ;" d="
			M434.7,76.4c6.4,0,11.6-5.2,11.6-11.6s-5.2-11.6-11.6-11.6c-6.4,0-11.6,5.2-11.6,11.6S428.3,76.4,434.7,76.4z"/>
		
			<linearGradient id="SVGID_00000027604352891188164170000012346786363065623191_" gradientUnits="userSpaceOnUse" x1="460.3551" y1="109.572" x2="464.4917" y2="92.9342" gradientTransform="matrix(1 0 0 -1 0 152)">
			<stop  offset="0" style="stop-color:#FFFFFF;stop-opacity:0"/>
			<stop  offset="1" style="stop-color:#FFFFFF"/>
		</linearGradient>
		<path style="opacity:0.1;fill:url(#SVGID_00000027604352891188164170000012346786363065623191_);enable-background:new    ;" d="
			M460.1,60.2c10.3,0,18.7-8.4,18.7-18.7s-8.4-18.7-18.7-18.7c-10.3,0-18.7,8.4-18.7,18.7S449.8,60.2,460.1,60.2z"/>
		
			<linearGradient id="SVGID_00000007412878487913292410000010910951684717077635_" gradientUnits="userSpaceOnUse" x1="435.4059" y1="102.4333" x2="435.4059" y2="98.9039" gradientTransform="matrix(1 0 0 -1 0 152)">
			<stop  offset="0" style="stop-color:#FAD961"/>
			<stop  offset="1" style="stop-color:#F7955D"/>
		</linearGradient>
		<path style="fill:url(#SVGID_00000007412878487913292410000010910951684717077635_);" d="M437.2,49.6h-3.5c-0.4,0-0.7,0.3-0.7,0.7
			v2.1c0,0.4,0.3,0.7,0.7,0.7h3.5c0.4,0,0.7-0.3,0.7-0.7v-2.1C437.9,49.9,437.6,49.6,437.2,49.6z"/>
		<path class="st38" d="M434.3,50.3h-0.7v2.1h0.7V50.3z"/>
		<path class="st38" d="M435.8,50.3h-0.7v2.1h0.7V50.3z"/>
		<path class="st38" d="M437.2,50.3h-0.7v2.1h0.7V50.3z"/>
		<path class="st39" d="M436.5,55.2h-3.5v0.7h3.5V55.2z"/>
		<path class="st39" d="M435.1,56.6h-2.1v0.7h2.1V56.6z"/>
		<path class="st39" d="M437.9,56.6h-2.1v0.7h2.1V56.6z"/>
		<path class="st39" d="M440.7,56.6h-2.1v0.7h2.1V56.6z"/>
		<path class="st39" d="M440.7,55.2h-3.5v0.7h3.5V55.2z"/>
		<path class="st39" d="M444.9,55.2h-3.5v0.7h3.5V55.2z"/>
		<path class="st39" d="M449.2,55.2h-3.5v0.7h3.5V55.2z"/>
	</g>
</g>
</svg>
