<?xml version="1.0" encoding="UTF-8"?> <svg xmlns="http://www.w3.org/2000/svg" id="_ëîé_1" data-name="‘ëîé_1" viewBox="0 0 2012 2001"><defs><style>.cls-1{fill:none;stroke:#fff;stroke-miterlimit:10;}.cls-2,.cls-3{fill:#1b1c1e;}.cls-3{fill-rule:evenodd;}</style></defs><rect class="cls-1" x="6" y="0.5" width="2000" height="2000"></rect><path d="M1000,712.09c-62.11,0-112.66,52.55-112.66,117.13V1000c0,64.59,50.55,117.13,112.66,117.13s112.66-52.54,112.66-117.13V829.22C1112.66,764.64,1062.11,712.09,1000,712.09Zm0,380c-44.26,0-80.88-34.71-86.72-79.57h173.43C1080.88,1057.39,1044.26,1092.09,1000,1092.09Zm87.62-104.61H912.38V829.22c0-50.78,39.3-92.09,87.62-92.09s87.62,41.31,87.62,92.09Z" transform="translate(6 0.5)"></path><path d="M1175.25,937.41a12.53,12.53,0,0,0-12.52,12.52V1000c0,89.73-73,162.73-162.73,162.73s-162.73-73-162.73-162.73V949.93a12.52,12.52,0,1,0-25,0V1000c0,99.3,77.55,180.64,175.25,187.13v75.74H924.89a12.52,12.52,0,0,0,0,25h150.22a12.52,12.52,0,0,0,0-25h-62.59v-75.74c97.7-6.49,175.25-87.83,175.25-187.13V949.93A12.53,12.53,0,0,0,1175.25,937.41Z" transform="translate(6 0.5)"></path><path class="cls-2" d="M1712.17,1555.56c-5.57,0-10.12,2.77-10.12,6.21v-.21h20.21v.21C1722.26,1558.33,1717.73,1555.56,1712.17,1555.56Z" transform="translate(6 0.5)"></path><path class="cls-2" d="M287.88,1555.56c-5.56,0-10.1,2.77-10.1,6.21v-.21H298v.21C298,1558.33,293.43,1555.56,287.88,1555.56Z" transform="translate(6 0.5)"></path><path class="cls-3" d="M1769.51,486.61a52.51,52.51,0,0,0-52.36-52.37H282.84a52.49,52.49,0,0,0-52.36,52.37V1496.29h1539Zm-60.82,943.54H288.18V506.76H1708.69Z" transform="translate(6 0.5)"></path><path class="cls-3" d="M2003.62,1530.22H-3.61c-1.55-1.1-2.36-2.23-2.36-3.34,0,17,149.54,38.88,241.4,38.88H1764.57c91.88,0,241.41-21.91,241.41-38.88C2006,1528,2005.16,1529.12,2003.62,1530.22Z" transform="translate(6 0.5)"></path><path class="cls-3" d="M1161.69,1504.1v4.25a11.88,11.88,0,0,1-11.87,11.87H850.17a11.88,11.88,0,0,1-11.86-11.87v-4.25H-6v22.78H2006V1504.1Z" transform="translate(6 0.5)"></path></svg> 