<?xml version="1.0" encoding="UTF-8"?> <svg xmlns="http://www.w3.org/2000/svg" id="_ëîé_1" data-name="‘ëîé_1" viewBox="0 0 2012 2001"><defs><style>.cls-1{fill:none;stroke:#fff;stroke-miterlimit:10;}.cls-2,.cls-3{fill:#1b1c1e;}.cls-3{fill-rule:evenodd;}</style></defs><rect class="cls-1" x="6" y="0.5" width="2000" height="2000"></rect><path d="M1035.56,772.7,869.73,895.84H735.8a19.5,19.5,0,0,0-19.49,19.49v169.34a19.49,19.49,0,0,0,19.49,19.49H869.73l165.83,123.15c12.76,9.47,31.11.45,31.11-15.65V788.35A19.51,19.51,0,0,0,1035.56,772.7ZM856.68,1065.18H755.29V934.82H856.68Zm171,107.73h0l-132-98V925.14l132-98Z" transform="translate(6 0.5)"></path><path d="M1242,822.75a19.49,19.49,0,0,0-27.56,0l-86.88,86.88a19.49,19.49,0,1,0,27.56,27.56L1242,850.31A19.49,19.49,0,0,0,1242,822.75Z" transform="translate(6 0.5)"></path><path d="M1264.2,980.51H1141.33a19.49,19.49,0,0,0,0,39H1264.2a19.49,19.49,0,1,0,0-39Z" transform="translate(6 0.5)"></path><path d="M1242,1149.7l-86.88-86.89a19.49,19.49,0,0,0-27.56,27.57l86.88,86.88A19.49,19.49,0,0,0,1242,1149.7Z" transform="translate(6 0.5)"></path><path class="cls-2" d="M1712.17,1555.56c-5.57,0-10.12,2.77-10.12,6.21v-.21h20.21v.21C1722.26,1558.33,1717.73,1555.56,1712.17,1555.56Z" transform="translate(6 0.5)"></path><path class="cls-2" d="M287.88,1555.56c-5.56,0-10.1,2.77-10.1,6.21v-.21H298v.21C298,1558.33,293.43,1555.56,287.88,1555.56Z" transform="translate(6 0.5)"></path><path class="cls-3" d="M1769.51,486.61a52.51,52.51,0,0,0-52.36-52.37H282.84a52.49,52.49,0,0,0-52.36,52.37V1496.29h1539Zm-60.82,943.54H288.18V506.76H1708.69Z" transform="translate(6 0.5)"></path><path class="cls-3" d="M2003.62,1530.22H-3.61c-1.55-1.1-2.36-2.23-2.36-3.34,0,17,149.54,38.88,241.4,38.88H1764.57c91.88,0,241.41-21.91,241.41-38.88C2006,1528,2005.16,1529.12,2003.62,1530.22Z" transform="translate(6 0.5)"></path><path class="cls-3" d="M1161.69,1504.1v4.25a11.88,11.88,0,0,1-11.87,11.87H850.17a11.88,11.88,0,0,1-11.86-11.87v-4.25H-6v22.78H2006V1504.1Z" transform="translate(6 0.5)"></path></svg> 