<?xml version="1.0" encoding="UTF-8"?> <svg xmlns="http://www.w3.org/2000/svg" id="_ëîé_1" data-name="‘ëîé_1" viewBox="0 0 2012 2001"><defs><style>.cls-1{fill:none;stroke:#fff;stroke-miterlimit:10;}.cls-2,.cls-3{fill:#1b1c1e;}.cls-3{fill-rule:evenodd;}</style></defs><rect class="cls-1" x="6" y="0.5" width="2000" height="2000"></rect><path class="cls-2" d="M1712.173,1555.751c-5.569,0-10.123,2.779-10.123,6.211v-.208h20.208v.208C1722.258,1558.53,1717.733,1555.751,1712.173,1555.751Z" transform="translate(6 0.5)"></path><path class="cls-2" d="M287.876,1555.751c-5.56,0-10.1,2.779-10.1,6.211v-.208h20.181v.208C297.961,1558.53,293.429,1555.751,287.876,1555.751Z" transform="translate(6 0.5)"></path><path class="cls-3" d="M1769.515,486.8a52.51,52.51,0,0,0-52.369-52.368H282.843A52.492,52.492,0,0,0,230.478,486.8V1496.481H1769.515Zm-60.827,943.547H288.177V506.956H1708.688Z" transform="translate(6 0.5)"></path><path class="cls-3" d="M2003.619,1530.418H-3.612c-1.545-1.1-2.358-2.229-2.358-3.343,0,16.968,149.542,38.884,241.4,38.884H1764.574c91.877,0,241.4-21.916,241.4-38.884C2005.978,1528.189,2005.164,1529.318,2003.619,1530.418Z" transform="translate(6 0.5)"></path><path class="cls-3" d="M1161.688,1504.3v4.25a11.879,11.879,0,0,1-11.871,11.871H850.168a11.876,11.876,0,0,1-11.857-11.871v-4.25H-6v22.778H2006V1504.3Z" transform="translate(6 0.5)"></path><path d="M1029.169,795.4a1.5,1.5,0,0,0,0-3,1.5,1.5,0,0,0,0,3Z" transform="translate(6 0.5)"></path><g id="Layer_1" data-name="Layer 1"><path d="M851.891,1092.717h61.516a10.352,10.352,0,0,0,10.352-10.352h0v-43.941a10.352,10.352,0,0,0-10.352-10.352H892.522l64.192-73.49,64.191,73.49H999.973a10.352,10.352,0,0,0-10.352,10.352h0V1113.8H956.3a10.351,10.351,0,0,0-7.8,17.162l86.981,99.58a10.352,10.352,0,0,0,15.593,0l86.979-99.579a10.352,10.352,0,0,0-7.8-17.162h-33.318l0-21.079h51.169a104.16,104.16,0,0,0,8.855-207.945,163.24,163.24,0,0,0-313.933,0,104.16,104.16,0,0,0,8.86,207.943Zm-.674-187.605a10.354,10.354,0,0,0,10-8.007,142.525,142.525,0,0,1,277.557,0,10.354,10.354,0,0,0,10,8.007,83.451,83.451,0,0,1-.675,166.9h-61.524a10.353,10.353,0,0,0-10.349,10.355l.01,41.782a10.353,10.353,0,0,0,10.353,10.35h20.883l-64.192,73.491L979.093,1134.5h20.884a10.353,10.353,0,0,0,10.353-10.352h0v-75.371H1043.7a10.352,10.352,0,0,0,7.8-17.163l-86.988-99.58a10.351,10.351,0,0,0-15.592,0l-86.975,99.58a10.353,10.353,0,0,0,7.8,17.163h33.318v23.236H851.89a83.451,83.451,0,0,1-.675-166.9Z" transform="translate(6 0.5)"></path></g></svg> 