<?xml version="1.0" encoding="UTF-8"?> <svg xmlns="http://www.w3.org/2000/svg" id="_ëîé_1" data-name="‘ëîé_1" viewBox="0 0 2012 2001"><defs><style>.cls-1{fill:none;stroke:#fff;stroke-miterlimit:10;}.cls-2,.cls-3{fill:#1b1c1e;}.cls-3{fill-rule:evenodd;}.cls-4{fill:#fff;}</style></defs><rect class="cls-1" x="6" y="0.5" width="2000" height="2000"></rect><path class="cls-2" d="M1712.173,1555.556c-5.569,0-10.123,2.779-10.123,6.21v-.207h20.208v.207C1722.258,1558.335,1717.733,1555.556,1712.173,1555.556Z" transform="translate(6 0.5)"></path><path class="cls-2" d="M287.876,1555.556c-5.56,0-10.1,2.779-10.1,6.21v-.207h20.181v.207C297.961,1558.335,293.429,1555.556,287.876,1555.556Z" transform="translate(6 0.5)"></path><path class="cls-3" d="M1769.515,486.605a52.51,52.51,0,0,0-52.369-52.368H282.843a52.491,52.491,0,0,0-52.365,52.368V1496.286H1769.515Zm-60.827,943.547H288.177V506.76H1708.688Z" transform="translate(6 0.5)"></path><path class="cls-3" d="M2003.619,1530.223H-3.612c-1.545-1.1-2.358-2.229-2.358-3.344,0,16.969,149.542,38.884,241.4,38.884H1764.574c91.877,0,241.4-21.915,241.4-38.884C2005.978,1527.994,2005.164,1529.123,2003.619,1530.223Z" transform="translate(6 0.5)"></path><path class="cls-3" d="M1161.688,1504.1v4.249a11.879,11.879,0,0,1-11.871,11.872H850.168a11.876,11.876,0,0,1-11.857-11.872V1504.1H-6v22.777H2006V1504.1Z" transform="translate(6 0.5)"></path><path d="M1029.169,795.4a1.5,1.5,0,0,0,0-3,1.5,1.5,0,0,0,0,3Z" transform="translate(6 0.5)"></path><path d="M604.474,814.006c-12.941,0-23.426,11.4-23.426,25.448v.678h837.9v-.678c0-14.049-10.494-25.448-23.417-25.448Z" transform="translate(6 0.5)"></path><rect class="cls-4" x="587.048" y="840.632" width="837.905" height="10.716"></rect><path d="M581.048,1165.955c0,14.048,10.485,25.447,23.426,25.447h791.061c12.923,0,23.417-11.4,23.417-25.447V850.848h-837.9Zm159.536-14.364H693.3v-49.166h47.288Zm-8.111-79.3v-49.165h47.288v49.165Zm78.887,79.3h-47.3v-49.166h47.3Zm-9.245-79.3v-49.165H849.4v49.165Zm363.054,79.3H830.3v-49.166h334.867Zm-293.439-79.3v-49.165h47.3v49.165Zm69.65,0v-49.165h47.3v49.165Zm69.616,0v-49.165h47.314v49.165Zm69.65,0v-49.165h47.3v49.165Zm69.641,0v-49.165h47.3v49.165Zm85.658,79.3h-47.313v-49.166h47.313Zm-16.043-79.3v-49.165h47.316v49.165Zm86.8,79.3h-47.3v-49.166h47.3Zm-23.745-79.3v-49.165h94.416v49.165Zm94.513,79.3h-47.3v-49.166h47.3Zm-47.3-287.053h47.3v49.167h-47.3Zm0,79.3h47.3v49.148h-47.3Zm-70.768-79.3h47.3v49.167h-47.3Zm0,79.3h47.3v49.148h-47.3Zm-70.775-79.3h47.313v49.167h-47.313Zm0,79.3h47.313v49.148h-47.313Zm-70.751-79.3h47.288v49.167h-47.288Zm0,79.3h47.288v49.148h-47.288Zm-70.774-79.3h47.3v49.167h-47.3Zm0,79.3h47.3v49.148h-47.3Zm-70.759-79.3h47.305v49.167H976.348Zm0,79.3h47.305v49.148H976.348Zm-70.759-79.3h47.287v49.167H905.589Zm0,79.3h47.287v49.148H905.589Zm-70.776-79.3h47.306v49.167H834.813Zm0,79.3h47.306v49.148H834.813Zm-70.75-79.3h47.3v49.167h-47.3Zm0,79.3h47.3v49.148h-47.3Zm-70.767-79.3h47.288v49.167H693.3Zm0,79.3h47.288v49.148H693.3Zm-70.776-79.3h47.314v49.167H622.52Zm0,79.3h47.314v49.148H622.52Zm0,79.286h94.416v49.165H622.52Zm0,79.3h47.314v49.166H622.52Z" transform="translate(6 0.5)"></path><rect class="cls-4" x="840.813" y="865.038" width="47.306" height="49.167"></rect><rect class="cls-4" x="840.813" y="944.341" width="47.306" height="49.148"></rect><rect class="cls-4" x="911.589" y="944.341" width="47.287" height="49.148"></rect><rect x="974.961" y="788.5" width="83" height="45" rx="22.5"></rect><circle class="cls-4" cx="1016.461" cy="813.5" r="7.5"></circle></svg> 