<?xml version="1.0" encoding="UTF-8"?> <svg xmlns="http://www.w3.org/2000/svg" id="_ëîé_1" data-name="‘ëîé_1" viewBox="0 0 2012 2001"><defs><style>.cls-1{fill:none;stroke:#fff;stroke-miterlimit:10;}.cls-2,.cls-3{fill:#1b1c1e;}.cls-3{fill-rule:evenodd;}</style></defs><rect class="cls-1" x="6" y="0.5" width="2000" height="2000"></rect><path class="cls-2" d="M1712.173,1555.556c-5.569,0-10.123,2.779-10.123,6.21v-.207h20.208v.207C1722.258,1558.335,1717.733,1555.556,1712.173,1555.556Z" transform="translate(6 0.5)"></path><path class="cls-2" d="M287.876,1555.556c-5.56,0-10.1,2.779-10.1,6.21v-.207h20.181v.207C297.961,1558.335,293.429,1555.556,287.876,1555.556Z" transform="translate(6 0.5)"></path><path class="cls-3" d="M1769.515,486.605a52.51,52.51,0,0,0-52.369-52.368H282.843a52.491,52.491,0,0,0-52.365,52.368V1496.286H1769.515Zm-60.827,943.547H288.177V506.76H1708.688Z" transform="translate(6 0.5)"></path><path class="cls-3" d="M2003.619,1530.223H-3.612c-1.545-1.1-2.358-2.229-2.358-3.344,0,16.969,149.542,38.884,241.4,38.884H1764.574c91.877,0,241.4-21.915,241.4-38.884C2005.978,1527.994,2005.164,1529.123,2003.619,1530.223Z" transform="translate(6 0.5)"></path><path class="cls-3" d="M1161.688,1504.1v4.249a11.879,11.879,0,0,1-11.871,11.872H850.168a11.876,11.876,0,0,1-11.857-11.872V1504.1H-6v22.777H2006V1504.1Z" transform="translate(6 0.5)"></path><path d="M1029.169,795.4a1.5,1.5,0,0,0,0-3,1.5,1.5,0,0,0,0,3Z" transform="translate(6 0.5)"></path><g id="Page-1"><g id="_022---SSD" data-name="022---SSD"><path id="Shape" d="M1173.15,1266.583H826.85a38.521,38.521,0,0,1-38.477-38.478V727.9a38.521,38.521,0,0,1,38.477-38.478h346.3a38.521,38.521,0,0,1,38.477,38.478v500.21A38.521,38.521,0,0,1,1173.15,1266.583ZM826.85,708.656A19.258,19.258,0,0,0,807.612,727.9v500.21a19.258,19.258,0,0,0,19.238,19.239h346.3a19.258,19.258,0,0,0,19.238-19.239V727.9a19.258,19.258,0,0,0-19.238-19.239Z" transform="translate(6 0.5)"></path><path id="Shape-2" data-name="Shape" d="M1067.336,766.373H894.186a19.257,19.257,0,0,1-19.238-19.239v-48.1a9.619,9.619,0,0,1,9.619-9.62h192.388a9.62,9.62,0,0,1,9.62,9.62v48.1A19.259,19.259,0,0,1,1067.336,766.373Zm-173.15-57.717v38.478h173.15V708.656Z" transform="translate(6 0.5)"></path><circle id="Oval" cx="842.47" cy="738.015" r="9.619"></circle><circle id="Oval-2" data-name="Oval" cx="1169.53" cy="738.015" r="9.619"></circle><circle id="Oval-3" data-name="Oval" cx="842.47" cy="1218.985" r="9.619"></circle><circle id="Oval-4" data-name="Oval" cx="1169.53" cy="1218.985" r="9.619"></circle><path id="Shape-3" data-name="Shape" d="M1009.619,766.373a9.62,9.62,0,0,1-9.619-9.62V699.037a9.62,9.62,0,1,1,19.239,0v57.716A9.62,9.62,0,0,1,1009.619,766.373Z" transform="translate(6 0.5)"></path><path id="Shape-4" data-name="Shape" d="M1125.052,1199.247h-250.1a48.155,48.155,0,0,1-48.1-48.1V881.806a48.154,48.154,0,0,1,48.1-48.1h250.1a48.154,48.154,0,0,1,48.1,48.1V1151.15A48.155,48.155,0,0,1,1125.052,1199.247Zm-250.1-346.3a28.89,28.89,0,0,0-28.859,28.858V1151.15a28.891,28.891,0,0,0,28.859,28.858h250.1a28.891,28.891,0,0,0,28.859-28.858V881.806a28.89,28.89,0,0,0-28.859-28.858Z" transform="translate(6 0.5)"></path><path id="Shape-5" data-name="Shape" d="M903.806,1026.1a38.459,38.459,0,0,1-27.2-65.673,39.344,39.344,0,0,1,54.39,0,38.212,38.212,0,0,1,11.282,27.2,9.619,9.619,0,1,1-19.238,0,19.111,19.111,0,0,0-5.646-13.593,19.65,19.65,0,0,0-27.186,0,19.223,19.223,0,0,0,13.593,32.832,9.62,9.62,0,0,1,0,19.239Z" transform="translate(6 0.5)"></path><path id="Shape-6" data-name="Shape" d="M903.806,1083.814a38.521,38.521,0,0,1-38.478-38.478,9.62,9.62,0,0,1,19.239,0,19.224,19.224,0,1,0,19.239-19.239,9.62,9.62,0,1,1,0-19.239,38.478,38.478,0,0,1,0,76.956Z" transform="translate(6 0.5)"></path><path id="Shape-7" data-name="Shape" d="M1000,1026.1a38.459,38.459,0,0,1-27.2-65.673,39.344,39.344,0,0,1,54.39,0,38.213,38.213,0,0,1,11.283,27.2,9.62,9.62,0,1,1-19.239,0,19.106,19.106,0,0,0-5.646-13.593,19.65,19.65,0,0,0-27.186,0A19.223,19.223,0,0,0,1000,1006.858a9.62,9.62,0,0,1,0,19.239Z" transform="translate(6 0.5)"></path><path id="Shape-8" data-name="Shape" d="M1000,1083.814a38.521,38.521,0,0,1-38.478-38.478,9.62,9.62,0,0,1,19.239,0A19.224,19.224,0,1,0,1000,1026.1a9.62,9.62,0,0,1,0-19.239,38.478,38.478,0,0,1,0,76.956Z" transform="translate(6 0.5)"></path><path id="Shape-9" data-name="Shape" d="M1096.194,1083.814h-28.858a9.619,9.619,0,0,1-9.619-9.62V958.761a9.619,9.619,0,0,1,9.619-9.619h28.858a38.521,38.521,0,0,1,38.478,38.477v57.717A38.521,38.521,0,0,1,1096.194,1083.814Zm-19.239-19.239h19.239a19.259,19.259,0,0,0,19.239-19.239V987.619a19.257,19.257,0,0,0-19.239-19.238h-19.239Z" transform="translate(6 0.5)"></path></g></g></svg> 