<?xml version="1.0" encoding="UTF-8"?> <svg xmlns="http://www.w3.org/2000/svg" id="_ëîé_1" data-name="‘ëîé_1" viewBox="0 0 2012 2001"><defs><style>.cls-1{fill:none;stroke:#fff;stroke-miterlimit:10;}.cls-2,.cls-3{fill:#1b1c1e;}.cls-3{fill-rule:evenodd;}</style></defs><rect class="cls-1" x="6" y="0.5" width="2000" height="2000"></rect><path d="M934.94,1165.56a136,136,0,0,1-69-210.46,10.75,10.75,0,0,0,1.05-1.71,11.6,11.6,0,0,0-19.83-11.9,159.16,159.16,0,0,0,.71,189.47,160.48,160.48,0,0,0,80.19,56.75,11.84,11.84,0,0,0,3.45.52,11.6,11.6,0,0,0,3.44-22.67Z" transform="translate(6 0.5)"></path><path d="M1232.21,926.88a102.12,102.12,0,0,0-19.9-60.85l-73.41-109a11.59,11.59,0,0,0-19.23,0L1088.73,803,993.08,661a11.59,11.59,0,0,0-19.23,0L809.66,904.72a214,214,0,0,0-41.87,127.73c0,118.92,96.75,215.68,215.68,215.68s215.67-96.76,215.67-215.68a218.13,218.13,0,0,0-1.86-28.37A102.72,102.72,0,0,0,1232.21,926.88ZM1129.28,784.29l63.79,94.7.41.58a79.74,79.74,0,1,1-128.39,0c.14-.19.27-.37.39-.56l32.85-48.76.18-.27ZM1176,1032.45c0,106.13-86.35,192.48-192.49,192.48S791,1138.58,791,1032.45a191,191,0,0,1,37.53-114.21c.14-.19.28-.39.41-.59L983.47,688.23l91.28,135.5-28.5,42.3a102.92,102.92,0,0,0,129.21,152.82q.48,6.78.49,13.6Z" transform="translate(6 0.5)"></path><path d="M1088.39,924.05a39.55,39.55,0,0,1,3.4-16.12,11.59,11.59,0,1,0-21.19-9.42,63,63,0,0,0,22.57,77.87,11.6,11.6,0,1,0,12.9-19.28,39.7,39.7,0,0,1-17.68-33.05Z" transform="translate(6 0.5)"></path><path d="M978,1181.62c-2.84-7.46-13.44-9.59-18.92-3.75-6.53,6.32-3,17.94,5.94,19.56C973.86,1199.38,981.6,1190,978,1181.62Z" transform="translate(6 0.5)"></path><path d="M1123.17,987c7.48,5.18,18.19-.55,18-9.64.17-9.09-10.56-14.83-18-9.65C1116.4,971.91,1116.38,982.72,1123.17,987Z" transform="translate(6 0.5)"></path><path class="cls-2" d="M1712.17,1555.56c-5.57,0-10.12,2.77-10.12,6.21v-.21h20.21v.21C1722.26,1558.33,1717.73,1555.56,1712.17,1555.56Z" transform="translate(6 0.5)"></path><path class="cls-2" d="M287.88,1555.56c-5.56,0-10.1,2.77-10.1,6.21v-.21H298v.21C298,1558.33,293.43,1555.56,287.88,1555.56Z" transform="translate(6 0.5)"></path><path class="cls-3" d="M1769.51,486.61a52.51,52.51,0,0,0-52.36-52.37H282.84a52.49,52.49,0,0,0-52.36,52.37V1496.29h1539Zm-60.82,943.54H288.18V506.76H1708.69Z" transform="translate(6 0.5)"></path><path class="cls-3" d="M2003.62,1530.22H-3.61c-1.55-1.1-2.36-2.23-2.36-3.34,0,17,149.54,38.88,241.4,38.88H1764.57c91.88,0,241.41-21.91,241.41-38.88C2006,1528,2005.16,1529.12,2003.62,1530.22Z" transform="translate(6 0.5)"></path><path class="cls-3" d="M1161.69,1504.1v4.25a11.88,11.88,0,0,1-11.87,11.87H850.17a11.88,11.88,0,0,1-11.86-11.87v-4.25H-6v22.78H2006V1504.1Z" transform="translate(6 0.5)"></path></svg> 