<?xml version="1.0" encoding="UTF-8"?> <svg xmlns="http://www.w3.org/2000/svg" id="_ëîé_1" data-name="‘ëîé_1" viewBox="0 0 2012 2001"><defs><style>.cls-1,.cls-4,.cls-5{fill:none;}.cls-1{stroke:#fff;}.cls-1,.cls-4,.cls-5,.cls-6{stroke-miterlimit:10;}.cls-2,.cls-3{fill:#1b1c1e;}.cls-3{fill-rule:evenodd;}.cls-4,.cls-5,.cls-6{stroke:#000;}.cls-4{stroke-width:18px;}.cls-5{stroke-width:16px;}.cls-6{fill:#fff;stroke-width:14px;}</style></defs><rect class="cls-1" x="6" y="0.5" width="2000" height="2000"></rect><path class="cls-2" d="M1712.173,1555.556c-5.569,0-10.123,2.779-10.123,6.21v-.207h20.208v.207C1722.258,1558.335,1717.733,1555.556,1712.173,1555.556Z" transform="translate(6 0.5)"></path><path class="cls-2" d="M287.876,1555.556c-5.56,0-10.1,2.779-10.1,6.21v-.207h20.181v.207C297.961,1558.335,293.429,1555.556,287.876,1555.556Z" transform="translate(6 0.5)"></path><path class="cls-3" d="M1769.515,486.605a52.51,52.51,0,0,0-52.369-52.368H282.843a52.491,52.491,0,0,0-52.365,52.368V1496.286H1769.515Zm-60.827,943.547H288.177V506.76H1708.688Z" transform="translate(6 0.5)"></path><path class="cls-3" d="M2003.619,1530.223H-3.612c-1.545-1.1-2.358-2.229-2.358-3.344,0,16.969,149.542,38.884,241.4,38.884H1764.574c91.877,0,241.4-21.915,241.4-38.884C2005.978,1527.994,2005.164,1529.123,2003.619,1530.223Z" transform="translate(6 0.5)"></path><path class="cls-3" d="M1161.688,1504.1v4.249a11.879,11.879,0,0,1-11.871,11.872H850.168a11.876,11.876,0,0,1-11.857-11.872V1504.1H-6v22.777H2006V1504.1Z" transform="translate(6 0.5)"></path><rect class="cls-4" x="713.474" y="724.681" width="528.234" height="449.885" rx="12"></rect><line class="cls-5" x1="720.364" y1="1063.475" x2="1234.818" y2="1063.475"></line><line class="cls-5" x1="977.591" y1="1072" x2="977.591" y2="1169.778"></line><path class="cls-6" d="M1215.3,1043.5a25.392,25.392,0,0,0-35.633,1.784,25.4,25.4,0,0,0-33.364-.409L1127.476,996.6a25.77,25.77,0,0,0-32.4-14.98,25.4,25.4,0,0,0-15.143,33.141l47.355,121.452-13.043-6.088c-12.518-5.84-27.658-.691-33.751,11.483a25.367,25.367,0,0,0,11.921,34.358l75.363,36.019a42.474,42.474,0,0,0,33.613,1.244l64.2-25.031a42.357,42.357,0,0,0,24.049-54.787l-31.969-81.99A25.413,25.413,0,0,0,1215.3,1043.5Z" transform="translate(6 0.5)"></path></svg> 