<?xml version="1.0" encoding="UTF-8"?> <svg xmlns="http://www.w3.org/2000/svg" id="_ëîé_1" data-name="‘ëîé_1" viewBox="0 0 2012 2001"><defs><style>.cls-1{fill:none;stroke:#fff;stroke-miterlimit:10;}.cls-2,.cls-3{fill:#1b1c1e;}.cls-3{fill-rule:evenodd;}</style></defs><rect class="cls-1" x="6" y="0.5" width="2000" height="2000"></rect><path d="M1234.05,803.91l-38-38a8.93,8.93,0,0,0-12.65,0L1056.94,892.47a8.93,8.93,0,0,0,0,12.64l38,38a8.94,8.94,0,0,0,12.65,0l126.51-126.53a8.92,8.92,0,0,0,0-12.63ZM1101.22,924.1l-25.31-25.31,113.86-113.88,25.31,25.31Z" transform="translate(6 0.5)"></path><path d="M1265.69,734.31a9,9,0,0,0-8.08-2.44L1226,738.2a8.81,8.81,0,0,0-4.57,2.44l-31.63,31.63a8.94,8.94,0,0,0,0,12.65l25.3,25.3a8.94,8.94,0,0,0,12.65,0l31.63-31.62a9,9,0,0,0,2.44-4.58l6.33-31.63A8.91,8.91,0,0,0,1265.69,734.31Zm-20.9,33.55-23.38,23.39-12.66-12.65,23.39-23.4L1248,752Z" transform="translate(6 0.5)"></path><path d="M1120.19,943.07l-63.25-63.26a9.22,9.22,0,0,0-12.65,0l-38,38a8.94,8.94,0,0,0,0,12.64l63.26,63.26a8.94,8.94,0,0,0,12.65,0l38-38A8.92,8.92,0,0,0,1120.19,943.07Zm-44.28,31.63-50.61-50.61,25.31-25.31,50.61,50.61Z" transform="translate(6 0.5)"></path><path d="M1094.88,993.68l-88.55-88.56a8.93,8.93,0,0,0-12.65,0L753.29,1145.5a9,9,0,0,0,0,12.65l88.56,88.56a8.94,8.94,0,0,0,12.65,0l240.38-240.38A8.93,8.93,0,0,0,1094.88,993.68Zm-246.7,234.06-75.92-75.91L1000,924.09l75.91,75.91Z" transform="translate(6 0.5)"></path><path d="M881.11,1080.92a9,9,0,0,0-12.65,0l-64.58,64.58a8.94,8.94,0,0,0,0,12.65l18.11,18.1a8.94,8.94,0,0,0,12.64-12.64l-11.78-11.78,58.26-58.26A9,9,0,0,0,881.11,1080.92Z" transform="translate(6 0.5)"></path><path d="M822.87,1202.43l-25.31-25.3a8.92,8.92,0,0,0-12.64,0l-50.6,50.61a8.94,8.94,0,0,0,0,12.65l25.3,25.3a8.93,8.93,0,0,0,12.64,0l50.61-50.61a8.94,8.94,0,0,0,0-12.65Zm-56.93,44.29-12.65-12.66,38-38,12.66,12.65Z" transform="translate(6 0.5)"></path><path d="M1145.49,803.91l-50.6,50.6,50.6,50.6,50.61-50.6Zm-25.3,50.6,25.31-25.31,25.31,25.31-25.31,25.31Z" transform="translate(6 0.5)"></path><path class="cls-2" d="M1712.17,1555.56c-5.57,0-10.12,2.77-10.12,6.21v-.21h20.21v.21C1722.26,1558.33,1717.73,1555.56,1712.17,1555.56Z" transform="translate(6 0.5)"></path><path class="cls-2" d="M287.88,1555.56c-5.56,0-10.1,2.77-10.1,6.21v-.21H298v.21C298,1558.33,293.43,1555.56,287.88,1555.56Z" transform="translate(6 0.5)"></path><path class="cls-3" d="M1769.51,486.61a52.51,52.51,0,0,0-52.36-52.37H282.84a52.49,52.49,0,0,0-52.36,52.37V1496.29h1539Zm-60.82,943.54H288.18V506.76H1708.69Z" transform="translate(6 0.5)"></path><path class="cls-3" d="M2003.62,1530.22H-3.61c-1.55-1.1-2.36-2.23-2.36-3.34,0,17,149.54,38.88,241.4,38.88H1764.57c91.88,0,241.41-21.91,241.41-38.88C2006,1528,2005.16,1529.12,2003.62,1530.22Z" transform="translate(6 0.5)"></path><path class="cls-3" d="M1161.69,1504.1v4.25a11.88,11.88,0,0,1-11.87,11.87H850.17a11.88,11.88,0,0,1-11.86-11.87v-4.25H-6v22.78H2006V1504.1Z" transform="translate(6 0.5)"></path></svg> 