<svg xmlns="http://www.w3.org/2000/svg" viewBox="0 0 48 48"><defs><style>.cls-1{fill:#ff6c2c;}</style></defs><g id="Base_Icons" data-name="Base Icons"><path d="M41.03809,12.5H12.5a.5.5,0,0,1,0-1H41.03809a.5.5,0,0,1,0,1Z"/><path d="M39.26953,18.5H12.5a.5.5,0,0,1,0-1H39.26953a.5.5,0,0,1,0,1Z"/><path d="M42.5,24.5h-30a.5.5,0,0,1,0-1h30a.5.5,0,0,1,0,1Z"/><path d="M24.03809,30.5H12.5a.5.5,0,0,1,0-1H24.03809a.5.5,0,0,1,0,1Z"/><path d="M22.5,36.5h-10a.5.5,0,0,1,0-1h10a.5.5,0,0,1,0,1Z"/><path d="M7.75,14H6.25A1.25116,1.25116,0,0,1,5,12.75v-1.5A1.25116,1.25116,0,0,1,6.25,10h1.5A1.25116,1.25116,0,0,1,9,11.25v1.5A1.25116,1.25116,0,0,1,7.75,14Zm-1.5-3a.25048.25048,0,0,0-.25.25v1.5a.25048.25048,0,0,0,.25.25h1.5A.25048.25048,0,0,0,8,12.75v-1.5A.25048.25048,0,0,0,7.75,11Z"/><path d="M7.75,20H6.25A1.25116,1.25116,0,0,1,5,18.75v-1.5A1.25116,1.25116,0,0,1,6.25,16h1.5A1.25116,1.25116,0,0,1,9,17.25v1.5A1.25116,1.25116,0,0,1,7.75,20Zm-1.5-3a.25048.25048,0,0,0-.25.25v1.5a.25048.25048,0,0,0,.25.25h1.5A.25048.25048,0,0,0,8,18.75v-1.5A.25048.25048,0,0,0,7.75,17Z"/><path d="M7.75,26H6.25A1.25116,1.25116,0,0,1,5,24.75v-1.5A1.25116,1.25116,0,0,1,6.25,22h1.5A1.25116,1.25116,0,0,1,9,23.25v1.5A1.25116,1.25116,0,0,1,7.75,26Zm-1.5-3a.25048.25048,0,0,0-.25.25v1.5a.25048.25048,0,0,0,.25.25h1.5A.25048.25048,0,0,0,8,24.75v-1.5A.25048.25048,0,0,0,7.75,23Z"/><path d="M7.75,32H6.25A1.25116,1.25116,0,0,1,5,30.75v-1.5A1.25116,1.25116,0,0,1,6.25,28h1.5A1.25116,1.25116,0,0,1,9,29.25v1.5A1.25116,1.25116,0,0,1,7.75,32Zm-1.5-3a.25048.25048,0,0,0-.25.25v1.5a.25048.25048,0,0,0,.25.25h1.5A.25048.25048,0,0,0,8,30.75v-1.5A.25048.25048,0,0,0,7.75,29Z"/><path d="M7.75,38H6.25A1.25116,1.25116,0,0,1,5,36.75v-1.5A1.25116,1.25116,0,0,1,6.25,34h1.5A1.25116,1.25116,0,0,1,9,35.25v1.5A1.25116,1.25116,0,0,1,7.75,38Zm-1.5-3a.25048.25048,0,0,0-.25.25v1.5a.25048.25048,0,0,0,.25.25h1.5A.25048.25048,0,0,0,8,36.75v-1.5A.25048.25048,0,0,0,7.75,35Z"/></g><g id="Sub_Icons" data-name="Sub Icons"><path class="cls-1" d="M40.5,42h-12A1.50164,1.50164,0,0,1,27,40.5v-9A1.50164,1.50164,0,0,1,28.5,30h12A1.50164,1.50164,0,0,1,42,31.5v9A1.50164,1.50164,0,0,1,40.5,42Zm-12-11a.501.501,0,0,0-.5.5v9a.501.501,0,0,0,.5.5h12a.501.501,0,0,0,.5-.5v-9a.501.501,0,0,0-.5-.5Z"/><rect class="cls-1" x="30.5" y="33.5" width="2" height="2" rx="0.5"/><path class="cls-1" d="M38.5,35.5h-4a.5.5,0,0,1,0-1h4a.5.5,0,0,1,0,1Z"/><path class="cls-1" d="M38.5,38.5H31a.5.5,0,0,1,0-1h7.5a.5.5,0,0,1,0,1Z"/></g></svg>