<?xml version="1.0" encoding="utf-8"?>
<svg version="1.1" 
	viewBox="0 0 3931.6 889.4" style="enable-background:new 0 0 3931.6 889.4;" 
	xmlns="http://www.w3.org/2000/svg" xmlns:xlink="http://www.w3.org/1999/xlink" x="0px" y="0px" xml:space="preserve">
<style type="text/css">
	.st0{fill:#FFFFFF;}
</style>
<g>
	<g>
		<g>
			<path class="st0" d="M244.9,151.7c81.1,0,133.2,29.5,166.9,71.6l2.6-61.1h92.8c20.3,0,36.7,16.5,36.7,36.8l-1,415.6
				C542.4,782,429.7,889.4,250.7,889.4c-92.7,0-185.4-40.5-243.8-109.5l86.9-85.3c47.9,46.3,99.5,73.2,156.9,73.2
				c95.8,0,158.5-55.3,158.5-139.5v-17.4c-30.5,40.5-90.1,67.4-164.3,67.4C101.6,678.3,0,567.2,0,414.4
				C0,260.7,101.6,151.7,244.9,151.7 M135.9,413.9c0,80,56.3,143.2,136.9,143.2c79.5,0,137.4-63.2,137.4-143.2
				c0-80.6-57.9-141.1-137.4-141.1C192.2,272.8,135.9,332.3,135.9,413.9"/>
			<path class="st0" d="M674.8,487.6c30.5,47.4,82.1,77.9,133.2,77.9c40.5,0,67.7-15.8,67.7-44.2c0-26.9-22.5-36.3-84.1-50
				c-110.6-24.8-188.5-60-188.5-163.8c0-94.8,87.4-155.9,197.5-155.9c102.7,0,166.4,50.6,202.7,105.3l-86.4,71.1
				c-22.1-35.3-59.5-62.7-113.2-62.7c-43.7,0-73.7,15.3-73.7,40.5c0,27.4,32.1,36.3,94.8,51.6c112.7,27.4,184.3,63.7,184.3,163.8
				c0,95.3-91.6,156.9-199.6,156.9c-99.5,0-179.6-45.8-225.4-117.4L674.8,487.6z"/>
			<path class="st0" d="M1060.4,667.7V162.2h93.4c19.6,0,35.8,15.4,36.6,35l1.1,23.4c25.8-35.3,80.6-69,154.8-69
				c76.9,0,140.1,32.1,169.6,89.5c35.8-53.7,100.1-89.5,175.4-89.5c115.9,0,198.5,75.3,198.5,198.5v317.5h-135.3V384.9
				c0-70-43.2-108-101.1-108c-57.9,0-111.1,36.3-111.1,104.8v285.9h-135.3V384.9c0-70-43.7-108-100.6-108
				c-58.5,0-110.6,37.9-110.6,108v282.8H1060.4z"/>
			<path class="st0" d="M1945.1,878.4V162.2h94.9c19.6,0,35.8,15.5,36.6,35.1l1.1,26c33.2-42.1,85.3-71.6,166.4-71.6
				c143.2,0,244.9,111.6,244.9,265.4c0,152.7-101.6,261.2-244.9,261.2c-74.2,0-130.6-25.3-164.3-63.7v263.8H1945.1z M2214.3,557.1
				c75.3,1.2,137.1-59.9,139.4-135.2c2.5-84.3-54.5-149.1-136.8-149.1c-80,0-137.4,63.2-137.4,143.8
				C2079.4,495.7,2136.1,555.9,2214.3,557.1"/>
			<path class="st0" d="M2541.1,482.9V162.2h98.1c20.3,0,36.7,16.4,36.7,36.7v249.3c0,70,45.3,107.4,104.3,107.4
				c60.6,0,113.2-37.4,113.2-107.4V162.2h98.1c20.3,0,36.7,16.4,36.7,36.7v468.9h-128.5l-2.6-55.8c-26.3,35.8-80.6,69-156.9,69
				C2623.2,680.9,2541.1,604.5,2541.1,482.9"/>
			<path class="st0" d="M3082.6,667.7V162.2h93.4c19.6,0,35.8,15.4,36.6,35l1.1,23.4c26.3-35.3,80.6-69,155.9-69
				c116.9,0,199.6,76.9,199.6,198.5v317.5h-134.8V384.9c0-70-45.3-108-104.8-108c-59.5,0-112.2,37.9-112.2,108v282.8H3082.6z"/>
			<path class="st0" d="M3624,0h94.5c20.3,0,36.7,16.4,36.7,36.7v125.5h151.7v112.2h-148.5v208c0,52.7,29.5,75.8,74.8,75.8
				c25.3,0,57.4-5.8,85.8-17.4l12.6,112.2c-31.1,15.3-81.1,25.3-122.2,25.3c-111.1,0-185.9-57.4-185.9-176.4L3624,0z"/>
		</g>
	</g>
</g>
</svg>
