<?xml version="1.0" encoding="UTF-8"?> <svg xmlns="http://www.w3.org/2000/svg" id="Layer_1" data-name="Layer 1" viewBox="0 0 635.42 1279"><path d="M1022.626,496.383H760.245v-15.9a15.918,15.918,0,0,0-15.9-15.9h-15.9a15.918,15.918,0,0,0-15.9,15.9v15.9h-15.9v-15.9a15.918,15.918,0,0,0-15.9-15.9h-15.9a15.918,15.918,0,0,0-15.9,15.9v15.9h-15.9v-15.9a15.918,15.918,0,0,0-15.9-15.9h-15.9a15.918,15.918,0,0,0-15.9,15.9v15.9h-7.951a23.882,23.882,0,0,0-23.853,23.853V790.568a23.882,23.882,0,0,0,23.853,23.852h445.252a23.882,23.882,0,0,0,23.853-23.852V520.236A23.882,23.882,0,0,0,1022.626,496.383Zm-294.184-15.9h15.9l.007,47.706H728.442Zm-63.608,0h15.9l.008,47.706h-15.91Zm-63.607,0h15.9l.008,47.706h-15.91Zm-15.9,254.43h-15.9v-15.9h15.9ZM831.8,798.519H800v-15.9h31.8Zm79.509,0h-31.8v-15.9h31.8ZM1030.577,623.6h-15.9V607.7h15.9Zm0-31.8h-31.8v15.9H927.215v-31.8h-15.9v-15.9h87.46v15.9h31.8ZM800,703.107V591.794H911.313V703.107Zm214.675-143.116v-15.9h15.9v15.9Zm-15.9-31.8v15.9H895.411v31.8h-15.9v-15.9h-15.9v15.9h-15.9v-15.9H831.8v15.9H815.9v-15.9H800v15.9H784.1v15.9h-31.8v-31.8H672.785v15.9h63.608v31.8h47.7v15.9H720.491v-31.8H631.568a23.853,23.853,0,1,0,0,15.9h73.021v31.8H784.1v15.9H768.2v15.9h15.9v15.9H768.2v15.9h15.9v15.9H800v15.9h15.9v-15.9h15.9v15.9h15.9v-15.9h15.9v15.9h15.9v-15.9h15.9v15.9h15.9v-15.9h15.9v-15.9h15.9v-15.9h-15.9V671.3h15.9V655.4h-15.9V623.6h71.558v15.9h31.8V790.568a7.959,7.959,0,0,1-7.951,7.951H927.215v-31.8H863.607v31.8h-15.9v-31.8H784.1v31.8H577.374a7.959,7.959,0,0,1-7.951-7.951V750.813h15.9v15.9h63.607v-15.9h15.9v15.9h63.608v-15.9h15.9v-15.9h-15.9v-15.9h15.9v-15.9h-15.9v-15.9H664.834v15.9h-15.9v-15.9H585.325v15.9h-15.9V520.236a7.959,7.959,0,0,1,7.951-7.951h7.951v15.9a15.918,15.918,0,0,0,15.9,15.9h15.9a15.918,15.918,0,0,0,15.9-15.9v-15.9h15.9v15.9a15.918,15.918,0,0,0,15.9,15.9h15.9a15.918,15.918,0,0,0,15.9-15.9v-15.9h15.9v15.9a15.918,15.918,0,0,0,15.9,15.9h15.9a15.918,15.918,0,0,0,15.9-15.9v-15.9h262.381a7.959,7.959,0,0,1,7.951,7.951v7.951ZM617.129,599.745a7.951,7.951,0,1,1-7.951-7.951A7.959,7.959,0,0,1,617.129,599.745Zm-15.9,151.068V703.107h31.8v47.706Zm47.705-31.8h15.9v15.9h-15.9Zm31.8,31.8V703.107h31.8v47.706Z" transform="translate(-482.29)"></path><path d="M815.9,687.206h79.509V607.7H815.9ZM831.8,623.6h47.705V671.3H831.8Z" transform="translate(-482.29)"></path><path d="M640.981,559.991h15.9v15.9h-15.9Z" transform="translate(-482.29)"></path><circle cx="524.434" cy="774.666" r="7.951"></circle><circle cx="492.63" cy="774.666" r="7.951"></circle><circle cx="524.434" cy="742.862" r="7.951"></circle><circle cx="492.63" cy="742.862" r="7.951"></circle><path d="M1046.78,0H553.22a71,71,0,0,0-70.93,70.92V1208.08A71,71,0,0,0,553.22,1279h493.56a71,71,0,0,0,70.93-70.92V70.92A71,71,0,0,0,1046.78,0ZM1102,1208.08a55.24,55.24,0,0,1-55.18,55.18H553.22A55.24,55.24,0,0,1,498,1208.08V70.92a55.24,55.24,0,0,1,55.18-55.18h493.56A55.239,55.239,0,0,1,1102,70.92Z" transform="translate(-482.29)"></path><path d="M856.8,62.32H742.17a7.88,7.88,0,0,1,0-15.75H856.8a7.88,7.88,0,0,1,0,15.75Z" transform="translate(-482.29)"></path><path d="M711,62.32H688.8a7.88,7.88,0,0,1,0-15.75H711a7.88,7.88,0,1,1,.561,15.75Q711.281,62.331,711,62.32Z" transform="translate(-482.29)"></path><path d="M884.38,62.31a7.88,7.88,0,0,1-5.57-13.44,8.12,8.12,0,0,1,11.11,0,7.87,7.87,0,0,1-5.54,13.44Z" transform="translate(-482.29)"></path></svg> 