<?xml version="1.0" encoding="UTF-8"?> <svg xmlns="http://www.w3.org/2000/svg" id="Layer_1" data-name="Layer 1" viewBox="0 0 635.42 1279"><path d="M1029.434,456.305a9.411,9.411,0,0,0-8.816,2.539l-39.052,39.361H962.844l-20.609-21.353V457.869L980.727,418.8a9.42,9.42,0,0,0-3.7-15.536A94.271,94.271,0,0,0,855.937,516.96l-69.386,69.386-115.6-115.863v-22.74a9.418,9.418,0,0,0-4.574-8.077l-66.6-39.968a9.412,9.412,0,0,0-11.506,1.417l-26.641,26.636a9.428,9.428,0,0,0-1.416,11.51l39.96,66.6a9.417,9.417,0,0,0,8.073,4.573l22.733.008L746.587,626.31l-69.121,69.121A94.254,94.254,0,0,0,563.774,816.519a9.419,9.419,0,0,0,15.612,3.628l39.048-39.357h18.825l21.448,21.449v18.824L619.35,860.111a9.42,9.42,0,0,0,3.628,15.613A94.274,94.274,0,0,0,744.066,762.032l55.515-55.514L812.3,720.331l-5.836,5.832a9.421,9.421,0,0,0,13.324,13.324l5.284-5.284,119.315,129.6c.088.095.18.187.272.279a56.523,56.523,0,0,0,79.936-79.935c-.1-.1-.2-.188-.3-.28L894.492,664.784l5.225-5.225a9.42,9.42,0,1,0-13.324-13.321l-5.8,5.8-13.839-12.7,55.783-55.783a94.248,94.248,0,0,0,113.684-121.081A9.411,9.411,0,0,0,1029.434,456.305ZM641.553,494.374a9.323,9.323,0,0,0-6.664-2.671l-21.305-.008-33.433-55.819,16.239-16.238,55.723,33.44v21.305a9.417,9.417,0,0,0,2.753,6.653L773.231,599.67l-13.324,13.32Zm239.6,183.745L1011.4,797.606a37.685,37.685,0,0,1-53.3,53.288L838.4,720.868Zm-13.894-12.75L825.628,707l-12.716-13.813,40.512-40.516Zm79.682-97.462a75.287,75.287,0,0,1-24.076-3.926,9.435,9.435,0,0,0-9.666,2.267C865.979,613.472,764.223,715.224,726.754,752.7a9.417,9.417,0,0,0-2.267,9.67,75.432,75.432,0,0,1-71.432,99.43,77.087,77.087,0,0,1-8.213-.442l29.919-29.687a9.417,9.417,0,0,0,2.786-6.686V798.335a9.419,9.419,0,0,0-2.76-6.66l-26.968-26.968a9.419,9.419,0,0,0-6.66-2.76H614.512a9.432,9.432,0,0,0-6.69,2.786l-29.683,29.918a76.037,76.037,0,0,1-.442-8.213,75.434,75.434,0,0,1,99.434-71.432,9.412,9.412,0,0,0,9.666-2.266c.519-.515,186.317-186.317,186.449-186.449a9.419,9.419,0,0,0,2.267-9.666,75.424,75.424,0,0,1,71.428-99.43,76.982,76.982,0,0,1,8.459.467L926.1,447.4a9.415,9.415,0,0,0-2.708,6.608v26.648a9.409,9.409,0,0,0,2.642,6.542l26.026,26.968a9.413,9.413,0,0,0,6.778,2.877h26.647a9.412,9.412,0,0,0,6.686-2.785l29.684-29.915a76.293,76.293,0,0,1,.441,8.213A75.44,75.44,0,0,1,946.945,567.907Z" transform="translate(-482.29)"></path><path d="M1046.78,0H553.22a71,71,0,0,0-70.93,70.92V1208.08A71,71,0,0,0,553.22,1279h493.56a71,71,0,0,0,70.93-70.92V70.92A71,71,0,0,0,1046.78,0ZM1102,1208.08a55.24,55.24,0,0,1-55.18,55.18H553.22A55.24,55.24,0,0,1,498,1208.08V70.92a55.24,55.24,0,0,1,55.18-55.18h493.56A55.239,55.239,0,0,1,1102,70.92Z" transform="translate(-482.29)"></path><path d="M856.8,62.32H742.17a7.88,7.88,0,0,1,0-15.75H856.8a7.88,7.88,0,0,1,0,15.75Z" transform="translate(-482.29)"></path><path d="M711,62.32H688.8a7.88,7.88,0,0,1,0-15.75H711a7.88,7.88,0,1,1,.561,15.75Q711.281,62.331,711,62.32Z" transform="translate(-482.29)"></path><path d="M884.38,62.31a7.88,7.88,0,0,1-5.57-13.44,8.12,8.12,0,0,1,11.11,0,7.87,7.87,0,0,1-5.54,13.44Z" transform="translate(-482.29)"></path></svg> 