<?xml version="1.0" encoding="UTF-8"?> <svg xmlns="http://www.w3.org/2000/svg" id="Layer_1" data-name="Layer 1" viewBox="0 0 635.42 1279"><g id="Page-1"><g id="_022---SSD" data-name="022---SSD"><path id="Shape" d="M934.577,863.8H665.423a29.939,29.939,0,0,1-29.906-29.906V445.111a29.939,29.939,0,0,1,29.906-29.906H934.577a29.939,29.939,0,0,1,29.906,29.906V833.889A29.939,29.939,0,0,1,934.577,863.8ZM665.423,430.158a14.968,14.968,0,0,0-14.953,14.953V833.889a14.968,14.968,0,0,0,14.953,14.953H934.577a14.968,14.968,0,0,0,14.953-14.953V445.111a14.968,14.968,0,0,0-14.953-14.953Z" transform="translate(-482.29)"></path><path id="Shape-2" data-name="Shape" d="M852.336,475.017H717.758a14.969,14.969,0,0,1-14.953-14.953V422.681a7.477,7.477,0,0,1,7.477-7.476h149.53a7.477,7.477,0,0,1,7.477,7.476v37.383A14.969,14.969,0,0,1,852.336,475.017ZM717.758,430.158v29.906H852.336V430.158Z" transform="translate(-482.29)"></path><circle id="Oval" cx="190.609" cy="452.587" r="7.477"></circle><circle id="Oval-2" data-name="Oval" cx="444.811" cy="452.587" r="7.477"></circle><circle id="Oval-3" data-name="Oval" cx="190.609" cy="826.413" r="7.477"></circle><circle id="Oval-4" data-name="Oval" cx="444.811" cy="826.413" r="7.477"></circle><path id="Shape-3" data-name="Shape" d="M807.477,475.017A7.476,7.476,0,0,1,800,467.54V422.681a7.477,7.477,0,0,1,14.953,0V467.54A7.476,7.476,0,0,1,807.477,475.017Z" transform="translate(-482.29)"></path><path id="Shape-4" data-name="Shape" d="M897.2,811.46H702.805a37.427,37.427,0,0,1-37.382-37.383V564.735a37.427,37.427,0,0,1,37.382-37.383H897.2a37.427,37.427,0,0,1,37.382,37.383V774.077A37.427,37.427,0,0,1,897.2,811.46ZM702.805,542.3a22.454,22.454,0,0,0-22.429,22.43V774.077a22.454,22.454,0,0,0,22.429,22.43H897.2a22.455,22.455,0,0,0,22.429-22.43V564.735A22.455,22.455,0,0,0,897.2,542.3Z" transform="translate(-482.29)"></path><path id="Shape-5" data-name="Shape" d="M725.235,676.883A29.892,29.892,0,0,1,704.1,625.84a30.578,30.578,0,0,1,42.274,0,29.7,29.7,0,0,1,8.769,21.137,7.477,7.477,0,0,1-14.953,0,14.852,14.852,0,0,0-4.388-10.566,15.274,15.274,0,0,0-21.13,0,14.942,14.942,0,0,0,10.565,25.519,7.477,7.477,0,0,1,0,14.953Z" transform="translate(-482.29)"></path><path id="Shape-6" data-name="Shape" d="M725.235,721.742a29.94,29.94,0,0,1-29.906-29.906,7.477,7.477,0,1,1,14.953,0,14.941,14.941,0,1,0,14.953-14.953,7.477,7.477,0,1,1,0-14.953,29.906,29.906,0,0,1,0,59.812Z" transform="translate(-482.29)"></path><path id="Shape-7" data-name="Shape" d="M800,676.883a29.892,29.892,0,0,1-21.137-51.043,30.578,30.578,0,0,1,42.274,0,29.7,29.7,0,0,1,8.769,21.137,7.477,7.477,0,0,1-14.953,0,14.852,14.852,0,0,0-4.388-10.566,15.274,15.274,0,0,0-21.13,0A14.942,14.942,0,0,0,800,661.93a7.477,7.477,0,0,1,0,14.953Z" transform="translate(-482.29)"></path><path id="Shape-8" data-name="Shape" d="M800,721.742a29.941,29.941,0,0,1-29.906-29.906,7.477,7.477,0,1,1,14.953,0A14.941,14.941,0,1,0,800,676.883a7.477,7.477,0,1,1,0-14.953,29.906,29.906,0,0,1,0,59.812Z" transform="translate(-482.29)"></path><path id="Shape-9" data-name="Shape" d="M874.765,721.742H852.336a7.477,7.477,0,0,1-7.477-7.477V624.547a7.477,7.477,0,0,1,7.477-7.477h22.429a29.94,29.94,0,0,1,29.906,29.907v44.859A29.94,29.94,0,0,1,874.765,721.742Zm-14.953-14.953h14.953a14.969,14.969,0,0,0,14.953-14.953V646.977a14.969,14.969,0,0,0-14.953-14.954H859.812Z" transform="translate(-482.29)"></path></g></g><path d="M1046.78,0H553.22a71,71,0,0,0-70.93,70.92V1208.08A71,71,0,0,0,553.22,1279h493.56a71,71,0,0,0,70.93-70.92V70.92A71,71,0,0,0,1046.78,0ZM1102,1208.08a55.24,55.24,0,0,1-55.18,55.18H553.22A55.24,55.24,0,0,1,498,1208.08V70.92a55.24,55.24,0,0,1,55.18-55.18h493.56A55.239,55.239,0,0,1,1102,70.92Z" transform="translate(-482.29)"></path><path d="M856.8,62.32H742.17a7.88,7.88,0,0,1,0-15.75H856.8a7.88,7.88,0,0,1,0,15.75Z" transform="translate(-482.29)"></path><path d="M711,62.32H688.8a7.88,7.88,0,0,1,0-15.75H711a7.88,7.88,0,1,1,.561,15.75Q711.281,62.331,711,62.32Z" transform="translate(-482.29)"></path><path d="M884.38,62.31a7.88,7.88,0,0,1-5.57-13.44,8.12,8.12,0,0,1,11.11,0,7.87,7.87,0,0,1-5.54,13.44Z" transform="translate(-482.29)"></path></svg> 