<?xml version="1.0" encoding="UTF-8"?> <svg xmlns="http://www.w3.org/2000/svg" id="Layer_1" data-name="Layer 1" viewBox="0 0 635.42 1279"><defs><style>.cls-1{fill:#fff;}.cls-1,.cls-2{stroke:#231f20;stroke-miterlimit:10;stroke-width:14px;}.cls-2{fill:none;}</style></defs><polyline class="cls-1" points="171.561 585.244 110.642 640.207 112.406 697.713 84.678 724.799"></polyline><path class="cls-2" d="M578.729,786.07c6.2.293,11.584,5.03,14,10.746s2.286,12.214,1.133,18.312c-.547,2.893-1.317,5.83-.882,8.742.852,5.7,5.908,9.617,9.988,13.68s7.625,10.287,4.808,15.308" transform="translate(-482.29)"></path><path class="cls-2" d="M727.409,777.232c-3.263,5.753-9.224,9.321-14.54,13.257s-10.539,9.145-11.016,15.742c-.6,8.356,6.626,16.7,3.437,24.449-3.774-.319-6.741,4.706-4.641,7.856" transform="translate(-482.29)"></path><path class="cls-2" d="M759.051,483.408c-5.811.638-11.447-1.908-16.738-4.393l-25.741-12.087c-7.014-3.294-15.247-8.709-14.079-16.37" transform="translate(-482.29)"></path><path class="cls-2" d="M708.038,410.245a372.3,372.3,0,0,1,52.407,77.065c-19.573,7.426-32.388,25.986-43.112,43.963A696.008,696.008,0,0,0,678.1,607.3c-1.251,2.839-2.5,5.8-2.45,8.9.1,5.309,3.916,9.707,7.395,13.718,18.977,21.883,34.521,45.323,44.521,72.507a375.273,375.273,0,0,0-44.415,83.26c-1.8,4.72-3.506,9.969-1.756,14.707,1.214,3.286,3.909,5.763,6.482,8.139a420.765,420.765,0,0,1,63.048,73.387" transform="translate(-482.29)"></path><path class="cls-2" d="M582.723,403.914A372.278,372.278,0,0,1,635.13,480.98c-19.573,7.425-32.388,25.985-43.112,43.963a695.9,695.9,0,0,0-39.234,76.031c-1.251,2.839-2.5,5.8-2.449,8.9.095,5.309,3.916,9.707,7.394,13.718,18.977,21.883,34.521,45.323,44.521,72.508a375.244,375.244,0,0,0-44.415,83.259c-1.8,4.721-3.506,9.969-1.756,14.707,1.214,3.286,3.909,5.763,6.482,8.139a420.772,420.772,0,0,1,63.048,73.388" transform="translate(-482.29)"></path><path class="cls-2" d="M869.592,766.163c-3.263,5.753-9.224,9.321-14.539,13.258s-10.54,9.144-11.017,15.741c-.6,8.357,6.626,16.7,3.437,24.449-3.774-.318-6.741,4.706-4.64,7.857" transform="translate(-482.29)"></path><path class="cls-2" d="M901.234,472.339c-5.811.639-11.447-1.908-16.738-4.393l-25.741-12.087c-7.014-3.294-15.246-8.709-14.079-16.37" transform="translate(-482.29)"></path><path class="cls-2" d="M997.26,397.078a372.272,372.272,0,0,1,52.407,77.065c-19.572,7.425-32.387,25.986-43.112,43.963a696.269,696.269,0,0,0-39.234,76.032c-1.25,2.839-2.5,5.8-2.449,8.9.1,5.309,3.916,9.707,7.4,13.719,18.976,21.882,34.521,45.323,44.52,72.507a375.289,375.289,0,0,0-44.414,83.26c-1.8,4.72-3.507,9.969-1.756,14.707,1.214,3.286,3.908,5.762,6.482,8.139a420.808,420.808,0,0,1,63.048,73.387" transform="translate(-482.29)"></path><path class="cls-2" d="M851.959,414.293q36.123,46.048,72.032,92.265c1.33,1.712,2.712,3.548,2.929,5.705.342,3.382-2.22,6.283-4.572,8.736a404.871,404.871,0,0,0-60.261,81.065c-.94,1.664-1.9,3.54-1.461,5.4,1.02,4.319,7.964,4.2,10.03,8.128,1.04,1.977.5,4.4-.235,6.5a40.258,40.258,0,0,1-28.192,25.392" transform="translate(-482.29)"></path><path class="cls-2" d="M843.017,675.977a339.829,339.829,0,0,0,49.457,85.953,52.216,52.216,0,0,0-38.764,27.878,17.156,17.156,0,0,0-2.066,6.525c-.295,4.89,2.836,9.225,5.51,13.33,6.818,10.468,11.206,25.055,3.471,34.865-2.4,3.049-5.716,5.228-8.556,7.875a34.464,34.464,0,0,0-10.641,28.016" transform="translate(-482.29)"></path><path class="cls-2" d="M750.525,586.783a214.078,214.078,0,0,1-23.519,50.369c-2.31,3.626-4.793,7.25-8.221,9.845a20.209,20.209,0,0,1-19.3,2.609" transform="translate(-482.29)"></path><path class="cls-2" d="M944.938,629.453a166.944,166.944,0,0,0-1.292,27.679c.094,2.581.309,5.334,1.882,7.383,1.218,1.588,3.085,2.525,4.583,3.852,4.865,4.313,5.034,11.88,3.563,18.214s-4.209,12.539-3.841,19.03a7.1,7.1,0,0,0,1.656,4.688c1.255,1.262,3.139,1.606,4.9,1.863a190.921,190.921,0,0,0,28.454,2,13.257,13.257,0,0,0,4.76-.624,13.742,13.742,0,0,0,4.066-2.864l10.91-9.864" transform="translate(-482.29)"></path><path class="cls-2" d="M1024.335,520.74c-9.69,3.174-16.605,12.356-19.055,22.254s-.979,20.395,1.972,30.155c1.126,3.724,2.431,7.908.582,11.331s-6.086,4.629-9.44,6.632c-5.847,3.491-9.4,9.978-10.869,16.629s-1.1,13.552-.725,20.352" transform="translate(-482.29)"></path><path class="cls-2" d="M620.537,513.487c.391,11.661-15.037,17.3-19.263,28.174-2.311,5.947-.929,12.585-.459,18.948s-.5,13.707-5.75,17.331c-3.608,2.49-8.489,2.625-11.987,5.268-2.652,2-4.233,5.262-7.1,6.954-2.3,1.358-5.129,1.523-7.494,2.76-9.329,4.874-5.805,21.95-15.363,26.357" transform="translate(-482.29)"></path><path d="M1046.78,0H553.22a71,71,0,0,0-70.93,70.92V1208.08A71,71,0,0,0,553.22,1279h493.56a71,71,0,0,0,70.93-70.92V70.92A71,71,0,0,0,1046.78,0ZM1102,1208.08a55.24,55.24,0,0,1-55.18,55.18H553.22A55.24,55.24,0,0,1,498,1208.08V70.92a55.24,55.24,0,0,1,55.18-55.18h493.56A55.239,55.239,0,0,1,1102,70.92Z" transform="translate(-482.29)"></path><path d="M856.8,62.32H742.17a7.88,7.88,0,0,1,0-15.75H856.8a7.88,7.88,0,0,1,0,15.75Z" transform="translate(-482.29)"></path><path d="M711,62.32H688.8a7.88,7.88,0,0,1,0-15.75H711a7.88,7.88,0,1,1,.561,15.75Q711.281,62.331,711,62.32Z" transform="translate(-482.29)"></path><path d="M884.38,62.31a7.88,7.88,0,0,1-5.57-13.44,8.12,8.12,0,0,1,11.11,0,7.87,7.87,0,0,1-5.54,13.44Z" transform="translate(-482.29)"></path></svg> 