<?xml version="1.0" encoding="UTF-8"?> <svg xmlns="http://www.w3.org/2000/svg" id="Layer_1" data-name="Layer 1" viewBox="0 0 635.42 1279"><g id="Layer_1-2" data-name="Layer 1"><path d="M651.891,732.022h61.516a10.352,10.352,0,0,0,10.352-10.352h0V677.729a10.352,10.352,0,0,0-10.352-10.352H692.522l64.192-73.491,64.191,73.491H799.973a10.352,10.352,0,0,0-10.352,10.352h0V753.1H756.3a10.352,10.352,0,0,0-7.8,17.163l86.981,99.58a10.352,10.352,0,0,0,15.593,0l86.979-99.579a10.353,10.353,0,0,0-7.8-17.163H896.945l0-21.078h51.169a104.16,104.16,0,0,0,8.855-207.945,163.24,163.24,0,0,0-313.933,0,104.159,104.159,0,0,0,8.86,207.942Zm-.674-187.606a10.352,10.352,0,0,0,10-8.006,142.525,142.525,0,0,1,277.557,0,10.352,10.352,0,0,0,10,8.006,83.452,83.452,0,0,1-.675,166.9H886.579a10.353,10.353,0,0,0-10.349,10.355l.01,41.782A10.353,10.353,0,0,0,886.593,773.8h20.883L843.284,847.3,779.093,773.8h20.884a10.352,10.352,0,0,0,10.353-10.352h0V688.081H843.7a10.351,10.351,0,0,0,7.8-17.162l-86.988-99.58a10.35,10.35,0,0,0-14.605-.987,10.217,10.217,0,0,0-.987.987l-86.975,99.58a10.351,10.351,0,0,0,7.8,17.162h33.318v23.237H651.89a83.452,83.452,0,0,1-.675-166.9Z" transform="translate(-482.29)"></path></g><path d="M1046.78,0H553.22a71,71,0,0,0-70.93,70.92V1208.08A71,71,0,0,0,553.22,1279h493.56a71,71,0,0,0,70.93-70.92V70.92A71,71,0,0,0,1046.78,0ZM1102,1208.08a55.24,55.24,0,0,1-55.18,55.18H553.22A55.24,55.24,0,0,1,498,1208.08V70.92a55.24,55.24,0,0,1,55.18-55.18h493.56A55.239,55.239,0,0,1,1102,70.92Z" transform="translate(-482.29)"></path><path d="M856.8,62.32H742.17a7.88,7.88,0,0,1,0-15.75H856.8a7.88,7.88,0,0,1,0,15.75Z" transform="translate(-482.29)"></path><path d="M711,62.32H688.8a7.88,7.88,0,0,1,0-15.75H711a7.88,7.88,0,1,1,.561,15.75Q711.281,62.331,711,62.32Z" transform="translate(-482.29)"></path><path d="M884.38,62.31a7.88,7.88,0,0,1-5.57-13.44,8.12,8.12,0,0,1,11.11,0,7.87,7.87,0,0,1-5.54,13.44Z" transform="translate(-482.29)"></path></svg> 