<?xml version="1.0" encoding="UTF-8"?> <svg xmlns="http://www.w3.org/2000/svg" id="Layer_1" data-name="Layer 1" viewBox="0 0 635.41 1279"><path d="M813.5,784.19h-27a18.06,18.06,0,0,1-17.92-15.92l-2.88-22.62a112.52,112.52,0,0,1-16.57-6.86l-18,14a18,18,0,0,1-23.94-1.52l-19-19a17.93,17.93,0,0,1-1.47-23.86l14-18a110.27,110.27,0,0,1-6.86-16.56L671.19,671a18.11,18.11,0,0,1-15.88-18V626a18.06,18.06,0,0,1,15.92-17.92l22.62-2.88a112.52,112.52,0,0,1,6.86-16.57l-14-18a18,18,0,0,1,1.53-24l19-19a17.93,17.93,0,0,1,23.86-1.47l18,14a113.28,113.28,0,0,1,16.58-6.86l2.88-22.67a18.06,18.06,0,0,1,17.92-15.88h27a18.06,18.06,0,0,1,17.92,15.92l2.88,22.62a112.19,112.19,0,0,1,16.58,6.86l18-14a18,18,0,0,1,23.93,1.53l19,19a17.92,17.92,0,0,1,1.47,23.86l-14,18a110.7,110.7,0,0,1,6.86,16.56l22.67,2.89A18.07,18.07,0,0,1,944.69,626v27a18.06,18.06,0,0,1-15.92,17.92l-22.62,2.88a112.52,112.52,0,0,1-6.86,16.57l14,18a18,18,0,0,1-1.53,23.94l-19,19a17.92,17.92,0,0,1-23.86,1.47l-18-14a110.7,110.7,0,0,1-16.56,6.86l-2.89,22.67a18.07,18.07,0,0,1-17.93,15.88Zm-65-58.6a6.09,6.09,0,0,1,3,.76,101.24,101.24,0,0,0,21.39,8.87,6,6,0,0,1,4.31,5l3.38,26.53a6.09,6.09,0,0,0,6,5.35h27a6.07,6.07,0,0,0,6-5.29l3.39-26.58a6,6,0,0,1,4.31-5,100.75,100.75,0,0,0,21.39-8.88,6,6,0,0,1,6.64.51l21.1,16.4a5.93,5.93,0,0,0,7.89-.41l19.11-19.11a6,6,0,0,0,.47-8l-16.39-21.1a6,6,0,0,1-.51-6.63,101.68,101.68,0,0,0,8.87-21.39,6,6,0,0,1,5-4.32L927.28,659a6.11,6.11,0,0,0,5.35-6V626a6.07,6.07,0,0,0-5.29-6l-26.58-3.39a6,6,0,0,1-5-4.31A100.75,100.75,0,0,0,886.86,591a6,6,0,0,1,.51-6.64l16.4-21.1a5.91,5.91,0,0,0-.4-7.88l-19.11-19.11a5.92,5.92,0,0,0-8-.47l-21.1,16.4a6,6,0,0,1-6.64.5,100.9,100.9,0,0,0-21.39-8.87,6,6,0,0,1-4.32-5l-3.38-26.53a6.11,6.11,0,0,0-6-5.36h-27a6.07,6.07,0,0,0-6,5.29l-3.39,26.58a6.06,6.06,0,0,1-4.31,5,100.65,100.65,0,0,0-21.39,8.86,6.06,6.06,0,0,1-6.65-.5l-21.1-16.39a5.9,5.9,0,0,0-7.88.39l-19.11,19.13a5.93,5.93,0,0,0-.47,8l16.39,21.1a6,6,0,0,1,.51,6.64,100.2,100.2,0,0,0-8.87,21.39,6,6,0,0,1-5,4.31L672.72,620a6.09,6.09,0,0,0-5.35,6v27a6.07,6.07,0,0,0,5.29,6l26.58,3.39a6,6,0,0,1,5,4.31A100.75,100.75,0,0,0,713.14,688a6,6,0,0,1-.51,6.64l-16.4,21.1a5.91,5.91,0,0,0,.4,7.88l19.11,19.11a6,6,0,0,0,8,.47l21.1-16.4a6.21,6.21,0,0,1,3.71-1.25Z" transform="translate(-482.29)"></path><path d="M800,699.79a60.29,60.29,0,1,1,60.29-60.29A60.36,60.36,0,0,1,800,699.79Zm0-108.52a48.23,48.23,0,1,0,48.23,48.23A48.28,48.28,0,0,0,800,591.27Z" transform="translate(-482.29)"></path><path d="M1046.78,0H553.22a71,71,0,0,0-70.93,70.92V1208.08A71,71,0,0,0,553.22,1279h493.56a71,71,0,0,0,70.93-70.92V70.92A71,71,0,0,0,1046.78,0ZM1102,1208.08a55.24,55.24,0,0,1-55.18,55.18H553.22A55.24,55.24,0,0,1,498,1208.08V70.92a55.24,55.24,0,0,1,55.18-55.18h493.56A55.24,55.24,0,0,1,1102,70.92Z" transform="translate(-482.29)"></path><path d="M856.8,62.32H742.17a7.88,7.88,0,0,1,0-15.75H856.8a7.88,7.88,0,0,1,0,15.75Z" transform="translate(-482.29)"></path><path d="M711,62.32h-22.2a7.88,7.88,0,0,1,0-15.75H711a7.88,7.88,0,1,1,0,15.75Z" transform="translate(-482.29)"></path><path d="M884.38,62.31a7.88,7.88,0,0,1-5.57-13.44,8.12,8.12,0,0,1,11.11,0,7.87,7.87,0,0,1-5.54,13.44Z" transform="translate(-482.29)"></path></svg> 