<?xml version="1.0" encoding="UTF-8"?> <svg xmlns="http://www.w3.org/2000/svg" id="Layer_1" data-name="Layer 1" viewBox="0 0 635.41 1279"><path d="M738.66,659.61l-50.89-58.26,50.89-58.26a11.33,11.33,0,1,0-17.06-14.9L664.19,593.9a11.33,11.33,0,0,0,0,14.91l57.41,65.71a11.33,11.33,0,1,0,17.06-14.91Z" transform="translate(-482.29)"></path><path d="M856.27,590H672.72a11.33,11.33,0,0,0,0,22.66H856.27a59.68,59.68,0,1,1,0,119.35H687.83a11.33,11.33,0,0,0,0,22.66H856.27a82.34,82.34,0,1,0,0-164.67Z" transform="translate(-482.29)"></path><path d="M1046.78,0H553.22a71,71,0,0,0-70.93,70.92V1208.08A71,71,0,0,0,553.22,1279h493.56a71,71,0,0,0,70.93-70.92V70.92A71,71,0,0,0,1046.78,0ZM1102,1208.08a55.24,55.24,0,0,1-55.18,55.18H553.22A55.24,55.24,0,0,1,498,1208.08V70.92a55.24,55.24,0,0,1,55.18-55.18h493.56A55.24,55.24,0,0,1,1102,70.92Z" transform="translate(-482.29)"></path><path d="M856.8,62.32H742.17a7.88,7.88,0,0,1,0-15.75H856.8a7.88,7.88,0,0,1,0,15.75Z" transform="translate(-482.29)"></path><path d="M711,62.32h-22.2a7.88,7.88,0,0,1,0-15.75H711a7.88,7.88,0,1,1,0,15.75Z" transform="translate(-482.29)"></path><path d="M884.38,62.31a7.88,7.88,0,0,1-5.57-13.44,8.12,8.12,0,0,1,11.11,0,7.87,7.87,0,0,1-5.54,13.44Z" transform="translate(-482.29)"></path></svg> 