<?xml version="1.0" encoding="UTF-8"?> <svg xmlns="http://www.w3.org/2000/svg" id="Layer_1" data-name="Layer 1" viewBox="0 0 635.41 1279"><defs><style>.cls-1{fill:none;stroke:#1e1e1e;stroke-linecap:round;stroke-linejoin:round;stroke-width:10px;}</style></defs><path d="M1046.78,0H553.22a71,71,0,0,0-70.93,70.92V1208.08A71,71,0,0,0,553.22,1279h493.56a71,71,0,0,0,70.93-70.92V70.92A71,71,0,0,0,1046.78,0ZM1102,1208.08a55.24,55.24,0,0,1-55.18,55.18H553.22A55.24,55.24,0,0,1,498,1208.08V70.92a55.24,55.24,0,0,1,55.18-55.18h493.56A55.24,55.24,0,0,1,1102,70.92Z" transform="translate(-482.29)"></path><path class="cls-1" d="M518.5,137.35h0c0-25.9,24.37-47.09,54.16-47.09H684.92c29.79,0,54.17,21.19,54.17,47.09h0c0,25.91-24.38,47.1-54.17,47.1H572.66C542.87,184.45,518.5,163.26,518.5,137.35Z" transform="translate(-482.29)"></path><path d="M934,561.71a30.89,30.89,0,0,0-22.66-9.55H866.05v-.55a24.51,24.51,0,0,0-7.37-17.74,25,25,0,0,0-17.74-7.37H759.06a25.16,25.16,0,0,0-25.39,25.11v.55h-45A30.89,30.89,0,0,0,666,561.71a32.45,32.45,0,0,0-9.55,22.65V720.29A30.91,30.91,0,0,0,666,743a32.45,32.45,0,0,0,22.66,9.55H911.36A30.89,30.89,0,0,0,934,743a32.47,32.47,0,0,0,9.55-22.66V584.36A30.89,30.89,0,0,0,934,561.71Zm-4.64,158.58h-.28A17.69,17.69,0,0,1,911.36,738H688.64a17.69,17.69,0,0,1-17.74-17.74V584.36a17.7,17.7,0,0,1,17.74-17.74h52.68a7.34,7.34,0,0,0,7.37-7.37v-7.91a10.28,10.28,0,0,1,10.64-10.65h81.61a10.3,10.3,0,0,1,10.65,10.65v7.91a7.33,7.33,0,0,0,7.37,7.37h52.68a17.72,17.72,0,0,1,17.74,17.74Z" transform="translate(-482.29)"></path><path d="M800,585.18a67.26,67.26,0,0,0-47.49,19.66,66.56,66.56,0,0,0-19.65,47.49,67.16,67.16,0,0,0,114.63,47.49,66.56,66.56,0,0,0,19.65-47.49A67.11,67.11,0,0,0,800,585.18Zm37.12,104.54a52.7,52.7,0,0,1-74.24,0,52.18,52.18,0,0,1-15.29-37.12,53.35,53.35,0,0,1,15.29-37.12A52.17,52.17,0,0,1,800,600.2a53.32,53.32,0,0,1,37.12,15.28,52.2,52.2,0,0,1,15.29,37.12A51.09,51.09,0,0,1,837.12,689.72Z" transform="translate(-482.29)"></path><circle cx="414.87" cy="598.29" r="13.37"></circle></svg> 