<?xml version="1.0" encoding="UTF-8"?> <svg xmlns="http://www.w3.org/2000/svg" id="Layer_1" data-name="Layer 1" viewBox="0 0 635.41 1279"><path d="M960,472.23a7.28,7.28,0,0,0-7.27-7.28H647.27a7.28,7.28,0,0,0-7.27,7.28V806.77a7.28,7.28,0,0,0,7.27,7.28H952.73a7.28,7.28,0,0,0,7.27-7.28ZM945.45,755.86V799.5H795.74l53-53a7.27,7.27,0,0,0-10.29-10.28L775.17,799.5H752.1l96.68-96.68a7.27,7.27,0,0,0-10.29-10.28l-107,107h-77v-320H869.72l-53,53A7.27,7.27,0,0,0,826.78,543l.18-.18,63.32-63.32h23.07l-96.67,96.68a7.27,7.27,0,0,0,10.1,10.46l.18-.18,107-107h11.53Z" transform="translate(-482.29)"></path><path d="M1046.78,0H553.22a71,71,0,0,0-70.93,70.92V1208.08A71,71,0,0,0,553.22,1279h493.56a71,71,0,0,0,70.93-70.92V70.92A71,71,0,0,0,1046.78,0ZM1102,1208.08a55.24,55.24,0,0,1-55.18,55.18H553.22A55.24,55.24,0,0,1,498,1208.08V70.92a55.24,55.24,0,0,1,55.18-55.18h493.56A55.24,55.24,0,0,1,1102,70.92Z" transform="translate(-482.29)"></path><path d="M856.8,62.32H742.17a7.88,7.88,0,0,1,0-15.75H856.8a7.88,7.88,0,0,1,0,15.75Z" transform="translate(-482.29)"></path><path d="M711,62.32h-22.2a7.88,7.88,0,0,1,0-15.75H711a7.88,7.88,0,1,1,0,15.75Z" transform="translate(-482.29)"></path><path d="M884.38,62.31a7.88,7.88,0,0,1-5.57-13.44,8.12,8.12,0,0,1,11.11,0,7.87,7.87,0,0,1-5.54,13.44Z" transform="translate(-482.29)"></path></svg> 