<?xml version="1.0" encoding="UTF-8"?> <svg xmlns="http://www.w3.org/2000/svg" id="Layer_1" data-name="Layer 1" viewBox="0 0 635.41 1279"><path d="M831.29,506.25a22.94,22.94,0,0,0-23.59,1.14L709,573.21H671.53A18.37,18.37,0,0,0,653.26,590H648a32.26,32.26,0,0,0-32.21,32.22v34.52A32.25,32.25,0,0,0,648,689h5.29a18.37,18.37,0,0,0,18.27,16.81H709l98.73,65.82a23,23,0,0,0,35.72-19.11v-226A22.94,22.94,0,0,0,831.29,506.25ZM653.18,670.75H648a14,14,0,0,1-14-14V622.24a14,14,0,0,1,14-14h5.21Zm49.43,16.81H671.53a.13.13,0,0,1-.12-.13V591.57a.13.13,0,0,1,.12-.13h31.08ZM825.19,752.5a4.74,4.74,0,0,1-7.37,4l-97-64.66V587.21l97-64.65a4.74,4.74,0,0,1,7.37,3.94Z" transform="translate(-482.29)"></path><path d="M936.46,524a8.2,8.2,0,0,0-11.6,11.6,147.17,147.17,0,0,1,0,207.86,8.2,8.2,0,0,0,11.6,11.6,163.56,163.56,0,0,0,0-231.06Z" transform="translate(-482.29)"></path><path d="M891.41,569a8.2,8.2,0,1,0-11.6,11.6,83.39,83.39,0,0,1,0,117.76,8.2,8.2,0,1,0,11.6,11.6,99.78,99.78,0,0,0,0-141Z" transform="translate(-482.29)"></path><path d="M1046.78,0H553.22a71,71,0,0,0-70.93,70.92V1208.08A71,71,0,0,0,553.22,1279h493.56a71,71,0,0,0,70.93-70.92V70.92A71,71,0,0,0,1046.78,0ZM1102,1208.08a55.24,55.24,0,0,1-55.18,55.18H553.22A55.24,55.24,0,0,1,498,1208.08V70.92a55.24,55.24,0,0,1,55.18-55.18h493.56A55.24,55.24,0,0,1,1102,70.92Z" transform="translate(-482.29)"></path><path d="M856.8,62.32H742.17a7.88,7.88,0,0,1,0-15.75H856.8a7.88,7.88,0,0,1,0,15.75Z" transform="translate(-482.29)"></path><path d="M711,62.32h-22.2a7.88,7.88,0,0,1,0-15.75H711a7.88,7.88,0,1,1,0,15.75Z" transform="translate(-482.29)"></path><path d="M884.38,62.31a7.88,7.88,0,0,1-5.57-13.44,8.12,8.12,0,0,1,11.11,0,7.87,7.87,0,0,1-5.54,13.44Z" transform="translate(-482.29)"></path></svg> 