<?xml version="1.0" encoding="UTF-8"?> <svg xmlns="http://www.w3.org/2000/svg" id="Layer_1" data-name="Layer 1" viewBox="0 0 635.41 1279"><path d="M800,802.44A162.94,162.94,0,1,1,962.94,639.5,162.94,162.94,0,0,1,800,802.44Zm0-316.57A153.63,153.63,0,1,0,953.63,639.5,153.63,153.63,0,0,0,800,485.87Z" transform="translate(-482.29)"></path><path d="M803.54,721.58,799.93,713a307.35,307.35,0,0,0,65.94-38c55.87-42.18,79-89.63,79.24-90.1l8.38,4c-1,2-24.35,50-82,93.51a317.18,317.18,0,0,1-67.92,39.13Z" transform="translate(-482.29)"></path><path d="M873.3,679.17l-9.27-.93c13.87-135.92-38-190.58-38.49-191.12l6.66-6.52c2.25,2.32,55.4,58.34,41.1,198.57Z" transform="translate(-482.29)"></path><path d="M866.47,601.51c-91.89-74.12-183-63-183.86-62.85l-1.23-9.23c3.88-.5,96-11.76,190.94,64.85Z" transform="translate(-482.29)"></path><path d="M657,698.35l-9-2.55c1-3.58,26.26-88.24,150-144.4l3.84,8.48C682.33,614.13,657.23,697.51,657,698.35Z" transform="translate(-482.29)"></path><path d="M920.53,746.73A369.86,369.86,0,0,1,800,721.62a304.36,304.36,0,0,1-70.3-38.44l5.56-7.47A295.15,295.15,0,0,0,803.45,713a360,360,0,0,0,117.09,24.46Z" transform="translate(-482.29)"></path><path d="M764.51,797c-.46-.81-47.34-82.34-39.72-199.5l9.32.6c-7.47,114.35,38,193.41,38.42,194.19Z" transform="translate(-482.29)"></path><path d="M1046.78,0H553.22a71,71,0,0,0-70.93,70.92V1208.08A71,71,0,0,0,553.22,1279h493.56a71,71,0,0,0,70.93-70.92V70.92A71,71,0,0,0,1046.78,0ZM1102,1208.08a55.24,55.24,0,0,1-55.18,55.18H553.22A55.24,55.24,0,0,1,498,1208.08V70.92a55.24,55.24,0,0,1,55.18-55.18h493.56A55.24,55.24,0,0,1,1102,70.92Z" transform="translate(-482.29)"></path><path d="M856.8,62.32H742.17a7.88,7.88,0,0,1,0-15.75H856.8a7.88,7.88,0,0,1,0,15.75Z" transform="translate(-482.29)"></path><path d="M711,62.32h-22.2a7.88,7.88,0,0,1,0-15.75H711a7.88,7.88,0,1,1,0,15.75Z" transform="translate(-482.29)"></path><path d="M884.38,62.31a7.88,7.88,0,0,1-5.57-13.44,8.12,8.12,0,0,1,11.11,0,7.87,7.87,0,0,1-5.54,13.44Z" transform="translate(-482.29)"></path></svg> 