<?xml version="1.0" encoding="UTF-8"?> <svg xmlns="http://www.w3.org/2000/svg" id="Layer_1" data-name="Layer 1" viewBox="0 0 635.41 1279"><path d="M952.76,511.52,928,486.75a5.82,5.82,0,0,0-8.26,0l-82.57,82.57a5.83,5.83,0,0,0,0,8.25l24.77,24.77a5.84,5.84,0,0,0,8.26,0l82.57-82.58a5.82,5.82,0,0,0,0-8.24ZM866.07,590l-16.52-16.52,74.31-74.32,16.52,16.52Z" transform="translate(-482.29)"></path><path d="M973.4,466.09a5.82,5.82,0,0,0-5.27-1.59l-20.64,4.13a5.8,5.8,0,0,0-3,1.6l-20.64,20.64a5.83,5.83,0,0,0,0,8.25l16.52,16.52a5.83,5.83,0,0,0,8.25,0L969.28,495a5.86,5.86,0,0,0,1.59-3L975,471.36A5.82,5.82,0,0,0,973.4,466.09ZM959.77,488,944.5,503.26,936.24,495l15.27-15.27,10.33-2.07Z" transform="translate(-482.29)"></path><path d="M878.45,602.34l-41.29-41.28a6,6,0,0,0-8.25,0l-24.78,24.77a5.83,5.83,0,0,0,0,8.25l41.29,41.29a5.83,5.83,0,0,0,8.25,0l24.78-24.77A5.84,5.84,0,0,0,878.45,602.34ZM849.55,623l-33-33L833,573.44l33,33Z" transform="translate(-482.29)"></path><path d="M861.93,635.37l-57.8-57.79a5.82,5.82,0,0,0-8.26,0L639,734.47a5.83,5.83,0,0,0,0,8.25l57.8,57.8a5.84,5.84,0,0,0,8.26,0L861.93,643.63A5.84,5.84,0,0,0,861.93,635.37Zm-161,152.77-49.54-49.55L800,590l49.55,49.54Z" transform="translate(-482.29)"></path><path d="M722.4,692.32a5.81,5.81,0,0,0-8.25,0L672,734.47a5.83,5.83,0,0,0,0,8.25l11.82,11.81a5.83,5.83,0,0,0,8.25-8.25l-7.69-7.69,38-38A5.83,5.83,0,0,0,722.4,692.32Z" transform="translate(-482.29)"></path><path d="M684.39,771.62l-16.51-16.51a5.82,5.82,0,0,0-8.26,0l-33,33a5.83,5.83,0,0,0,0,8.25l16.51,16.51a5.83,5.83,0,0,0,8.25,0l33-33a5.83,5.83,0,0,0,0-8.25Zm-37.15,28.9L639,792.26l24.77-24.77,8.26,8.26Z" transform="translate(-482.29)"></path><path d="M895,511.52l-33,33,33,33,33-33Zm-16.51,33L895,528l16.52,16.52L895,561.06Z" transform="translate(-482.29)"></path><path d="M1046.78,0H553.22a71,71,0,0,0-70.93,70.92V1208.08A71,71,0,0,0,553.22,1279h493.56a71,71,0,0,0,70.93-70.92V70.92A71,71,0,0,0,1046.78,0ZM1102,1208.08a55.24,55.24,0,0,1-55.18,55.18H553.22A55.24,55.24,0,0,1,498,1208.08V70.92a55.24,55.24,0,0,1,55.18-55.18h493.56A55.24,55.24,0,0,1,1102,70.92Z" transform="translate(-482.29)"></path><path d="M856.8,62.32H742.17a7.88,7.88,0,0,1,0-15.75H856.8a7.88,7.88,0,0,1,0,15.75Z" transform="translate(-482.29)"></path><path d="M711,62.32h-22.2a7.88,7.88,0,0,1,0-15.75H711a7.88,7.88,0,1,1,0,15.75Z" transform="translate(-482.29)"></path><path d="M884.38,62.31a7.88,7.88,0,0,1-5.57-13.44,8.12,8.12,0,0,1,11.11,0,7.87,7.87,0,0,1-5.54,13.44Z" transform="translate(-482.29)"></path></svg> 