<?xml version="1.0" encoding="UTF-8"?> <svg xmlns="http://www.w3.org/2000/svg" id="Layer_1" data-name="Layer 1" viewBox="0 0 635.41 1279"><g id="_2_PT" data-name=" 2 PT"><path d="M738.74,859.39h-44a6.28,6.28,0,0,1-6.28-6.28v-289h12.57V846.83h31.41V564.11H745v289A6.29,6.29,0,0,1,738.74,859.39Z" transform="translate(-482.29)"></path><path d="M745,495H732.46V432.17H701.05V495H688.48V425.89a6.28,6.28,0,0,1,6.28-6.28h44a6.29,6.29,0,0,1,6.29,6.28Z" transform="translate(-482.29)"></path><path d="M751.31,570.39H682.2a18.85,18.85,0,0,1-18.85-18.85v-44a18.84,18.84,0,0,1,18.85-18.84h69.11a18.84,18.84,0,0,1,18.85,18.84v44A18.85,18.85,0,0,1,751.31,570.39ZM682.2,501.28a6.28,6.28,0,0,0-6.28,6.28v44a6.28,6.28,0,0,0,6.28,6.28h69.11a6.28,6.28,0,0,0,6.28-6.28v-44a6.28,6.28,0,0,0-6.28-6.28Z" transform="translate(-482.29)"></path><path d="M905.24,859.39h-44a6.29,6.29,0,0,1-6.29-6.28v-88h12.57v81.68H899V765.15h12.57v88A6.28,6.28,0,0,1,905.24,859.39Z" transform="translate(-482.29)"></path><path d="M911.52,696H899V432.17H867.54V696H855V425.89a6.29,6.29,0,0,1,6.29-6.28h44a6.28,6.28,0,0,1,6.28,6.28Z" transform="translate(-482.29)"></path><path d="M917.8,771.44H848.69a18.85,18.85,0,0,1-18.85-18.85h0v-44a18.85,18.85,0,0,1,18.85-18.85H917.8a18.85,18.85,0,0,1,18.85,18.85v44a18.85,18.85,0,0,1-18.85,18.85Zm-69.11-69.11a6.28,6.28,0,0,0-6.28,6.28v44a6.28,6.28,0,0,0,6.28,6.28H917.8a6.28,6.28,0,0,0,6.28-6.28v-44a6.28,6.28,0,0,0-6.28-6.28Z" transform="translate(-482.29)"></path></g><path d="M1046.78,0H553.22a71,71,0,0,0-70.93,70.92V1208.08A71,71,0,0,0,553.22,1279h493.56a71,71,0,0,0,70.93-70.92V70.92A71,71,0,0,0,1046.78,0ZM1102,1208.08a55.24,55.24,0,0,1-55.18,55.18H553.22A55.24,55.24,0,0,1,498,1208.08V70.92a55.24,55.24,0,0,1,55.18-55.18h493.56A55.24,55.24,0,0,1,1102,70.92Z" transform="translate(-482.29)"></path><path d="M856.8,62.32H742.17a7.88,7.88,0,0,1,0-15.75H856.8a7.88,7.88,0,0,1,0,15.75Z" transform="translate(-482.29)"></path><path d="M711,62.32h-22.2a7.88,7.88,0,0,1,0-15.75H711a7.88,7.88,0,1,1,0,15.75Z" transform="translate(-482.29)"></path><path d="M884.38,62.31a7.88,7.88,0,0,1-5.57-13.44,8.12,8.12,0,0,1,11.11,0,7.87,7.87,0,0,1-5.54,13.44Z" transform="translate(-482.29)"></path></svg> 