<?xml version="1.0" encoding="UTF-8"?> <svg xmlns="http://www.w3.org/2000/svg" id="Layer_1" data-name="Layer 1" viewBox="0 0 635.41 1279"><path d="M854.75,649.18a6.14,6.14,0,0,0-5.56-3.52H820.3l22.54-84.52a6.15,6.15,0,0,0-10.69-5.5l-86.1,104.55a6.15,6.15,0,0,0,4.75,10.06h28.89l-22.54,84.51a6.15,6.15,0,0,0,10.69,5.5l86.1-104.55A6.14,6.14,0,0,0,854.75,649.18Zm-78.42,81.43,17.31-64.92A6.14,6.14,0,0,0,787.7,658H763.83l59.84-72.66-17.31,64.92A6.14,6.14,0,0,0,812.3,658h23.87Z" transform="translate(-482.29)"></path><path d="M836.9,455H763.1a6.16,6.16,0,0,0-6.15,6.15v24.6a6.16,6.16,0,0,0,6.15,6.15h73.8a6.16,6.16,0,0,0,6.15-6.15v-24.6A6.16,6.16,0,0,0,836.9,455Zm-6.15,24.6h-61.5V467.3h61.5Z" transform="translate(-482.29)"></path><path d="M868.69,479.6H731.31a23.59,23.59,0,0,0-23.56,23.56V800.44A23.59,23.59,0,0,0,731.31,824H868.69a23.59,23.59,0,0,0,23.56-23.56V503.16A23.59,23.59,0,0,0,868.69,479.6Zm11.25,320.84a11.27,11.27,0,0,1-11.26,11.26H731.3A11.27,11.27,0,0,1,720,800.44V503.16A11.28,11.28,0,0,1,731.3,491.9H868.68a11.27,11.27,0,0,1,11.26,11.26Z" transform="translate(-482.29)"></path><path d="M1046.78,0H553.22a71,71,0,0,0-70.93,70.92V1208.08A71,71,0,0,0,553.22,1279h493.56a71,71,0,0,0,70.93-70.92V70.92A71,71,0,0,0,1046.78,0ZM1102,1208.08a55.24,55.24,0,0,1-55.18,55.18H553.22A55.24,55.24,0,0,1,498,1208.08V70.92a55.24,55.24,0,0,1,55.18-55.18h493.56A55.24,55.24,0,0,1,1102,70.92Z" transform="translate(-482.29)"></path><path d="M856.8,62.32H742.17a7.88,7.88,0,0,1,0-15.75H856.8a7.88,7.88,0,0,1,0,15.75Z" transform="translate(-482.29)"></path><path d="M711,62.32h-22.2a7.88,7.88,0,0,1,0-15.75H711a7.88,7.88,0,1,1,0,15.75Z" transform="translate(-482.29)"></path><path d="M884.38,62.31a7.88,7.88,0,0,1-5.57-13.44,8.12,8.12,0,0,1,11.11,0,7.87,7.87,0,0,1-5.54,13.44Z" transform="translate(-482.29)"></path></svg> 