<?xml version="1.0" encoding="UTF-8"?> <svg xmlns="http://www.w3.org/2000/svg" id="Layer_1" data-name="Layer 1" viewBox="0 0 635.41 1279"><path d="M775,703.15a35.33,35.33,0,0,0,0,50c22.09,22.09,60.36,6.6,60.36-25,0-31.18-38-47.37-60.36-25Zm25,38.45a13.44,13.44,0,0,1-13.45-13.45c0-12,14.57-17.89,23-9.5s2.52,23-9.51,23ZM965.61,612.44a11,11,0,0,1-15.38-1.86c-76.56-97.56-223.85-97.6-300.46,0a11,11,0,1,1-17.23-13.53c85.38-108.79,249.58-108.74,334.92,0A11,11,0,0,1,965.61,612.44Zm-43.55,16.38a11,11,0,1,1-17,13.85c-54.6-66.93-156.91-66.41-210.88.87a11,11,0,0,1-17.09-13.7c62.88-78.4,181.52-78.76,244.94-1Zm-52.2,29.47a11,11,0,0,1-15.49,15.5,76.84,76.84,0,0,0-108.74,0,11,11,0,0,1-15.49-15.5A98.75,98.75,0,0,1,869.86,658.29Z" transform="translate(-482.29)"></path><path d="M1046.78,0H553.22a71,71,0,0,0-70.93,70.92V1208.08A71,71,0,0,0,553.22,1279h493.56a71,71,0,0,0,70.93-70.92V70.92A71,71,0,0,0,1046.78,0ZM1102,1208.08a55.24,55.24,0,0,1-55.18,55.18H553.22A55.24,55.24,0,0,1,498,1208.08V70.92a55.24,55.24,0,0,1,55.18-55.18h493.56A55.24,55.24,0,0,1,1102,70.92Z" transform="translate(-482.29)"></path><path d="M856.8,62.32H742.17a7.88,7.88,0,0,1,0-15.75H856.8a7.88,7.88,0,0,1,0,15.75Z" transform="translate(-482.29)"></path><path d="M711,62.32h-22.2a7.88,7.88,0,0,1,0-15.75H711a7.88,7.88,0,1,1,0,15.75Z" transform="translate(-482.29)"></path><path d="M884.38,62.31a7.88,7.88,0,0,1-5.57-13.44,8.12,8.12,0,0,1,11.11,0,7.87,7.87,0,0,1-5.54,13.44Z" transform="translate(-482.29)"></path></svg> 