<?xml version="1.0" encoding="UTF-8"?> <svg xmlns="http://www.w3.org/2000/svg" id="Layer_1" data-name="Layer 1" viewBox="0 0 635.41 1279"><path d="M821.19,504.07l-98.81,73.37h-79.8A11.61,11.61,0,0,0,631,589.05V690a11.61,11.61,0,0,0,11.61,11.61h79.8l98.81,73.37a11.61,11.61,0,0,0,18.53-9.32V513.39A11.62,11.62,0,0,0,821.19,504.07ZM714.61,678.34H654.2V600.67h60.41ZM816.5,742.52h0l-78.67-58.41V594.9l78.67-58.42Z" transform="translate(-482.29)"></path><path d="M944.18,533.89a11.61,11.61,0,0,0-16.42,0L876,585.66a11.61,11.61,0,1,0,16.43,16.42l51.76-51.77A11.6,11.6,0,0,0,944.18,533.89Z" transform="translate(-482.29)"></path><path d="M957.42,627.89H884.21a11.61,11.61,0,1,0,0,23.22h73.21a11.61,11.61,0,0,0,0-23.22Z" transform="translate(-482.29)"></path><path d="M944.18,728.69l-51.76-51.76A11.61,11.61,0,1,0,876,693.35l51.77,51.76a11.61,11.61,0,1,0,16.42-16.42Z" transform="translate(-482.29)"></path><path d="M1046.78,0H553.22a71,71,0,0,0-70.93,70.92V1208.08A71,71,0,0,0,553.22,1279h493.56a71,71,0,0,0,70.93-70.92V70.92A71,71,0,0,0,1046.78,0ZM1102,1208.08a55.24,55.24,0,0,1-55.18,55.18H553.22A55.24,55.24,0,0,1,498,1208.08V70.92a55.24,55.24,0,0,1,55.18-55.18h493.56A55.24,55.24,0,0,1,1102,70.92Z" transform="translate(-482.29)"></path><path d="M856.8,62.32H742.17a7.88,7.88,0,0,1,0-15.75H856.8a7.88,7.88,0,0,1,0,15.75Z" transform="translate(-482.29)"></path><path d="M711,62.32h-22.2a7.88,7.88,0,0,1,0-15.75H711a7.88,7.88,0,1,1,0,15.75Z" transform="translate(-482.29)"></path><path d="M884.38,62.31a7.88,7.88,0,0,1-5.57-13.44,8.12,8.12,0,0,1,11.11,0,7.87,7.87,0,0,1-5.54,13.44Z" transform="translate(-482.29)"></path></svg> 