<?xml version="1.0" encoding="UTF-8"?> <svg xmlns="http://www.w3.org/2000/svg" id="Layer_1" data-name="Layer 1" viewBox="0 0 635.41 1279"><path d="M853.84,518.64a13.34,13.34,0,0,0-9.53,24.93,124.09,124.09,0,1,1-88.63,0,13.34,13.34,0,1,0-9.53-24.93,150.78,150.78,0,1,0,107.69,0Z" transform="translate(-482.29)"></path><path d="M800,468.71a13.34,13.34,0,0,0-13.34,13.34V612.71a13.34,13.34,0,1,0,26.68,0V482.05A13.34,13.34,0,0,0,800,468.71Z" transform="translate(-482.29)"></path><path d="M1046.78,0H553.22a71,71,0,0,0-70.93,70.92V1208.08A71,71,0,0,0,553.22,1279h493.56a71,71,0,0,0,70.93-70.92V70.92A71,71,0,0,0,1046.78,0ZM1102,1208.08a55.24,55.24,0,0,1-55.18,55.18H553.22A55.24,55.24,0,0,1,498,1208.08V70.92a55.24,55.24,0,0,1,55.18-55.18h493.56A55.24,55.24,0,0,1,1102,70.92Z" transform="translate(-482.29)"></path><path d="M856.8,62.32H742.17a7.88,7.88,0,0,1,0-15.75H856.8a7.88,7.88,0,0,1,0,15.75Z" transform="translate(-482.29)"></path><path d="M711,62.32h-22.2a7.88,7.88,0,0,1,0-15.75H711a7.88,7.88,0,1,1,0,15.75Z" transform="translate(-482.29)"></path><path d="M884.38,62.31a7.88,7.88,0,0,1-5.57-13.44,8.12,8.12,0,0,1,11.11,0,7.87,7.87,0,0,1-5.54,13.44Z" transform="translate(-482.29)"></path></svg> 