<?xml version="1.0" encoding="UTF-8"?> <svg xmlns="http://www.w3.org/2000/svg" id="Layer_1" data-name="Layer 1" viewBox="0 0 635.41 1279"><defs><style>.cls-1{fill:none;stroke:#000;stroke-miterlimit:10;stroke-width:3px;}</style></defs><path d="M1046.78,0H553.22a71,71,0,0,0-70.93,70.92V1208.08A71,71,0,0,0,553.22,1279h493.56a71,71,0,0,0,70.93-70.92V70.92A71,71,0,0,0,1046.78,0ZM1102,1208.08a55.24,55.24,0,0,1-55.18,55.18H553.22A55.24,55.24,0,0,1,498,1208.08V70.92a55.24,55.24,0,0,1,55.18-55.18h493.56A55.24,55.24,0,0,1,1102,70.92Z" transform="translate(-482.29)"></path><polyline class="cls-1" points="226.03 340.54 306.68 493.24 238.93 656.71 306.68 798.65 248.07 938.46"></polyline><polyline class="cls-1" points="277.38 340.54 358.03 493.24 290.28 656.71 358.03 798.65 299.42 938.46"></polyline><polyline class="cls-1" points="328.73 340.54 409.38 493.24 341.63 656.71 409.38 798.65 350.77 938.46"></polyline></svg> 