<?xml version="1.0" encoding="UTF-8"?> <svg xmlns="http://www.w3.org/2000/svg" id="Layer_1" data-name="Layer 1" viewBox="0 0 635.41 1279"><path d="M910.32,699.89H871.45a72.07,72.07,0,0,0-24.83-45l31.62-50.11c34.62-54.85-4.82-136.41-78.24-136.41-71.47,0-113.25,78.63-78.34,136.26l31.72,50.25a71.7,71.7,0,0,0-24.84,45H689.68a10,10,0,1,0,0,20.06h38.86A72.32,72.32,0,0,0,790,781.38v19.26a10,10,0,0,0,20.06,0V781.38A72.32,72.32,0,0,0,871.46,720h38.86a10,10,0,0,0,0-20.06ZM800,488.39c54.63,0,88,59.32,61.18,105.8L800,691.13l-61.18-96.94C711.93,547.61,745.47,488.39,800,488.39ZM800,762a52.11,52.11,0,0,1-35.77-90c6.12,9.71,21.95,34.78,27.29,43.24a10,10,0,0,0,17,0l27.29-43.23c34,32.12,11.39,90-35.77,90Z" transform="translate(-482.29)"></path><path d="M840.12,559.3A40.15,40.15,0,1,0,800,599.45,40.19,40.19,0,0,0,840.12,559.3ZM800,579.39a20.09,20.09,0,1,1,20.09-20.09A20.12,20.12,0,0,1,800,579.39Z" transform="translate(-482.29)"></path><path d="M1046.78,0H553.22a71,71,0,0,0-70.93,70.92V1208.08A71,71,0,0,0,553.22,1279h493.56a71,71,0,0,0,70.93-70.92V70.92A71,71,0,0,0,1046.78,0ZM1102,1208.08a55.24,55.24,0,0,1-55.18,55.18H553.22A55.24,55.24,0,0,1,498,1208.08V70.92a55.24,55.24,0,0,1,55.18-55.18h493.56A55.24,55.24,0,0,1,1102,70.92Z" transform="translate(-482.29)"></path><path d="M856.8,62.32H742.17a7.88,7.88,0,0,1,0-15.75H856.8a7.88,7.88,0,0,1,0,15.75Z" transform="translate(-482.29)"></path><path d="M711,62.32h-22.2a7.88,7.88,0,0,1,0-15.75H711a7.88,7.88,0,1,1,0,15.75Z" transform="translate(-482.29)"></path><path d="M884.38,62.31a7.88,7.88,0,0,1-5.57-13.44,8.12,8.12,0,0,1,11.11,0,7.87,7.87,0,0,1-5.54,13.44Z" transform="translate(-482.29)"></path></svg> 