<?xml version="1.0" encoding="UTF-8"?> <svg xmlns="http://www.w3.org/2000/svg" id="Layer_1" data-name="Layer 1" viewBox="0 0 635.41 1279"><path d="M800,441c-42.83,0-77.69,36.23-77.69,80.76V639.5c0,44.54,34.86,80.77,77.69,80.77S877.69,684,877.69,639.5V521.73C877.69,477.2,842.83,441,800,441Zm0,262c-30.52,0-55.77-23.94-59.8-54.88H859.79C855.77,679.08,830.52,703,800,703Zm60.42-72.14H739.58V521.73c0-35,27.1-63.5,60.42-63.5s60.42,28.48,60.42,63.5Z" transform="translate(-482.29)"></path><path d="M920.85,596.34a8.63,8.63,0,0,0-8.63,8.63V639.5a112.22,112.22,0,0,1-224.44,0V605a8.63,8.63,0,1,0-17.26,0V639.5c0,68.48,53.48,124.57,120.85,129v52.23H748.21a8.63,8.63,0,1,0,0,17.26H851.79a8.63,8.63,0,1,0,0-17.26H808.63V768.54C876,764.07,929.48,708,929.48,639.5V605A8.64,8.64,0,0,0,920.85,596.34Z" transform="translate(-482.29)"></path><path d="M1046.78,0H553.22a71,71,0,0,0-70.93,70.92V1208.08A71,71,0,0,0,553.22,1279h493.56a71,71,0,0,0,70.93-70.92V70.92A71,71,0,0,0,1046.78,0ZM1102,1208.08a55.24,55.24,0,0,1-55.18,55.18H553.22A55.24,55.24,0,0,1,498,1208.08V70.92a55.24,55.24,0,0,1,55.18-55.18h493.56A55.24,55.24,0,0,1,1102,70.92Z" transform="translate(-482.29)"></path><path d="M856.8,62.32H742.17a7.88,7.88,0,0,1,0-15.75H856.8a7.88,7.88,0,0,1,0,15.75Z" transform="translate(-482.29)"></path><path d="M711,62.32h-22.2a7.88,7.88,0,0,1,0-15.75H711a7.88,7.88,0,1,1,0,15.75Z" transform="translate(-482.29)"></path><path d="M884.38,62.31a7.88,7.88,0,0,1-5.57-13.44,8.12,8.12,0,0,1,11.11,0,7.87,7.87,0,0,1-5.54,13.44Z" transform="translate(-482.29)"></path></svg> 