<?xml version="1.0" encoding="UTF-8"?> <svg xmlns="http://www.w3.org/2000/svg" id="Layer_1" data-name="Layer 1" viewBox="0 0 635.41 1279"><path d="M716.74,723.82h-11.4a8.61,8.61,0,0,1-8.61-8.6V592.56a8.62,8.62,0,0,1,8.61-8.61H759.1a7,7,0,1,0,0-14H705.34a22.67,22.67,0,0,0-22.65,22.65V715.22a22.66,22.66,0,0,0,22.65,22.65h11.4a7,7,0,0,0,0-14Z" transform="translate(-482.29)"></path><path d="M894.66,569.91h-11.4a7,7,0,1,0,0,14h11.4a8.62,8.62,0,0,1,8.61,8.61V715.22a8.61,8.61,0,0,1-8.61,8.6H844.41a7,7,0,1,0,0,14h50.25a22.66,22.66,0,0,0,22.65-22.64V592.56A22.67,22.67,0,0,0,894.66,569.91Z" transform="translate(-482.29)"></path><path d="M712.92,565.14a7,7,0,0,0,7-7v-1.49a1.46,1.46,0,0,1,1.46-1.46h11.31a1.46,1.46,0,0,1,1.46,1.46v1.49a7,7,0,1,0,14,0v-1.49a15.51,15.51,0,0,0-15.49-15.5H721.4a15.52,15.52,0,0,0-15.51,15.5v1.49A7,7,0,0,0,712.92,565.14Z" transform="translate(-482.29)"></path><path d="M878.12,653.89a67.29,67.29,0,1,0-67.29,67.3A67.37,67.37,0,0,0,878.12,653.89Zm-67.29,53.24a53.24,53.24,0,1,1,53.26-53.24A53.29,53.29,0,0,1,810.83,707.13Z" transform="translate(-482.29)"></path><path d="M810.83,609.42a44.47,44.47,0,1,0,44.47,44.47A44.52,44.52,0,0,0,810.83,609.42Zm0,74.9a30.43,30.43,0,1,1,30.42-30.43A30.46,30.46,0,0,1,810.83,684.32Z" transform="translate(-482.29)"></path><path d="M1046.78,0H553.22a71,71,0,0,0-70.93,70.92V1208.08A71,71,0,0,0,553.22,1279h493.56a71,71,0,0,0,70.93-70.92V70.92A71,71,0,0,0,1046.78,0ZM1102,1208.08a55.24,55.24,0,0,1-55.18,55.18H553.22A55.24,55.24,0,0,1,498,1208.08V70.92a55.24,55.24,0,0,1,55.18-55.18h493.56A55.24,55.24,0,0,1,1102,70.92Z" transform="translate(-482.29)"></path><path d="M856.8,62.32H742.17a7.88,7.88,0,0,1,0-15.75H856.8a7.88,7.88,0,0,1,0,15.75Z" transform="translate(-482.29)"></path><path d="M711,62.32h-22.2a7.88,7.88,0,0,1,0-15.75H711a7.88,7.88,0,1,1,0,15.75Z" transform="translate(-482.29)"></path><path d="M884.38,62.31a7.88,7.88,0,0,1-5.57-13.44,8.12,8.12,0,0,1,11.11,0,7.87,7.87,0,0,1-5.54,13.44Z" transform="translate(-482.29)"></path></svg> 