<?xml version="1.0" encoding="UTF-8"?> <svg xmlns="http://www.w3.org/2000/svg" id="Layer_1" data-name="Layer 1" viewBox="0 0 635.41 1279"><path d="M874.22,491.07H762.89a6.25,6.25,0,0,0-4.38,1.8l-61.84,61.85a6.18,6.18,0,0,0-1.81,4.38V757a31,31,0,0,0,30.92,30.92H874.22A31,31,0,0,0,905.14,757V522A31,31,0,0,0,874.22,491.07ZM892.77,757a18.57,18.57,0,0,1-18.55,18.55H725.78A18.57,18.57,0,0,1,707.23,757V561.66l58.22-58.22H874.22A18.57,18.57,0,0,1,892.77,522Z" transform="translate(-482.29)"></path><path d="M849.48,590h-99A18.58,18.58,0,0,0,732,608.58V732.27a18.58,18.58,0,0,0,18.55,18.56h99A18.58,18.58,0,0,0,868,732.27V608.58A18.58,18.58,0,0,0,849.48,590Zm6.18,142.25a6.19,6.19,0,0,1-6.18,6.19h-99a6.19,6.19,0,0,1-6.18-6.19V608.58a6.19,6.19,0,0,1,6.18-6.19h99a6.19,6.19,0,0,1,6.18,6.19V732.27Z" transform="translate(-482.29)"></path><path d="M861.85,664.24H738.15a6.19,6.19,0,0,0,0,12.37h123.7a6.19,6.19,0,0,0,0-12.37Z" transform="translate(-482.29)"></path><path d="M775.26,590a6.19,6.19,0,0,0-6.18,6.19v37.11a6.19,6.19,0,0,0,12.37,0V596.21A6.19,6.19,0,0,0,775.26,590Z" transform="translate(-482.29)"></path><path d="M800,627.13a6.19,6.19,0,0,0-6.18,6.19v37.1a6.19,6.19,0,1,0,12.37,0v-37.1A6.19,6.19,0,0,0,800,627.13Z" transform="translate(-482.29)"></path><path d="M824.74,590a6.19,6.19,0,0,0-6.19,6.19v37.11a6.19,6.19,0,0,0,12.37,0V596.21A6.19,6.19,0,0,0,824.74,590Z" transform="translate(-482.29)"></path><path d="M800,701.35a6.18,6.18,0,0,0-6.18,6.18v37.11a6.19,6.19,0,1,0,12.37,0V707.53A6.19,6.19,0,0,0,800,701.35Z" transform="translate(-482.29)"></path><path d="M775.26,664.24a6.18,6.18,0,0,0-6.18,6.18v37.11a6.19,6.19,0,1,0,12.37,0V670.42A6.19,6.19,0,0,0,775.26,664.24Z" transform="translate(-482.29)"></path><path d="M824.74,664.24a6.19,6.19,0,0,0-6.19,6.18v37.11a6.19,6.19,0,1,0,12.37,0V670.42A6.18,6.18,0,0,0,824.74,664.24Z" transform="translate(-482.29)"></path><path d="M1046.78,0H553.22a71,71,0,0,0-70.93,70.92V1208.08A71,71,0,0,0,553.22,1279h493.56a71,71,0,0,0,70.93-70.92V70.92A71,71,0,0,0,1046.78,0ZM1102,1208.08a55.24,55.24,0,0,1-55.18,55.18H553.22A55.24,55.24,0,0,1,498,1208.08V70.92a55.24,55.24,0,0,1,55.18-55.18h493.56A55.24,55.24,0,0,1,1102,70.92Z" transform="translate(-482.29)"></path><path d="M856.8,62.32H742.17a7.88,7.88,0,0,1,0-15.75H856.8a7.88,7.88,0,0,1,0,15.75Z" transform="translate(-482.29)"></path><path d="M711,62.32h-22.2a7.88,7.88,0,0,1,0-15.75H711a7.88,7.88,0,1,1,0,15.75Z" transform="translate(-482.29)"></path><path d="M884.38,62.31a7.88,7.88,0,0,1-5.57-13.44,8.12,8.12,0,0,1,11.11,0,7.87,7.87,0,0,1-5.54,13.44Z" transform="translate(-482.29)"></path></svg> 