<?xml version="1.0" encoding="UTF-8"?> <svg xmlns="http://www.w3.org/2000/svg" id="Layer_1" data-name="Layer 1" viewBox="0 0 635.41 1279"><path d="M1046.78,0H553.22a71,71,0,0,0-70.93,70.92V1208.08A71,71,0,0,0,553.22,1279h493.56a71,71,0,0,0,70.93-70.92V70.92A71,71,0,0,0,1046.78,0ZM1102,1208.08a55.24,55.24,0,0,1-55.18,55.18H553.22A55.24,55.24,0,0,1,498,1208.08V70.92a55.24,55.24,0,0,1,55.18-55.18h493.56A55.24,55.24,0,0,1,1102,70.92Z" transform="translate(-482.29)"></path><path d="M832,756.83v21.34H768V756.83H746.67v32a10.67,10.67,0,0,0,10.66,10.67h85.34a10.67,10.67,0,0,0,10.66-10.67v-32Z" transform="translate(-482.29)"></path><rect x="307.04" y="788.83" width="21.33" height="106.67"></rect><path d="M736,383.5H714.67a21.33,21.33,0,0,0-21.34,21.33v96h21.34v-96H736v96h21.33v-96A21.33,21.33,0,0,0,736,383.5Z" transform="translate(-482.29)"></path><path d="M885.33,383.5H864a21.33,21.33,0,0,0-21.33,21.33v96H864v-96h21.33v96h21.34v-96A21.34,21.34,0,0,0,885.33,383.5Z" transform="translate(-482.29)"></path><path d="M704,682.17V660.83H682.67v21.34c0,.29,0,.59,0,.88A20.89,20.89,0,0,0,704,703.5h21.33V682.17Z" transform="translate(-482.29)"></path><path d="M970.67,490.17H629.33A21.33,21.33,0,0,0,608,511.5v21.33a21.33,21.33,0,0,0,21.33,21.34H640v160a32,32,0,0,0,32,32H928a32,32,0,0,0,32-32v-160h10.67A21.33,21.33,0,0,0,992,532.83V511.5A21.33,21.33,0,0,0,970.67,490.17Zm0,42.66H949.33a10.67,10.67,0,0,0-10.66,10.67V714.17A10.67,10.67,0,0,1,928,724.83H672a10.67,10.67,0,0,1-10.67-10.66V543.5a10.67,10.67,0,0,0-10.66-10.67H629.33V511.5H970.67v21.33Z" transform="translate(-482.29)"></path><rect x="200.37" y="532.83" width="234.67" height="21.33"></rect></svg> 