<?xml version="1.0" encoding="UTF-8"?> <svg xmlns="http://www.w3.org/2000/svg" id="Layer_1" data-name="Layer 1" viewBox="0 0 635.41 1279"><path d="M753.33,821.32a13,13,0,0,1-8.69-3.32l-43.29-39a13,13,0,0,1-.48-18.84L735,726.09,700.87,692a13,13,0,0,1,0-18.38L735,639.49,700.87,605.4a13,13,0,0,1,0-18.37L735,552.91l-34.11-34.09a13,13,0,0,1-3.81-9.52,13.09,13.09,0,0,1,4.29-9.32l43.29-39A13,13,0,1,1,762,480.35l-33.13,29.8,33.61,33.6a13,13,0,0,1,0,18.38l-34.09,34.09,34.11,34.11a13,13,0,0,1,0,18.37l-34.11,34.1,34.11,34.11a13,13,0,0,1,0,18.37l-33.61,33.61L762,798.69a13,13,0,0,1-8.71,22.63Z" transform="translate(-482.29)"></path><path d="M846.67,821.32a13,13,0,0,1-8.7-22.64l33.13-29.8-33.61-33.61a13,13,0,0,1,0-18.38l34.11-34.11-34.11-34.11a13,13,0,0,1,0-18.37l34.09-34.08-34.11-34.11a13,13,0,0,1,0-18.37l33.61-33.61L838,480.33A13,13,0,0,1,855.34,461l43.29,39a13.12,13.12,0,0,1,4.31,9.34,13,13,0,0,1-3.81,9.52L865,552.93,899.13,587a13,13,0,0,1,0,18.38L865,639.53l34.11,34.11a13,13,0,0,1,0,18.37L865,726.12l34.11,34.11a13,13,0,0,1-.48,18.84l-43.29,39A13.08,13.08,0,0,1,846.67,821.32Z" transform="translate(-482.29)"></path><path d="M1046.78,0H553.22a71,71,0,0,0-70.93,70.92V1208.08A71,71,0,0,0,553.22,1279h493.56a71,71,0,0,0,70.93-70.92V70.92A71,71,0,0,0,1046.78,0ZM1102,1208.08a55.24,55.24,0,0,1-55.18,55.18H553.22A55.24,55.24,0,0,1,498,1208.08V70.92a55.24,55.24,0,0,1,55.18-55.18h493.56A55.24,55.24,0,0,1,1102,70.92Z" transform="translate(-482.29)"></path><path d="M856.8,62.32H742.17a7.88,7.88,0,0,1,0-15.75H856.8a7.88,7.88,0,0,1,0,15.75Z" transform="translate(-482.29)"></path><path d="M711,62.32h-22.2a7.88,7.88,0,0,1,0-15.75H711a7.88,7.88,0,1,1,0,15.75Z" transform="translate(-482.29)"></path><path d="M884.38,62.31a7.88,7.88,0,0,1-5.57-13.44,8.12,8.12,0,0,1,11.11,0,7.87,7.87,0,0,1-5.54,13.44Z" transform="translate(-482.29)"></path></svg> 