<?xml version="1.0" encoding="UTF-8"?> <svg xmlns="http://www.w3.org/2000/svg" id="Layer_1" data-name="Layer 1" viewBox="0 0 635.41 1279"><path d="M850.09,685.81a197.58,197.58,0,0,1-14.83,25.65,100,100,0,0,0,56.27,59.7,131,131,0,0,0,13.77-16.23A79.88,79.88,0,0,1,850.09,685.81Z" transform="translate(-482.29)"></path><path d="M889.64,679V599.33a89.64,89.64,0,1,0-179.28,0,39.88,39.88,0,0,1-39.84,39.84v19.92a59.83,59.83,0,0,0,59.76-59.76,69.72,69.72,0,1,1,139.44,0V679A59.86,59.86,0,0,0,916,737.22a129.55,129.55,0,0,0,7.6-18.81A39.91,39.91,0,0,1,889.64,679Z" transform="translate(-482.29)"></path><path d="M845,763.54a120.17,120.17,0,0,1-17.43-22.08l-6.63-10.8-9.49,9.55a198,198,0,0,1-80.36,49,129,129,0,0,0,24.67,12.13A217.85,217.85,0,0,0,817.39,762a141.12,141.12,0,0,0,37.52,34.91,129.35,129.35,0,0,0,19.84-11.58A119.93,119.93,0,0,1,845,763.54Z" transform="translate(-482.29)"></path><path d="M800,469.85A129.63,129.63,0,0,0,670.52,599.33v19.92a20,20,0,0,0,19.92-19.92,109.56,109.56,0,1,1,219.12,0V679a19.94,19.94,0,0,0,18.49,19.86,129.22,129.22,0,0,0,1.43-19.2V599.33A129.63,129.63,0,0,0,800,469.85Z" transform="translate(-482.29)"></path><path d="M800,549.53a49.86,49.86,0,0,0-49.8,49.8A79.77,79.77,0,0,1,670.52,679v.66A129.86,129.86,0,0,0,672,698.91a99.54,99.54,0,0,0,98.17-99.58,29.88,29.88,0,0,1,59.76,0c0,79.21-58.1,145.1-133.93,157.32A131.31,131.31,0,0,0,711.36,774,179.29,179.29,0,0,0,849.8,599.33,49.86,49.86,0,0,0,800,549.53Z" transform="translate(-482.29)"></path><path d="M816.78,791.71c-.61-.61-1.21-1.22-1.8-1.84a237.19,237.19,0,0,1-28.43,18.58A129.88,129.88,0,0,0,832,805.14,162,162,0,0,1,816.78,791.71Z" transform="translate(-482.29)"></path><path d="M800,589.37a10,10,0,0,0-10,10A119.68,119.68,0,0,1,676.54,718.7a127.28,127.28,0,0,0,7.93,19.38A139.37,139.37,0,0,0,810,599.33,10,10,0,0,0,800,589.37Z" transform="translate(-482.29)"></path><path d="M1046.78,0H553.22a71,71,0,0,0-70.93,70.92V1208.08A71,71,0,0,0,553.22,1279h493.56a71,71,0,0,0,70.93-70.92V70.92A71,71,0,0,0,1046.78,0ZM1102,1208.08a55.24,55.24,0,0,1-55.18,55.18H553.22A55.24,55.24,0,0,1,498,1208.08V70.92a55.24,55.24,0,0,1,55.18-55.18h493.56A55.24,55.24,0,0,1,1102,70.92Z" transform="translate(-482.29)"></path><path d="M856.8,62.32H742.17a7.88,7.88,0,0,1,0-15.75H856.8a7.88,7.88,0,0,1,0,15.75Z" transform="translate(-482.29)"></path><path d="M711,62.32h-22.2a7.88,7.88,0,0,1,0-15.75H711a7.88,7.88,0,1,1,0,15.75Z" transform="translate(-482.29)"></path><path d="M884.38,62.31a7.88,7.88,0,0,1-5.57-13.44,8.12,8.12,0,0,1,11.11,0,7.87,7.87,0,0,1-5.54,13.44Z" transform="translate(-482.29)"></path></svg> 