<?xml version="1.0" encoding="UTF-8"?> <svg xmlns="http://www.w3.org/2000/svg" id="Layer_1" data-name="Layer 1" viewBox="0 0 635.41 1279"><path d="M1046.78,0H553.22a71,71,0,0,0-70.93,70.92V1208.08A71,71,0,0,0,553.22,1279h493.56a71,71,0,0,0,70.93-70.92V70.92A71,71,0,0,0,1046.78,0ZM1102,1208.08a55.24,55.24,0,0,1-55.18,55.18H553.22A55.24,55.24,0,0,1,498,1208.08V70.92a55.24,55.24,0,0,1,55.18-55.18h493.56A55.24,55.24,0,0,1,1102,70.92Z" transform="translate(-482.29)"></path><path d="M909.78,647.94H690.22a8.44,8.44,0,0,1,0-16.88H909.78a8.44,8.44,0,0,1,0,16.88Z" transform="translate(-482.29)"></path><path d="M901.33,690.17H698.67a50.67,50.67,0,0,1,0-101.34H901.33a50.67,50.67,0,0,1,0,101.34ZM698.67,605.72a33.78,33.78,0,0,0,0,67.56H901.33a33.78,33.78,0,0,0,0-67.56Z" transform="translate(-482.29)"></path><path d="M960.44,740.83H639.56a42.28,42.28,0,0,1-42.23-42.22V580.39a42.28,42.28,0,0,1,42.23-42.22H960.44a42.28,42.28,0,0,1,42.23,42.22V698.61A42.28,42.28,0,0,1,960.44,740.83ZM639.56,555.06a25.36,25.36,0,0,0-25.34,25.33V698.61a25.36,25.36,0,0,0,25.34,25.33H960.44a25.36,25.36,0,0,0,25.34-25.33V580.39a25.36,25.36,0,0,0-25.34-25.33Z" transform="translate(-482.29)"></path></svg> 