<?xml version="1.0" encoding="UTF-8"?> <svg xmlns="http://www.w3.org/2000/svg" id="_ëîé_1" data-name="‘ëîé_1" viewBox="0 0 2001 2001"><defs><style>.cls-1{fill:none;stroke:#fff;stroke-miterlimit:10;}.cls-2{fill:#242833;}</style></defs><rect class="cls-1" x="0.5" y="0.5" width="2000" height="2000"></rect><path d="M1289.336,768.975a11.873,11.873,0,0,0-11.118,3.2l-49.247,49.637h-23.61l-25.991-26.927v-23.94l48.543-49.266a11.88,11.88,0,0,0-4.669-19.591,118.883,118.883,0,0,0-152.7,143.376l-87.5,87.5L837.26,786.854V758.177a11.876,11.876,0,0,0-5.768-10.185l-83.993-50.4a11.871,11.871,0,0,0-14.511,1.786l-33.6,33.592a11.888,11.888,0,0,0-1.787,14.514L748,831.475a11.876,11.876,0,0,0,10.18,5.768l28.668.009L932.642,983.366l-87.168,87.168a118.865,118.865,0,0,0-143.376,152.7,11.88,11.88,0,0,0,19.689,4.575l49.242-49.633h23.74l27.048,27.049v23.739l-49.632,49.243a11.88,11.88,0,0,0,4.575,19.689,118.889,118.889,0,0,0,152.7-143.376l70.008-70.008,16.037,17.42-7.36,7.355a11.881,11.881,0,0,0,16.8,16.8l6.663-6.663,150.466,163.44c.112.121.228.237.344.353a71.28,71.28,0,0,0,100.805-100.806c-.12-.121-.245-.237-.371-.353l-163.695-150.178,6.589-6.589a11.88,11.88,0,0,0-16.8-16.8l-7.308,7.313-17.452-16.018,70.347-70.347A118.857,118.857,0,0,0,1297.9,776.752,11.868,11.868,0,0,0,1289.336,768.975ZM800.184,816.984a11.756,11.756,0,0,0-8.4-3.369l-26.867-.009-42.162-70.394,20.477-20.477L813.5,764.906v26.867a11.877,11.877,0,0,0,3.471,8.39L966.242,949.77l-16.8,16.8ZM1102.346,1048.7,1266.6,1199.385a47.524,47.524,0,0,1-67.215,67.2l-150.958-163.974Zm-17.521-16.078-52.505,52.495-16.037-17.419,51.089-51.1ZM1185.31,909.715a94.94,94.94,0,0,1-30.361-4.951,11.9,11.9,0,0,0-12.19,2.859c-59.554,59.553-187.877,187.871-235.129,235.128a11.876,11.876,0,0,0-2.858,12.194,95.126,95.126,0,0,1-90.082,125.39,97.442,97.442,0,0,1-10.357-.556l37.73-37.438a11.876,11.876,0,0,0,3.513-8.432V1200.3a11.882,11.882,0,0,0-3.48-8.4L808.087,1157.9a11.877,11.877,0,0,0-8.4-3.481H766.083a11.894,11.894,0,0,0-8.436,3.513l-37.433,37.73a95.884,95.884,0,0,1-.557-10.357,95.128,95.128,0,0,1,125.394-90.082,11.871,11.871,0,0,0,12.19-2.858c.655-.65,234.962-234.961,235.129-235.128a11.878,11.878,0,0,0,2.858-12.19,95.117,95.117,0,0,1,90.077-125.39,97.006,97.006,0,0,1,10.668.589l-36.946,37.5a11.873,11.873,0,0,0-3.415,8.334v33.6a11.864,11.864,0,0,0,3.332,8.25l32.821,34.009a11.869,11.869,0,0,0,8.547,3.629h33.605a11.871,11.871,0,0,0,8.432-3.513l37.433-37.725a96.141,96.141,0,0,1,.557,10.357A95.137,95.137,0,0,1,1185.31,909.715Z" transform="translate(0.5 0.5)"></path><path class="cls-2" d="M1619.24,21.245H383.36c-73.77,0-134.13,60.38-134.13,134.15v215.47h-.59a2,2,0,0,0-2.009,1.991,1.657,1.657,0,0,0,.009.2v87.08a2,2,0,0,0,1.8,2.181c.066.006.132.009.2.009h.59v145a3.85,3.85,0,0,0-2.56,3.65v165.19a4,4,0,0,0,2.56,3.71v77a3.868,3.868,0,0,0-2.56,3.68v165.17a3.83,3.83,0,0,0,2.56,3.66v815.25c0,73.8,60.36,134.12,134.13,134.12H1619.24c73.76,0,134.13-60.32,134.13-134.12V155.4C1753.37,81.625,1693.02,21.245,1619.24,21.245Zm44.17,1794.48H339.21V184.355h1324.2Z" transform="translate(0.5 0.5)"></path></svg> 