<?xml version="1.0" encoding="UTF-8"?> <svg xmlns="http://www.w3.org/2000/svg" id="_ëîé_1" data-name="‘ëîé_1" viewBox="0 0 2001 2001"><defs><style>.cls-1{fill:none;stroke:#fff;stroke-miterlimit:10;}.cls-2{fill:#242833;}</style></defs><rect class="cls-1" x="0.5" y="0.5" width="2000" height="2000"></rect><path class="cls-2" d="M997.38,1871.1a90.44,90.44,0,0,0-14-1.16,87.31,87.31,0,0,0-13.94,1.16c-1.88.34-4.51,3-4.83,4.71a87.16,87.16,0,0,0,0,28c.32,1.86,2.95,4.49,4.7,4.79a85.52,85.52,0,0,0,14.07,1.16,83.76,83.76,0,0,0,14-1.16c1.83-.3,4.49-2.93,4.76-4.7a85.36,85.36,0,0,0,0-28C1001.79,1874.07,999.11,1871.44,997.38,1871.1Z" transform="translate(0.5 0.5)"></path><path class="cls-2" d="M1619.22,21.24H383.34c-73.77,0-134.13,60.38-134.13,134.15V370.86h-.59a2,2,0,0,0-2,2.19v87.08a2,2,0,0,0,2,2.19h.59v145a3.85,3.85,0,0,0-2.56,3.65V776.16a4,4,0,0,0,2.56,3.71v77a3.87,3.87,0,0,0-2.56,3.68v165.17a3.83,3.83,0,0,0,2.56,3.66v815.25c0,73.8,60.36,134.12,134.13,134.12H1619.22c73.76,0,134.13-60.32,134.13-134.12V155.39C1753.35,81.62,1693,21.24,1619.22,21.24Zm44.17,1794.48H339.19V184.35h1324.2Z" transform="translate(0.5 0.5)"></path><path d="M1191.86,1014.76H808.14a14.76,14.76,0,1,1,0-29.52h383.72a14.76,14.76,0,0,1,0,29.52Z" transform="translate(0.5 0.5)"></path><path d="M1177.1,1088.55H822.9a88.55,88.55,0,0,1,0-177.1h354.2a88.55,88.55,0,1,1,0,177.1ZM822.9,941a59,59,0,1,0,0,118.06h354.2a59,59,0,1,0,0-118.06Z" transform="translate(0.5 0.5)"></path><path d="M1280.41,1177.1H719.59a73.9,73.9,0,0,1-73.79-73.79V896.69a73.9,73.9,0,0,1,73.79-73.79h560.82a73.9,73.9,0,0,1,73.79,73.79v206.62A73.9,73.9,0,0,1,1280.41,1177.1ZM719.59,852.42a44.32,44.32,0,0,0-44.27,44.27v206.62a44.32,44.32,0,0,0,44.27,44.27h560.82a44.32,44.32,0,0,0,44.27-44.27V896.69a44.32,44.32,0,0,0-44.27-44.27Z" transform="translate(0.5 0.5)"></path></svg> 