<?xml version="1.0" encoding="UTF-8"?> <svg xmlns="http://www.w3.org/2000/svg" id="_ëîé_1" data-name="‘ëîé_1" viewBox="0 0 2001 2001"><defs><style>.cls-1{fill:none;stroke:#fff;stroke-miterlimit:10;}.cls-2{fill:#242833;}</style></defs><rect class="cls-1" x="0.5" y="0.5" width="2000" height="2000"></rect><path d="M765.42,973.005V919.767a6.965,6.965,0,0,1,6.955-6.957h455.25a6.964,6.964,0,0,1,6.955,6.957v53.106a9.643,9.643,0,0,0,19.285,0V919.767a26.269,26.269,0,0,0-26.239-26.241H772.378a26.269,26.269,0,0,0-26.239,26.241v53.238a9.641,9.641,0,1,0,19.281.226C765.421,973.156,765.421,973.08,765.42,973.005Z" transform="translate(0.5 0.5)"></path><path d="M1253.864,1080.232v-58.215a9.643,9.643,0,0,0-19.286,0v58.215a6.962,6.962,0,0,1-6.955,6.955H772.375a6.964,6.964,0,0,1-6.955-6.955V1022.14a9.643,9.643,0,0,0-19.285,0v58.092a26.268,26.268,0,0,0,26.239,26.239h455.251A26.269,26.269,0,0,0,1253.864,1080.232Z" transform="translate(0.5 0.5)"></path><path d="M1077.076,1252.78a28.724,28.724,0,0,0,28.691,28.693h25.54A28.724,28.724,0,0,0,1160,1252.78v-61.412h35.614v61.411h0a28.724,28.724,0,0,0,28.691,28.693h25.54a28.726,28.726,0,0,0,28.691-28.693v-61.412h22.831a37.436,37.436,0,0,0,37.4-37.392V846.024a37.436,37.436,0,0,0-37.394-37.393h-22.829V747.218a28.724,28.724,0,0,0-28.692-28.691h-25.539a28.724,28.724,0,0,0-28.691,28.691v61.413H1160V747.218a28.724,28.724,0,0,0-28.692-28.691H1105.77a28.724,28.724,0,0,0-28.691,28.691v61.413h-35.617V747.218a28.724,28.724,0,0,0-28.691-28.691H987.232a28.724,28.724,0,0,0-28.692,28.691v61.413H922.924V747.218a28.724,28.724,0,0,0-28.691-28.691h-25.54A28.724,28.724,0,0,0,840,747.218v61.413H804.387V747.218A28.724,28.724,0,0,0,775.7,718.527h-25.54a28.726,28.726,0,0,0-28.693,28.691v61.413h-22.83a37.436,37.436,0,0,0-37.394,37.393v307.951a37.435,37.435,0,0,0,37.394,37.392h22.829v61.412a28.726,28.726,0,0,0,28.692,28.693h25.539a28.724,28.724,0,0,0,28.691-28.693v-61.412H840v61.412a28.724,28.724,0,0,0,28.691,28.693h25.54a28.725,28.725,0,0,0,28.691-28.693v-61.412h35.615v61.412a28.725,28.725,0,0,0,28.691,28.693h25.54a28.724,28.724,0,0,0,28.691-28.693v-61.412h35.615Zm182.178-61.412v61.411a9.419,9.419,0,0,1-9.408,9.408h-25.539a9.419,9.419,0,0,1-9.407-9.408v-61.411Zm-118.539,0v61.411a9.419,9.419,0,0,1-9.407,9.408h-25.539a9.419,9.419,0,0,1-9.408-9.408v-61.411ZM740.746,808.632V747.218a9.418,9.418,0,0,1,9.408-9.407h25.539a9.419,9.419,0,0,1,9.406,9.407v61.413H740.746Zm118.539,0V747.218a9.418,9.418,0,0,1,9.407-9.407h25.539a9.417,9.417,0,0,1,9.407,9.407v61.413H859.285Zm118.538,0V747.218a9.418,9.418,0,0,1,9.407-9.407h25.54a9.418,9.418,0,0,1,9.407,9.407v61.413H977.823Zm118.537,0V747.218a9.418,9.418,0,0,1,9.407-9.407h25.54a9.418,9.418,0,0,1,9.407,9.407v61.413H1096.36Zm118.539,0V747.218a9.417,9.417,0,0,1,9.407-9.407h25.539a9.417,9.417,0,0,1,9.407,9.407v61.413H1214.9Zm-516.266,363.45a18.128,18.128,0,0,1-18.109-18.107V846.024a18.129,18.129,0,0,1,18.109-18.109h602.734a18.129,18.129,0,0,1,18.109,18.109v307.951a18.128,18.128,0,0,1-18.109,18.107Zm86.466,80.7a9.419,9.419,0,0,1-9.407,9.408h-25.54a9.419,9.419,0,0,1-9.407-9.408v-61.411H785.1Zm118.538,0a9.419,9.419,0,0,1-9.407,9.408H868.691a9.419,9.419,0,0,1-9.408-9.408v-61.411h44.356Zm118.537,0a9.419,9.419,0,0,1-9.407,9.408H987.228a9.419,9.419,0,0,1-9.408-9.408v-61.411h44.356v61.411Z" transform="translate(0.5 0.5)"></path><path d="M933.619,1042.18a5.072,5.072,0,0,0,4.922,3.849h7.5a5.067,5.067,0,0,0,4.817-6.66q-5.121-15.438-11.619-36.056a20.357,20.357,0,0,0,5.45-3.44,17.305,17.305,0,0,0,3.536-4.2,19.627,19.627,0,0,0,1.938-4.91,31.815,31.815,0,0,0,.908-4.935q.2-2.16.2-4.91a27.312,27.312,0,0,0-1.964-10.875,16.8,16.8,0,0,0-5.746-7.217,25.94,25.94,0,0,0-8.813-3.928,48.567,48.567,0,0,0-11.661-1.252h-14.37a5.072,5.072,0,0,0-5.073,5.072v78.233a5.074,5.074,0,0,0,5.074,5.073h7.728a5.072,5.072,0,0,0,5.072-5.072h0v-35.628h2.946Zm-12.1-47.756V970.755h5.942a4.316,4.316,0,0,1,3.166,1.3,7.427,7.427,0,0,1,1.866,3.339,27.669,27.669,0,0,1,.785,3.705,24.912,24.912,0,0,1,.221,3.241,22.2,22.2,0,0,1-.265,3.338,26.34,26.34,0,0,1-.926,3.879,7.894,7.894,0,0,1-2.136,3.485,4.991,4.991,0,0,1-3.536,1.375Z" transform="translate(0.5 0.5)"></path><path d="M996.644,1042.665a4.147,4.147,0,0,0,4.072,3.364h9.067a4.146,4.146,0,0,0,4.053-5.019l-17.262-80.085a4.145,4.145,0,0,0-4.053-3.27H983.4a4.144,4.144,0,0,0-4.051,3.27l-17.308,80.085a4.145,4.145,0,0,0,4.051,5.028h9.131a4.144,4.144,0,0,0,4.079-3.4l2.817-15.5h11.539Zm-13.3-26.537,4.663-32.8,4.469,32.8Z" transform="translate(0.5 0.5)"></path><path d="M1040.88,1042.978l.373-59.5,10.409,60a3.072,3.072,0,0,0,3.027,2.547h8.139a3.069,3.069,0,0,0,3.034-2.589q1.53-9.682,4.752-28.491,3.684-21.505,5.161-31.08l.373,59.106a3.075,3.075,0,0,0,3.073,3.053h7.033a3.073,3.073,0,0,0,3.073-3.073V960.724a3.073,3.073,0,0,0-3.077-3.069h-15.012a3.072,3.072,0,0,0-3.028,2.55l-9.723,56.372-9.013-56.332a3.072,3.072,0,0,0-3.027-2.59h-15.722a3.072,3.072,0,0,0-3.072,3.073v82.232a3.074,3.074,0,0,0,3.072,3.074h7.083A3.073,3.073,0,0,0,1040.88,1042.978Z" transform="translate(0.5 0.5)"></path><path class="cls-2" d="M1619.24,21.245H383.36c-73.77,0-134.13,60.38-134.13,134.15v215.47h-.59a2,2,0,0,0-2.009,1.991,1.657,1.657,0,0,0,.009.2v87.08a2,2,0,0,0,1.8,2.181c.066.006.132.009.2.009h.59v145a3.85,3.85,0,0,0-2.56,3.65v165.19a4,4,0,0,0,2.56,3.71v77a3.868,3.868,0,0,0-2.56,3.68v165.17a3.83,3.83,0,0,0,2.56,3.66v815.25c0,73.8,60.36,134.12,134.13,134.12H1619.24c73.76,0,134.13-60.32,134.13-134.12V155.4C1753.37,81.625,1693.02,21.245,1619.24,21.245Zm44.17,1794.48H339.21V184.355h1324.2Z" transform="translate(0.5 0.5)"></path></svg> 