<?xml version="1.0" encoding="UTF-8"?> <svg xmlns="http://www.w3.org/2000/svg" id="_ëîé_1" data-name="‘ëîé_1" viewBox="0 0 2001 2001"><defs><style>.cls-1{fill:none;stroke:#fff;stroke-miterlimit:10;}.cls-2{fill:#242833;}</style></defs><rect class="cls-1" x="0.5" y="0.5" width="2000" height="2000"></rect><path d="M1000,1238.92c-132,0-238.92-107-238.92-238.92s107-238.92,238.92-238.92,238.92,107,238.92,238.92C1238.77,1131.89,1131.89,1238.77,1000,1238.92Zm0-464.18c-124.41,0-225.26,100.85-225.26,225.26S875.59,1225.26,1000,1225.26s225.26-100.85,225.26-225.26S1124.35,774.88,1000,774.74Z" transform="translate(0.5 0.5)"></path><path d="M1005.19,1120.35l-5.29-12.59a451.1,451.1,0,0,0,96.68-55.68c81.92-61.84,115.86-131.41,116.19-132.11l12.29,5.89c-1.42,3-35.72,73.29-120.29,137.12a464.67,464.67,0,0,1-99.58,57.37Z" transform="translate(0.5 0.5)"></path><path d="M1107.47,1058.17l-13.58-1.36c20.33-199.3-55.66-279.45-56.44-280.24l9.76-9.55c3.3,3.4,81.23,85.53,60.26,291.15Z" transform="translate(0.5 0.5)"></path><path d="M1097.46,944.3C962.73,835.61,829.2,852,827.87,852.15l-1.8-13.53c5.69-.75,140.71-17.25,280,95.08Z" transform="translate(0.5 0.5)"></path><path d="M790.32,1086.28l-13.13-3.72c1.49-5.25,38.5-129.39,220-211.73l5.64,12.43c-175.35,79.54-212.15,201.79-212.5,203Z" transform="translate(0.5 0.5)"></path><path d="M1176.72,1157.22a542.17,542.17,0,0,1-176.67-36.81A446,446,0,0,1,897,1064.05l8.15-11a432.54,432.54,0,0,0,99.93,54.61,527.84,527.84,0,0,0,171.69,35.86Z" transform="translate(0.5 0.5)"></path><path d="M948,1231c-.68-1.19-69.41-120.73-58.23-292.52l13.65.89C892.44,1107,959,1222.9,959.73,1224.05Z" transform="translate(0.5 0.5)"></path><path class="cls-2" d="M997.38,1871.1a90.44,90.44,0,0,0-14-1.16,87.31,87.31,0,0,0-13.94,1.16c-1.88.34-4.51,3-4.83,4.71a87.16,87.16,0,0,0,0,28c.32,1.86,2.95,4.49,4.7,4.79a85.52,85.52,0,0,0,14.07,1.16,83.76,83.76,0,0,0,14-1.16c1.83-.3,4.49-2.93,4.76-4.7a85.36,85.36,0,0,0,0-28C1001.79,1874.07,999.11,1871.44,997.38,1871.1Z" transform="translate(0.5 0.5)"></path><path class="cls-2" d="M1619.22,21.24H383.34c-73.77,0-134.13,60.38-134.13,134.15V370.86h-.59a2,2,0,0,0-2,2.19v87.08a2,2,0,0,0,2,2.19h.59v145a3.85,3.85,0,0,0-2.56,3.65V776.16a4,4,0,0,0,2.56,3.71v77a3.87,3.87,0,0,0-2.56,3.68v165.17a3.83,3.83,0,0,0,2.56,3.66v815.25c0,73.8,60.36,134.12,134.13,134.12H1619.22c73.76,0,134.13-60.32,134.13-134.12V155.39C1753.35,81.62,1693,21.24,1619.22,21.24Zm44.17,1794.48H339.19V184.35h1324.2Z" transform="translate(0.5 0.5)"></path></svg> 