<?xml version="1.0" encoding="UTF-8"?> <svg xmlns="http://www.w3.org/2000/svg" id="_ëîé_1" data-name="‘ëîé_1" viewBox="0 0 2001 2001"><defs><style>.cls-1{fill:none;stroke:#fff;stroke-miterlimit:10;}.cls-2{fill:#242833;}</style></defs><rect class="cls-1" x="0.5" y="0.5" width="2000" height="2000"></rect><path d="M1236.366,748.919H763.634a14.718,14.718,0,0,0-14.717,14.717v472.73a14.717,14.717,0,0,0,14.717,14.717h472.732a14.717,14.717,0,0,0,14.717-14.717V763.636A14.716,14.716,0,0,0,1236.366,748.919Zm-14.717,472.728h-443.3V778.353h443.3Z" transform="translate(0.5 0.5)"></path><path d="M1175.242,810.041H824.758a14.716,14.716,0,0,0-14.717,14.717v350.484a14.716,14.716,0,0,0,14.717,14.717h350.484a14.717,14.717,0,0,0,14.717-14.717V824.758A14.716,14.716,0,0,0,1175.242,810.041Zm-14.716,350.484H839.475V886.38h220.471a14.717,14.717,0,1,0,0-29.434H839.475V839.475h321.05v250.3H940.055a14.717,14.717,0,0,0,0,29.434h220.471v41.316Z" transform="translate(0.5 0.5)"></path><path d="M1362.043,792.487a14.718,14.718,0,0,0,14.718-14.717V731.947a14.717,14.717,0,0,0-14.718-14.718h-49.838V702.512a14.718,14.718,0,0,0-14.717-14.717h-14.717V637.957a14.717,14.717,0,0,0-14.718-14.718H1222.23a14.717,14.717,0,0,0-14.717,14.718V687.8H1160.2V637.957a14.717,14.717,0,0,0-14.717-14.718h-45.824a14.717,14.717,0,0,0-14.717,14.718V687.8h-47.313V637.957a14.717,14.717,0,0,0-14.717-14.718H977.088a14.717,14.717,0,0,0-14.717,14.718V687.8H915.058V637.957a14.717,14.717,0,0,0-14.717-14.718H854.517A14.717,14.717,0,0,0,839.8,637.957V687.8H792.487V637.957a14.717,14.717,0,0,0-14.717-14.718H731.947a14.717,14.717,0,0,0-14.718,14.718V687.8H702.512A14.718,14.718,0,0,0,687.8,702.512v14.717H637.957a14.717,14.717,0,0,0-14.718,14.718V777.77a14.718,14.718,0,0,0,14.718,14.717H687.8V839.8H637.957a14.717,14.717,0,0,0-14.718,14.717v45.825a14.719,14.719,0,0,0,14.718,14.718H687.8v47.311H637.957a14.718,14.718,0,0,0-14.718,14.717v45.825a14.718,14.718,0,0,0,14.718,14.717H687.8v47.312H637.957a14.718,14.718,0,0,0-14.718,14.717v45.825a14.718,14.718,0,0,0,14.718,14.717H687.8v47.312H637.957a14.718,14.718,0,0,0-14.718,14.717v45.823a14.719,14.719,0,0,0,14.718,14.718H687.8v14.717a14.718,14.718,0,0,0,14.717,14.717h14.717v49.838a14.719,14.719,0,0,0,14.718,14.718H777.77a14.718,14.718,0,0,0,14.717-14.718v-49.838H839.8v49.838a14.718,14.718,0,0,0,14.717,14.718h45.824a14.718,14.718,0,0,0,14.717-14.718v-49.838h47.313v49.838a14.718,14.718,0,0,0,14.717,14.718h45.824a14.718,14.718,0,0,0,14.717-14.718v-49.838h47.313v49.838a14.718,14.718,0,0,0,14.717,14.718h45.824a14.718,14.718,0,0,0,14.717-14.718v-49.838h47.313v49.838a14.718,14.718,0,0,0,14.717,14.718h45.823a14.719,14.719,0,0,0,14.718-14.718v-49.838h14.717a14.718,14.718,0,0,0,14.717-14.717v-14.717h49.838a14.719,14.719,0,0,0,14.718-14.718V1222.23a14.718,14.718,0,0,0-14.718-14.717h-49.838V1160.2h49.838a14.718,14.718,0,0,0,14.718-14.717v-45.825a14.718,14.718,0,0,0-14.718-14.717h-49.838V1037.63h49.838a14.718,14.718,0,0,0,14.718-14.717V977.088a14.718,14.718,0,0,0-14.718-14.717h-49.838V915.06h49.838a14.719,14.719,0,0,0,14.718-14.718V854.517a14.717,14.717,0,0,0-14.718-14.717h-49.838V792.487Zm-49.838-45.823h35.121v16.389h-35.121ZM687.8,1253.336H652.674v-16.389H687.8Zm0-122.569H652.674v-16.391H687.8Zm0-122.572H652.674V991.8H687.8Zm0-122.571H652.674V869.233H687.8Zm0-122.571H652.674V746.664H687.8Zm549.152-110.379h16.389V687.8h-16.389Zm-122.571,0h16.389V687.8h-16.389Zm-122.571,0h16.39V687.8h-16.39V652.674Zm-122.57,0h16.389V687.8H869.235Zm-122.571,0h16.389V687.8H746.664Zm16.389,694.652H746.664v-35.121h16.389Zm122.571,0H869.235v-35.121h16.389Zm122.571,0h-16.39v-35.121h16.39Zm122.57,0h-16.389v-35.121h16.389Zm122.571,0h-16.389v-35.121h16.389Zm29.435-64.557H717.229V717.229h565.542Zm64.555-45.822v16.389h-35.121v-16.389Zm0-122.571v16.391h-35.121v-16.391Zm0-122.571V1008.2h-35.121V991.805Zm0-122.57v16.39h-35.121v-16.39Z" transform="translate(0.5 0.5)"></path><path d="M945.655,1014.109c-5.561,0-10.289,1.39-10.7,6.533-.418,5.424-1.113,13.9-12.234,13.9-8.064,0-12.651-4.449-12.651-13.9V983.8c0-9.453,4.585-13.9,12.511-13.9,11.818,0,12.234,8.9,12.374,12.513.278,5,5,6.534,10.844,6.534,7.369,0,10.845-1.947,10.845-10.288,0-17.657-15.016-27.667-34.9-27.667-18.213,0-33.367,8.9-33.367,32.81v36.843c0,23.913,15.154,32.811,33.367,32.811,19.881,0,34.9-10.566,34.9-29.056C956.639,1016.055,953.162,1014.109,945.655,1014.109Z" transform="translate(0.5 0.5)"></path><path d="M1004.458,950.989h-28.78c-4.865,0-8.063,3.058-8.063,6.536v88.422c0,4.448,5.423,6.673,10.845,6.673s10.844-2.225,10.844-6.673v-30.03h13.765c19.186,0,34.2-8.9,34.2-32.255v-.7C1037.268,959.61,1022.809,950.989,1004.458,950.989Zm11.122,34.341c0,9.453-4.728,13.9-12.513,13.9H989.3V969.9h13.765c7.785,0,12.513,4.449,12.513,13.9Z" transform="translate(0.5 0.5)"></path><path d="M1105.524,950.987c-5.562,0-10.845,1.946-10.845,6.536v63.119c0,9.455-5.006,13.9-13.347,13.9s-13.347-4.449-13.347-13.9V957.523c0-4.589-5.562-6.536-10.845-6.536-5.561,0-10.844,1.946-10.844,6.536v63.119c0,23.913,15.293,32.811,35.036,32.811,19.6,0,35.036-8.9,35.036-32.811V957.523C1116.368,952.934,1110.806,950.987,1105.524,950.987Z" transform="translate(0.5 0.5)"></path><path d="M1131.2,868.781a15.554,15.554,0,0,0-.839-2.752,14.75,14.75,0,0,0-7.962-7.962,15.546,15.546,0,0,0-2.752-.837,14.519,14.519,0,0,0-5.755,0,14.846,14.846,0,0,0-2.752.837,14.689,14.689,0,0,0-2.546,1.354,15.086,15.086,0,0,0-2.237,1.84,14.16,14.16,0,0,0-1.825,2.237,15,15,0,0,0-1.354,2.531,15.638,15.638,0,0,0-.839,2.752,14.629,14.629,0,0,0,4.018,13.29,13.994,13.994,0,0,0,2.237,1.823,14.487,14.487,0,0,0,2.546,1.354,14.851,14.851,0,0,0,2.752.839,14.455,14.455,0,0,0,2.87.295,14.713,14.713,0,0,0,2.885-.295,15.554,15.554,0,0,0,2.752-.839,14.824,14.824,0,0,0,2.531-1.354,13.95,13.95,0,0,0,2.237-1.823,14.775,14.775,0,0,0,4.033-13.29Z" transform="translate(0.5 0.5)"></path><path d="M897.657,1101.621a15.369,15.369,0,0,0-.839-2.765,14.936,14.936,0,0,0-1.354-2.532,14.033,14.033,0,0,0-1.825-2.238,15.086,15.086,0,0,0-2.237-1.84,15.566,15.566,0,0,0-2.546-1.339,13.726,13.726,0,0,0-2.752-.838,14.519,14.519,0,0,0-5.755,0,14.323,14.323,0,0,0-2.752.838,16.045,16.045,0,0,0-2.531,1.339,14.928,14.928,0,0,0-4.077,4.078,14.866,14.866,0,0,0-1.354,2.532,15.275,15.275,0,0,0-.839,2.766,14.849,14.849,0,0,0,0,5.74,15.333,15.333,0,0,0,.839,2.767,14.653,14.653,0,0,0,3.194,4.768,13.962,13.962,0,0,0,2.237,1.825,14.894,14.894,0,0,0,2.531,1.354,15.554,15.554,0,0,0,2.752.839,14.627,14.627,0,0,0,13.29-4.019,14.115,14.115,0,0,0,1.825-2.237,14.932,14.932,0,0,0,1.354-2.531,15.414,15.414,0,0,0,.839-2.767,14.155,14.155,0,0,0,0-5.74Z" transform="translate(0.5 0.5)"></path><path class="cls-2" d="M1619.24,21.245H383.36c-73.77,0-134.13,60.38-134.13,134.15v215.47h-.59a2,2,0,0,0-2.009,1.991,1.657,1.657,0,0,0,.009.2v87.08a2,2,0,0,0,1.8,2.181c.066.006.132.009.2.009h.59v145a3.85,3.85,0,0,0-2.56,3.65v165.19a4,4,0,0,0,2.56,3.71v77a3.868,3.868,0,0,0-2.56,3.68v165.17a3.83,3.83,0,0,0,2.56,3.66v815.25c0,73.8,60.36,134.12,134.13,134.12H1619.24c73.76,0,134.13-60.32,134.13-134.12V155.4C1753.37,81.625,1693.02,21.245,1619.24,21.245Zm44.17,1794.48H339.21V184.355h1324.2Z" transform="translate(0.5 0.5)"></path></svg> 