<?xml version="1.0" encoding="UTF-8"?> <svg xmlns="http://www.w3.org/2000/svg" id="_ëîé_1" data-name="‘ëîé_1" viewBox="0 0 2001 2001"><defs><style>.cls-1,.cls-3{fill:none;}.cls-1{stroke:#fff;}.cls-1,.cls-2,.cls-3{stroke-miterlimit:10;}.cls-2{fill:#fff;}.cls-2,.cls-3{stroke:#231f20;stroke-width:17px;}.cls-4{fill:#242833;}</style></defs><rect class="cls-1" x="0.5" y="0.5" width="2000" height="2000"></rect><polyline class="cls-2" points="739.111 903.462 630.157 1001.764 633.312 1104.614 583.72 1153.058"></polyline><path class="cls-3" d="M604.255,1262.142c11.086.525,20.718,9,25.043,19.218s4.088,21.846,2.026,32.752c-.979,5.174-2.356,10.427-1.577,15.635,1.523,10.185,10.565,17.2,17.862,24.468s13.639,18.4,8.6,27.378" transform="translate(0.5 0.5)"></path><path class="cls-3" d="M870.171,1246.334c-5.837,10.29-16.5,16.671-26,23.711s-18.85,16.356-19.7,28.155c-1.079,14.945,11.851,29.87,6.147,43.727-6.749-.57-12.057,8.416-8.3,14.051" transform="translate(0.5 0.5)"></path><path class="cls-3" d="M926.762,720.827c-10.393,1.143-20.472-3.412-29.936-7.856l-46.038-21.618c-12.545-5.891-27.268-15.576-25.18-29.278" transform="translate(0.5 0.5)"></path><path class="cls-3" d="M835.525,589.975a665.879,665.879,0,0,1,93.73,137.833c-35,13.28-57.925,46.475-77.106,78.628a1245.126,1245.126,0,0,0-70.171,135.983c-2.236,5.078-4.48,10.368-4.38,15.916.171,9.5,7,17.36,13.225,24.535,33.94,39.137,61.741,81.061,79.626,129.68a671.164,671.164,0,0,0-79.436,148.91c-3.215,8.443-6.271,17.83-3.141,26.3,2.172,5.877,6.991,10.306,11.593,14.557a752.472,752.472,0,0,1,112.762,131.254" transform="translate(0.5 0.5)"></path><path class="cls-3" d="M611.4,578.653a665.807,665.807,0,0,1,93.73,137.832c-35,13.28-57.925,46.475-77.106,78.628A1245.049,1245.049,0,0,0,557.851,931.1c-2.236,5.077-4.48,10.368-4.38,15.915.172,9.5,7,17.36,13.226,24.535,33.94,39.138,61.741,81.061,79.625,129.68a671.247,671.247,0,0,0-79.436,148.91c-3.214,8.443-6.271,17.83-3.14,26.3,2.171,5.877,6.99,10.307,11.593,14.557A752.594,752.594,0,0,1,688.1,1422.252" transform="translate(0.5 0.5)"></path><path class="cls-3" d="M1124.466,1226.538c-5.836,10.29-16.5,16.671-26,23.711s-18.85,16.356-19.7,28.154c-1.08,14.946,11.851,29.871,6.147,43.728-6.749-.57-12.057,8.416-8.3,14.051" transform="translate(0.5 0.5)"></path><path class="cls-3" d="M1181.058,701.031c-10.394,1.143-20.472-3.412-29.936-7.856l-46.038-21.618c-12.545-5.892-27.269-15.576-25.18-29.278" transform="translate(0.5 0.5)"></path><path class="cls-3" d="M1352.8,566.425a665.84,665.84,0,0,1,93.73,137.833c-35,13.28-57.925,46.475-77.106,78.628a1245.126,1245.126,0,0,0-70.171,135.983c-2.236,5.078-4.48,10.368-4.38,15.916.172,9.5,7,17.36,13.226,24.535,33.939,39.137,61.741,81.061,79.625,129.68a671.224,671.224,0,0,0-79.436,148.91c-3.214,8.443-6.271,17.83-3.14,26.3,2.171,5.877,6.99,10.306,11.592,14.557a752.52,752.52,0,0,1,112.763,131.254" transform="translate(0.5 0.5)"></path><path class="cls-3" d="M1092.929,597.215q64.608,82.357,128.83,165.016c2.379,3.062,4.85,6.347,5.239,10.205.61,6.048-3.971,11.236-8.178,15.623a724.169,724.169,0,0,0-107.777,144.986c-1.681,2.977-3.4,6.332-2.613,9.659,1.824,7.725,14.244,7.514,17.939,14.538,1.86,3.536.9,7.86-.42,11.631a72,72,0,0,1-50.422,45.414" transform="translate(0.5 0.5)"></path><path class="cls-3" d="M1076.937,1065.239a607.754,607.754,0,0,0,88.453,153.729,93.384,93.384,0,0,0-69.329,49.86c-1.836,3.675-3.448,7.568-3.7,11.669-.527,8.746,5.073,16.5,9.855,23.84,12.195,18.723,20.043,44.812,6.209,62.358-4.3,5.453-10.223,9.349-15.3,14.084a61.636,61.636,0,0,0-19.032,50.108" transform="translate(0.5 0.5)"></path><path class="cls-3" d="M911.513,905.716A382.829,382.829,0,0,1,869.449,995.8c-4.131,6.484-8.572,12.967-14.7,17.608a36.146,36.146,0,0,1-34.525,4.665" transform="translate(0.5 0.5)"></path><path class="cls-3" d="M1259.222,982.03a298.765,298.765,0,0,0-2.31,49.505c.168,4.617.553,9.54,3.365,13.2,2.18,2.841,5.519,4.515,8.2,6.89,8.7,7.713,9,21.247,6.374,32.574s-7.528,22.427-6.87,34.036c.171,3.027.825,6.233,2.962,8.384,2.243,2.258,5.613,2.873,8.763,3.333a341.578,341.578,0,0,0,50.89,3.575,23.718,23.718,0,0,0,8.513-1.117c2.781-1.078,5.061-3.121,7.273-5.121l19.512-17.642" transform="translate(0.5 0.5)"></path><path class="cls-3" d="M1401.225,787.6c-17.33,5.678-29.7,22.1-34.079,39.8s-1.751,36.477,3.527,53.933c2.013,6.66,4.346,14.143,1.04,20.266-3.32,6.147-10.884,8.278-16.883,11.86-10.459,6.244-16.818,17.846-19.439,29.742s-1.966,24.237-1.3,36.4" transform="translate(0.5 0.5)"></path><path class="cls-3" d="M679.03,774.624c.7,20.856-26.895,30.941-34.453,50.39-4.133,10.636-1.663,22.509-.82,33.888s-.893,24.517-10.285,31c-6.454,4.454-15.183,4.7-21.438,9.423-4.744,3.586-7.571,9.411-12.69,12.436-4.109,2.429-9.174,2.725-13.4,4.936-16.684,8.718-10.381,39.258-27.476,47.14" transform="translate(0.5 0.5)"></path><path class="cls-4" d="M1619.24,21.245H383.36c-73.77,0-134.13,60.38-134.13,134.15v215.47h-.59a2,2,0,0,0-2.009,1.991,1.657,1.657,0,0,0,.009.2v87.08a2,2,0,0,0,1.8,2.181c.066.006.132.009.2.009h.59v145a3.85,3.85,0,0,0-2.56,3.65v165.19a4,4,0,0,0,2.56,3.71v77a3.868,3.868,0,0,0-2.56,3.68v165.17a3.83,3.83,0,0,0,2.56,3.66v815.25c0,73.8,60.36,134.12,134.13,134.12H1619.24c73.76,0,134.13-60.32,134.13-134.12V155.4C1753.37,81.625,1693.02,21.245,1619.24,21.245Zm44.17,1794.48H339.21V184.355h1324.2Z" transform="translate(0.5 0.5)"></path></svg> 