<?xml version="1.0" encoding="UTF-8"?> <svg xmlns="http://www.w3.org/2000/svg" id="_ëîé_1" data-name="‘ëîé_1" viewBox="0 0 2001 2001"><defs><style>.cls-1{fill:none;stroke:#fff;stroke-miterlimit:10;}.cls-2{fill:#242833;}</style></defs><rect class="cls-1" x="0.5" y="0.5" width="2000" height="2000"></rect><g id="Layer_1" data-name="Layer 1"><path d="M820.155,1112.348h74.7a12.57,12.57,0,0,0,12.57-12.571h0v-53.356a12.57,12.57,0,0,0-12.57-12.571h-25.36l77.947-89.238,77.946,89.238H999.967a12.57,12.57,0,0,0-12.57,12.571h0v91.521H946.939a12.571,12.571,0,0,0-9.466,20.84l105.62,120.918a12.569,12.569,0,0,0,18.933,0l105.617-120.917a12.57,12.57,0,0,0-9.467-20.84h-40.457l-.007-25.594h62.134a126.48,126.48,0,0,0,10.752-252.5C1160.541,754.579,1050.84,693.61,945.574,723.668A198.214,198.214,0,0,0,809.4,859.846a126.478,126.478,0,0,0,10.759,252.5Zm-.819-227.806a12.572,12.572,0,0,0,12.145-9.722,173.065,173.065,0,0,1,337.031,0,12.572,12.572,0,0,0,12.145,9.722,101.334,101.334,0,0,1-.819,202.665h-74.707a12.569,12.569,0,0,0-12.566,12.573l.012,50.736a12.57,12.57,0,0,0,12.57,12.567h25.359l-77.947,89.238-77.946-89.238h25.36a12.57,12.57,0,0,0,12.57-12.57h0v-91.522h40.519a12.571,12.571,0,0,0,9.467-20.84L956.9,917.233a12.574,12.574,0,0,0-18.934,0L832.355,1038.151a12.57,12.57,0,0,0,9.467,20.84h40.457v28.216H820.153a101.334,101.334,0,0,1-.819-202.665Z" transform="translate(0.5 0.5)"></path></g><path class="cls-2" d="M1619.24,21.245H383.36c-73.77,0-134.13,60.38-134.13,134.15v215.47h-.59a2,2,0,0,0-2.009,1.991,1.657,1.657,0,0,0,.009.2v87.08a2,2,0,0,0,1.8,2.181c.066.006.132.009.2.009h.59v145a3.85,3.85,0,0,0-2.56,3.65v165.19a4,4,0,0,0,2.56,3.71v77a3.868,3.868,0,0,0-2.56,3.68v165.17a3.83,3.83,0,0,0,2.56,3.66v815.25c0,73.8,60.36,134.12,134.13,134.12H1619.24c73.76,0,134.13-60.32,134.13-134.12V155.4C1753.37,81.625,1693.02,21.245,1619.24,21.245Zm44.17,1794.48H339.21V184.355h1324.2Z" transform="translate(0.5 0.5)"></path></svg> 