<?xml version="1.0" encoding="UTF-8"?> <svg xmlns="http://www.w3.org/2000/svg" id="_ëîé_1" data-name="‘ëîé_1" viewBox="0 0 2001 2001"><defs><style>.cls-1{fill:none;stroke:#fff;stroke-miterlimit:10;}.cls-2{fill:#242833;}</style></defs><rect class="cls-1" x="0.5" y="0.5" width="2000" height="2000"></rect><path d="M1191.62,888.77a44.15,44.15,0,0,0-32.39-13.66h-64.79v-.78A35,35,0,0,0,1083.91,849a35.7,35.7,0,0,0-25.37-10.54H941.46a36,36,0,0,0-36.3,35.9v.78H840.77a44.15,44.15,0,0,0-32.39,13.66,46.4,46.4,0,0,0-13.66,32.4v194.35a44.11,44.11,0,0,0,13.66,32.39,46.36,46.36,0,0,0,32.39,13.66h318.46a44.11,44.11,0,0,0,32.39-13.66,46.36,46.36,0,0,0,13.66-32.39V921.17A44.15,44.15,0,0,0,1191.62,888.77ZM1185,1115.52h-.39a25.33,25.33,0,0,1-25.37,25.37H840.77a25.33,25.33,0,0,1-25.37-25.37V921.17a25.32,25.32,0,0,1,25.37-25.37h75.32a10.49,10.49,0,0,0,10.54-10.54V873.94a14.7,14.7,0,0,1,15.22-15.22h116.69a14.7,14.7,0,0,1,15.22,15.22v11.32a10.49,10.49,0,0,0,10.54,10.54h75.32A25.32,25.32,0,0,1,1185,921.17Z" transform="translate(0.5 0.5)"></path><path d="M1000,922.34a95.94,95.94,0,1,0,67.91,28.1A96.16,96.16,0,0,0,1000,922.34Zm53.08,149.47a75.4,75.4,0,0,1-106.16,0,74.6,74.6,0,0,1-21.85-53.08,76.25,76.25,0,0,1,21.85-53.07A74.63,74.63,0,0,1,1000,943.8a76.29,76.29,0,0,1,53.08,21.86,74.59,74.59,0,0,1,21.85,53.07C1075.32,1039.42,1066.74,1058.15,1053.08,1071.81Z" transform="translate(0.5 0.5)"></path><circle cx="1139.44" cy="941.57" r="19.12"></circle><path class="cls-2" d="M997.38,1871.1a90.44,90.44,0,0,0-14-1.16,87.31,87.31,0,0,0-13.94,1.16c-1.88.34-4.51,3-4.83,4.71a87.16,87.16,0,0,0,0,28c.32,1.86,2.95,4.49,4.7,4.79a85.52,85.52,0,0,0,14.07,1.16,83.76,83.76,0,0,0,14-1.16c1.83-.3,4.49-2.93,4.76-4.7a85.36,85.36,0,0,0,0-28C1001.79,1874.07,999.11,1871.44,997.38,1871.1Z" transform="translate(0.5 0.5)"></path><path class="cls-2" d="M1619.22,21.24H383.34c-73.77,0-134.13,60.38-134.13,134.15V370.86h-.59a2,2,0,0,0-2,2.19v87.08a2,2,0,0,0,2,2.19h.59v145a3.85,3.85,0,0,0-2.56,3.65V776.16a4,4,0,0,0,2.56,3.71v77a3.87,3.87,0,0,0-2.56,3.68v165.17a3.83,3.83,0,0,0,2.56,3.66v815.25c0,73.8,60.36,134.12,134.13,134.12H1619.22c73.76,0,134.13-60.32,134.13-134.12V155.39C1753.35,81.62,1693,21.24,1619.22,21.24Zm44.17,1794.48H339.19V184.35h1324.2Z" transform="translate(0.5 0.5)"></path></svg> 