<?xml version="1.0" encoding="UTF-8"?> <svg xmlns="http://www.w3.org/2000/svg" id="_ëîé_1" data-name="‘ëîé_1" viewBox="0 0 2001 2001"><defs><style>.cls-1{fill:none;stroke:#fff;stroke-miterlimit:10;}.cls-2{fill:#242833;}</style></defs><rect class="cls-1" x="0.5" y="0.5" width="2000" height="2000"></rect><path d="M1085.09,1078.67a335.37,335.37,0,0,1-25.2,43.55,169.9,169.9,0,0,0,95.59,101.42,221.43,221.43,0,0,0,23.38-27.56A135.68,135.68,0,0,1,1085.09,1078.67Z" transform="translate(0.5 0.5)"></path><path d="M1152.26,1067.11V931.76c0-84-68.3-152.26-152.26-152.26S847.74,847.81,847.74,931.76a67.75,67.75,0,0,1-67.67,67.68v33.83A101.62,101.62,0,0,0,881.58,931.76a118.43,118.43,0,0,1,236.85,0v135.35A101.69,101.69,0,0,0,1197,1166a218.24,218.24,0,0,0,12.91-32A67.78,67.78,0,0,1,1152.26,1067.11Z" transform="translate(0.5 0.5)"></path><path d="M1076.35,1210.69a204.62,204.62,0,0,1-29.61-37.5l-11.26-18.35-16.11,16.23a336.56,336.56,0,0,1-136.5,83.23,218.85,218.85,0,0,0,41.9,20.61,370.3,370.3,0,0,0,104.76-66.82,240.07,240.07,0,0,0,63.74,59.29,219.7,219.7,0,0,0,33.71-19.67A203.08,203.08,0,0,1,1076.35,1210.69Z" transform="translate(0.5 0.5)"></path><path d="M1000,711.83c-121.27,0-219.93,98.66-219.93,219.93V965.6a33.88,33.88,0,0,0,33.83-33.84c0-102.61,83.49-186.09,186.1-186.09s186.1,83.48,186.1,186.09v135.35a33.87,33.87,0,0,0,31.41,33.74,220.55,220.55,0,0,0,2.42-32.61V931.76C1219.93,810.49,1121.27,711.83,1000,711.83Z" transform="translate(0.5 0.5)"></path><path d="M1000,847.17a84.69,84.69,0,0,0-84.59,84.59c0,74.63-60.71,135.35-135.34,135.35v1.13a220,220,0,0,0,2.43,32.67A169.06,169.06,0,0,0,949.25,931.76a50.75,50.75,0,0,1,101.5,0c0,134.56-98.69,246.48-227.48,267.23a222.13,222.13,0,0,0,26.16,29.4,304.57,304.57,0,0,0,235.16-296.63A84.69,84.69,0,0,0,1000,847.17Z" transform="translate(0.5 0.5)"></path><path d="M1028.5,1258.54q-1.55-1.55-3.06-3.11A404.41,404.41,0,0,1,977.15,1287a223.92,223.92,0,0,0,22.85,1.18,219.48,219.48,0,0,0,54.42-6.82A274.6,274.6,0,0,1,1028.5,1258.54Z" transform="translate(0.5 0.5)"></path><path d="M1000,914.85a16.92,16.92,0,0,0-16.92,16.91c0,108.52-85.58,197.42-192.8,202.76a218.1,218.1,0,0,0,13.48,32.93,236.76,236.76,0,0,0,213.16-235.69A16.92,16.92,0,0,0,1000,914.85Z" transform="translate(0.5 0.5)"></path><path class="cls-2" d="M997.38,1871.1a90.44,90.44,0,0,0-14-1.16,87.31,87.31,0,0,0-13.94,1.16c-1.88.34-4.51,3-4.83,4.71a87.16,87.16,0,0,0,0,28c.32,1.86,2.95,4.49,4.7,4.79a85.52,85.52,0,0,0,14.07,1.16,83.76,83.76,0,0,0,14-1.16c1.83-.3,4.49-2.93,4.76-4.7a85.36,85.36,0,0,0,0-28C1001.79,1874.07,999.11,1871.44,997.38,1871.1Z" transform="translate(0.5 0.5)"></path><path class="cls-2" d="M1619.22,21.24H383.34c-73.77,0-134.13,60.38-134.13,134.15V370.86h-.59a2,2,0,0,0-2,2.19v87.08a2,2,0,0,0,2,2.19h.59v145a3.85,3.85,0,0,0-2.56,3.65V776.16a4,4,0,0,0,2.56,3.71v77a3.87,3.87,0,0,0-2.56,3.68v165.17a3.83,3.83,0,0,0,2.56,3.66v815.25c0,73.8,60.36,134.12,134.13,134.12H1619.22c73.76,0,134.13-60.32,134.13-134.12V155.39C1753.35,81.62,1693,21.24,1619.22,21.24Zm44.17,1794.48H339.19V184.35h1324.2Z" transform="translate(0.5 0.5)"></path></svg> 