<?xml version="1.0" encoding="UTF-8"?> <svg xmlns="http://www.w3.org/2000/svg" id="_ëîé_1" data-name="‘ëîé_1" viewBox="0 0 2001 2001"><defs><style>.cls-1{fill:none;stroke:#fff;stroke-miterlimit:10;}.cls-2{fill:#242833;}</style></defs><rect class="cls-1" x="0.5" y="0.5" width="2000" height="2000"></rect><path class="cls-2" d="M997.38,1871.1a90.44,90.44,0,0,0-14-1.16,87.31,87.31,0,0,0-13.94,1.16c-1.88.34-4.51,3-4.83,4.71a87.16,87.16,0,0,0,0,28c.32,1.86,2.95,4.49,4.7,4.79a85.52,85.52,0,0,0,14.07,1.16,83.76,83.76,0,0,0,14-1.16c1.83-.3,4.49-2.93,4.76-4.7a85.36,85.36,0,0,0,0-28C1001.79,1874.07,999.11,1871.44,997.38,1871.1Z" transform="translate(0.5 0.5)"></path><path class="cls-2" d="M1619.22,21.24H383.34c-73.77,0-134.13,60.38-134.13,134.15V370.86h-.59a2,2,0,0,0-2,2.19v87.08a2,2,0,0,0,2,2.19h.59v145a3.85,3.85,0,0,0-2.56,3.65V776.16a4,4,0,0,0,2.56,3.71v77a3.87,3.87,0,0,0-2.56,3.68v165.17a3.83,3.83,0,0,0,2.56,3.66v815.25c0,73.8,60.36,134.12,134.13,134.12H1619.22c73.76,0,134.13-60.32,134.13-134.12V155.39C1753.35,81.62,1693,21.24,1619.22,21.24Zm44.17,1794.48H339.19V184.35h1324.2Z" transform="translate(0.5 0.5)"></path><path d="M1040.33,1147.89v26.89H959.67v-26.89H932.78v40.33a13.45,13.45,0,0,0,13.44,13.45h107.56a13.45,13.45,0,0,0,13.44-13.45v-40.33Z" transform="translate(0.5 0.5)"></path><rect x="987.06" y="1188.72" width="26.89" height="134.44"></rect><path d="M919.33,677.33H892.44a26.88,26.88,0,0,0-26.88,26.89v121h26.88v-121h26.89v121h26.89v-121A26.89,26.89,0,0,0,919.33,677.33Z" transform="translate(0.5 0.5)"></path><path d="M1107.56,677.33h-26.89a26.89,26.89,0,0,0-26.89,26.89v121h26.89v-121h26.89v121h26.88v-121A26.88,26.88,0,0,0,1107.56,677.33Z" transform="translate(0.5 0.5)"></path><path d="M879,1053.78v-26.89H852.11v26.89q0,.56,0,1.11A26.35,26.35,0,0,0,879,1080.67h26.89v-26.89Z" transform="translate(0.5 0.5)"></path><path d="M1215.11,811.78H784.89A26.89,26.89,0,0,0,758,838.67v26.89a26.88,26.88,0,0,0,26.89,26.88h13.44v201.67a40.33,40.33,0,0,0,40.34,40.33h322.66a40.33,40.33,0,0,0,40.34-40.33V892.44h13.44A26.88,26.88,0,0,0,1242,865.56V838.67A26.89,26.89,0,0,0,1215.11,811.78Zm0,53.78h-26.89A13.44,13.44,0,0,0,1174.78,879v215.11a13.45,13.45,0,0,1-13.45,13.45H838.67a13.45,13.45,0,0,1-13.45-13.45V879a13.44,13.44,0,0,0-13.44-13.44H784.89V838.67h430.22v26.89Z" transform="translate(0.5 0.5)"></path><rect x="852.61" y="866.06" width="295.78" height="26.89"></rect></svg> 