<?xml version="1.0" encoding="UTF-8"?> <svg xmlns="http://www.w3.org/2000/svg" id="_ëîé_1" data-name="‘ëîé_1" viewBox="0 0 2001 2001"><defs><style>.cls-1{fill:none;stroke:#fff;stroke-miterlimit:10;}.cls-2{fill:#fff;}.cls-3{fill:#242833;}</style></defs><rect class="cls-1" x="0.5" y="0.5" width="2000" height="2000"></rect><path d="M657.509,847.864c-11.206,0-20.285,9.87-20.285,22.035v.587h725.552V869.9c0-12.165-9.087-22.035-20.277-22.035Z" transform="translate(0.5 0.5)"></path><rect class="cls-2" x="637.724" y="870.986" width="725.553" height="9.28"></rect><path d="M637.224,1152.62c0,12.165,9.079,22.036,20.285,22.036H1342.5c11.19,0,20.277-9.871,20.277-22.036V879.765H637.224Zm138.144-12.437H734.421v-42.574h40.947Zm-7.023-68.666v-42.574h40.947v42.574Zm68.309,68.666H795.7v-42.574h40.955Zm-8-68.666v-42.574H869.6v42.574Zm314.373,68.666H853.056v-42.574h289.966Zm-254.093-68.666v-42.574h40.955v42.574Zm60.311,0v-42.574H990.2v42.574Zm60.281,0v-42.574h40.97v42.574Zm60.311,0v-42.574h40.954v42.574Zm60.3,0v-42.574h40.955v42.574Zm74.173,68.666h-40.969v-42.574h40.969Zm-13.892-68.666v-42.574h40.971v42.574Zm75.162,68.666h-40.954v-42.574h40.954Zm-20.561-68.666v-42.574h81.756v42.574Zm81.84,68.666H1285.9v-42.574h40.954ZM1285.9,891.62h40.954v42.574H1285.9Zm0,68.669h40.954v42.558H1285.9Zm-61.279-68.669h40.954v42.574h-40.954Zm0,68.669h40.954v42.558h-40.954Zm-61.285-68.669h40.969v42.574h-40.969Zm0,68.669h40.969v42.558h-40.969Zm-61.264-68.669h40.947v42.574h-40.947Zm0,68.669h40.947v42.558h-40.947ZM1040.79,891.62h40.962v42.574H1040.79Zm0,68.669h40.962v42.558H1040.79ZM979.519,891.62h40.963v42.574H979.519Zm0,68.669h40.963v42.558H979.519ZM918.248,891.62H959.2v42.574H918.248Zm0,68.669H959.2v42.558H918.248ZM856.962,891.62h40.963v42.574H856.962Zm0,68.669h40.963v42.558H856.962ZM795.7,891.62h40.955v42.574H795.7Zm0,68.669h40.955v42.558H795.7ZM734.421,891.62h40.947v42.574H734.421Zm0,68.669h40.947v42.558H734.421ZM673.135,891.62h40.97v42.574h-40.97Zm0,68.669h40.97v42.558h-40.97Zm0,68.654h81.756v42.574H673.135Zm0,68.666h40.97v42.574h-40.97Z" transform="translate(0.5 0.5)"></path><rect class="cls-2" x="857.462" y="892.12" width="40.963" height="42.574"></rect><rect class="cls-2" x="857.462" y="960.789" width="40.963" height="42.558"></rect><rect class="cls-2" x="918.748" y="960.789" width="40.946" height="42.558"></rect><rect x="973.623" y="825.844" width="71.871" height="38.966" rx="14.3"></rect><circle class="cls-2" cx="1009.559" cy="847.492" r="6.494"></circle><path class="cls-3" d="M1619.24,21.245H383.36c-73.77,0-134.13,60.38-134.13,134.15v215.47h-.59a2,2,0,0,0-2.009,1.991,1.657,1.657,0,0,0,.009.2v87.08a2,2,0,0,0,1.8,2.181c.066.006.132.009.2.009h.59v145a3.85,3.85,0,0,0-2.56,3.65v165.19a4,4,0,0,0,2.56,3.71v77a3.868,3.868,0,0,0-2.56,3.68v165.17a3.83,3.83,0,0,0,2.56,3.66v815.25c0,73.8,60.36,134.12,134.13,134.12H1619.24c73.76,0,134.13-60.32,134.13-134.12V155.4C1753.37,81.625,1693.02,21.245,1619.24,21.245Zm44.17,1794.48H339.21V184.355h1324.2Z" transform="translate(0.5 0.5)"></path></svg> 